<svg width="17" height="13" viewBox="0 0 17 13" fill="none" xmlns="http://www.w3.org/2000/svg">
<g clip-path="url(#clip0)">
<path fill-rule="evenodd" clip-rule="evenodd" d="M13.982 2.61516H12.7224L14.3411 0.996399L15.9598 2.61516H14.7001V5.82008H13.982V2.61516Z" fill="#FF5C5C"/>
<path fill-rule="evenodd" clip-rule="evenodd" d="M12.1349 12.017V1.90259C12.1349 1.65337 12.0331 1.42696 11.8691 1.263C11.7051 1.09904 11.4787 0.997253 11.2295 0.997253H1.11512C0.8659 0.997253 0.639497 1.09905 0.47554 1.263C0.311582 1.42696 0.209778 1.65337 0.209778 1.90259V12.017C0.209778 12.2663 0.311558 12.4926 0.47554 12.6566C0.639497 12.8206 0.865875 12.9224 1.11512 12.9224H11.2295C11.4788 12.9224 11.7052 12.8206 11.8691 12.6566C12.0331 12.4926 12.1349 12.2663 12.1349 12.017ZM2.75127 7.66039C2.75729 7.72385 2.77277 7.79098 2.7998 7.84634C2.82411 7.8961 2.85733 7.93813 2.90369 7.96902C2.96039 8.00681 3.02499 8.01822 3.09227 8.01554C3.20247 8.01116 3.32021 7.96685 3.41797 7.92032L4.85471 5.99885V11.5952H5.6463V8.53121H6.69842V11.5952H7.48998V5.99885L8.92589 7.91918C9.02443 7.96716 9.14181 8.01115 9.25246 8.01554C9.31978 8.01822 9.38435 8.00681 9.44107 7.96901C9.48744 7.93812 9.52063 7.89611 9.54494 7.84634C9.57199 7.79095 9.58744 7.72385 9.59346 7.66038C9.56996 7.61122 9.52423 7.54416 9.49905 7.5059C9.42015 7.38597 9.33557 7.26867 9.25073 7.15287C9.01684 6.83358 8.77361 6.51994 8.53068 6.20747C8.43581 6.08544 8.34074 5.96359 8.24567 5.84174C8.07387 5.62156 7.90191 5.40148 7.73106 5.18058C7.62937 5.04909 7.52267 4.91512 7.4272 4.77919L7.4221 4.77192L7.41937 4.76737H5.16757V4.76763L4.9253 4.76786C4.83395 4.90131 4.72641 5.03456 4.62744 5.16262C4.45209 5.38953 4.27549 5.61551 4.09909 5.84161C4.00399 5.9635 3.90888 6.0854 3.81399 6.20747C3.57108 6.51994 3.32786 6.83358 3.09398 7.15287C3.00916 7.26867 2.92457 7.38596 2.84567 7.50589C2.82049 7.54416 2.77476 7.61123 2.75127 7.66039L2.75127 7.66039ZM5.19452 3.31224C5.19452 3.56973 5.2983 3.81172 5.48137 3.99182C5.66618 4.17361 5.91315 4.27401 6.17232 4.27401C6.43148 4.27401 6.67846 4.17361 6.86326 3.99182C7.04633 3.81172 7.15011 3.56973 7.15011 3.31224C7.15011 3.05477 7.04635 2.81276 6.86327 2.63267C6.67846 2.45087 6.4315 2.35046 6.17232 2.35046C5.91314 2.35046 5.66617 2.45086 5.48136 2.63267C5.29828 2.81276 5.19452 3.05477 5.19452 3.31224Z" fill="#FF5C5C"/>
<path fill-rule="evenodd" clip-rule="evenodd" d="M13.982 11.3027H12.7224L14.3411 12.9215L15.9598 11.3027H14.7001V8.09784H13.982V11.3027Z" fill="#FF5C5C"/>
</g>
<defs>
<clipPath id="clip0">
<path d="M0.209778 0.996399H16.2098V12.9964H0.209778V0.996399Z" fill="white"/>
</clipPath>
</defs>
</svg>
