<svg width="17" height="13" viewBox="0 0 17 13" fill="none" xmlns="http://www.w3.org/2000/svg">
<g clip-path="url(#clip0)">
<path fill-rule="evenodd" clip-rule="evenodd" d="M13.982 2.04485H12.7224L14.3411 0.426086L15.9598 2.04485H14.7001V5.24977H13.982V2.04485Z" fill="#EBF5F7"/>
<path fill-rule="evenodd" clip-rule="evenodd" d="M12.1349 11.4467V1.33228C12.1349 1.08306 12.0331 0.856647 11.8691 0.69269C11.7051 0.528732 11.4787 0.426941 11.2295 0.426941H1.11512C0.8659 0.426941 0.639497 0.528733 0.47554 0.69269C0.311582 0.856648 0.209778 1.08306 0.209778 1.33228V11.4467C0.209778 11.6959 0.311558 11.9223 0.47554 12.0863C0.639497 12.2503 0.865875 12.352 1.11512 12.352H11.2295C11.4788 12.352 11.7052 12.2503 11.8691 12.0863C12.0331 11.9223 12.1349 11.6959 12.1349 11.4467ZM2.75127 7.09007C2.75729 7.15354 2.77277 7.22067 2.7998 7.27603C2.82411 7.32579 2.85733 7.36782 2.90369 7.39871C2.96039 7.4365 3.02499 7.44791 3.09227 7.44523C3.20247 7.44084 3.32021 7.39654 3.41797 7.35001L4.85471 5.42854V11.0249H5.6463V7.9609H6.69842V11.0249H7.48998V5.42854L8.92589 7.34886C9.02443 7.39685 9.14181 7.44083 9.25246 7.44523C9.31978 7.44791 9.38435 7.4365 9.44107 7.3987C9.48744 7.36781 9.52063 7.32579 9.54494 7.27603C9.57199 7.22063 9.58744 7.15354 9.59346 7.09007C9.56996 7.04091 9.52423 6.97385 9.49905 6.93559C9.42015 6.81566 9.33557 6.69836 9.25073 6.58256C9.01684 6.26326 8.77361 5.94963 8.53068 5.63715C8.43581 5.51512 8.34074 5.39328 8.24567 5.27143C8.07387 5.05125 7.90191 4.83117 7.73106 4.61027C7.62937 4.47878 7.52267 4.34481 7.4272 4.20888L7.4221 4.20161L7.41937 4.19706H5.16757V4.19732L4.9253 4.19755C4.83395 4.331 4.72641 4.46425 4.62744 4.59231C4.45209 4.81922 4.27549 5.0452 4.09909 5.27129C4.00399 5.39319 3.90888 5.51509 3.81399 5.63715C3.57108 5.94963 3.32786 6.26326 3.09398 6.58256C3.00916 6.69836 2.92457 6.81564 2.84567 6.93558C2.82049 6.97385 2.77476 7.04092 2.75127 7.09008L2.75127 7.09007ZM5.19452 2.74193C5.19452 2.99942 5.2983 3.2414 5.48137 3.42151C5.66618 3.6033 5.91315 3.7037 6.17232 3.7037C6.43148 3.7037 6.67846 3.6033 6.86326 3.42151C7.04633 3.2414 7.15011 2.99942 7.15011 2.74193C7.15011 2.48446 7.04635 2.24245 6.86327 2.06236C6.67846 1.88056 6.4315 1.78015 6.17232 1.78015C5.91314 1.78015 5.66617 1.88055 5.48136 2.06236C5.29828 2.24245 5.19452 2.48446 5.19452 2.74193Z" fill="#EBF5F7"/>
<path fill-rule="evenodd" clip-rule="evenodd" d="M13.982 10.7324H12.7224L14.3411 12.3512L15.9598 10.7324H14.7001V7.52753H13.982V10.7324Z" fill="#EBF5F7"/>
</g>
<defs>
<clipPath id="clip0">
<path d="M0.209778 0.426086H16.2098V12.4261H0.209778V0.426086Z" fill="white"/>
</clipPath>
</defs>
</svg>
