<svg width="60" height="60" viewBox="0 0 60 60" fill="none" xmlns="http://www.w3.org/2000/svg">
<g clip-path="url(#clip0)">
<path d="M19.6436 58.8883C19.4398 58.6187 18.9644 58.3155 18.7606 58.046C18.5569 57.7428 18.6248 57.6081 18.7267 57.4396C18.8285 57.2712 19.4059 57.0354 19.7455 56.0921C20.0851 55.1488 20.187 54.5761 20.187 54.2729C20.187 53.9697 20.3228 53.0938 20.3228 53.0938C20.3568 53.2959 20.4926 54.1718 20.5605 54.8119C20.5266 54.9466 20.5266 55.1151 20.4926 55.2835C20.2549 56.3953 20.153 56.4627 20.3568 56.6311C20.3568 56.7995 20.8322 57.4059 20.8322 57.4059C20.7982 57.6418 20.5605 59.6968 20.5605 59.6968C20.8662 60 23.1075 59.8652 23.4811 59.8315C23.8207 59.7979 23.9905 59.5957 23.9905 59.5957C24.4999 59.8989 27.2847 60 27.828 59.9663C28.3714 59.9326 29.4921 59.6631 29.4921 59.6631C29.4921 59.6631 29.7298 59.5957 29.6619 59.4947C29.594 59.3936 29.6619 59.2925 29.526 59.023C29.3902 58.7535 29.1525 58.6187 29.0166 58.7198C28.8808 58.7872 28.2695 58.7535 27.7261 58.7535C27.1828 58.7535 26.7073 58.3155 26.5036 58.0123C26.2998 57.7091 26.4696 57.7765 26.2319 57.507C25.9942 57.2375 25.9263 57.2712 25.8244 57.0354C25.7225 56.7995 26.13 56.3279 26.0961 56.0921C26.0621 55.8563 25.9263 55.6541 25.6885 55.0477C25.4508 54.4413 25.1791 53.5991 25.1112 52.959C25.0772 52.2852 24.9414 51.982 24.9414 51.2409C24.9414 50.4997 24.9754 49.489 24.9754 48.7816C24.9754 48.1078 25.1112 46.7939 25.1452 46.2549C25.1791 45.7159 25.5187 44.2673 25.5866 43.6609C25.6546 43.0881 25.7564 41.5721 25.7225 41.1679C25.6885 40.7636 26.0281 39.1128 26.164 38.4391C26.2998 37.7653 26.4696 36.1819 26.4696 35.4744C26.5036 34.8007 26.4017 33.251 26.2998 32.9478C26.1979 32.6446 26.164 31.4655 26.164 31.4655C26.1979 31.1623 26.1979 30.9264 26.1979 30.7243C26.5375 30.7243 27.0469 30.4885 27.3526 30.1179C27.6922 29.6463 27.3865 28.9725 27.2847 28.6356C27.2167 28.4671 27.0469 27.187 26.8771 25.9742C27.0469 26.1089 27.1828 26.2437 27.1828 26.2437C27.1828 26.2437 27.2167 26.1426 27.2507 26.0078C27.4884 26.0415 27.6922 26.0415 27.7941 26.0415C28.0997 26.0415 28.0657 25.3004 28.0657 25.1319C28.0657 25.0982 28.0657 25.0309 28.0657 24.9635L28.0997 24.9298C28.2356 24.9298 28.3714 24.9635 28.4054 25.0309C28.4733 25.0982 28.5752 25.1656 28.7789 25.1319C28.9827 25.0982 29.4242 25.0646 29.6619 24.8961C29.8996 24.7277 29.8317 24.6603 29.8656 24.4582C29.8996 24.256 29.8996 24.2897 29.8317 24.0539C29.7977 23.8181 29.8656 23.5149 29.8317 23.279C29.7977 23.0432 29.7977 23.0095 29.7638 22.8411C29.7298 22.6726 29.594 22.6726 29.4921 22.5042C29.3902 22.3358 29.4242 22.3358 29.3223 22.2347C29.2204 22.0999 28.9487 22.0999 28.677 22.0999C28.4054 22.0999 27.828 22.1673 27.7941 22.1673C27.7261 22.1673 27.3865 22.1673 27.3526 22.2347C27.3526 22.2347 27.3186 22.2347 27.2507 22.201H27.2167C27.1149 22.1673 26.9111 22.1673 26.8092 22.201C26.8092 22.1673 26.7753 22.1336 26.7753 22.0999C26.7753 22.0662 26.7413 21.9989 26.7413 21.8978C26.6734 21.2914 26.7073 20.3818 26.5715 19.5733C26.5375 19.4385 26.5375 19.3038 26.5036 19.169C26.6734 19.169 26.8432 19.2027 26.979 19.2027C27.2167 19.169 27.5224 19.2027 27.7261 19.2364C27.9299 19.2701 28.3714 19.4722 28.5072 19.5396C28.6431 19.607 29.1185 20.0786 29.2883 20.1123C29.4921 20.146 29.4921 20.0786 29.4921 19.9775C29.4921 19.8765 29.1185 19.5733 29.0166 19.4385C28.9148 19.3038 28.6431 19.1353 28.5752 18.9669C28.5072 18.7984 28.8808 18.7647 29.0506 18.7984C29.2883 18.8658 29.6279 19.1353 29.7977 19.2701C29.9675 19.4048 30.1034 19.6406 30.3411 19.708C30.5788 19.7754 30.6807 19.5059 30.5109 19.3374C30.443 19.2701 29.6958 18.5626 29.594 18.4615C29.4921 18.3605 29.2204 18.2257 29.594 18.2257C29.7977 18.2257 30.3411 18.4952 30.5109 18.6637C30.6807 18.8321 31.0203 19.0679 31.1561 19.1016C31.3259 19.169 31.3939 18.8995 31.3259 18.731C31.1222 18.3941 29.7638 17.4846 29.526 17.4172C29.3223 17.3498 29.4581 17.1813 29.4581 17.1813C29.4581 17.1813 29.7638 17.114 29.9336 17.114C30.1034 17.114 30.443 17.114 30.5788 17.215C30.7147 17.3161 31.1222 17.3161 31.1222 17.215C31.1222 17.114 30.6807 16.7434 30.1373 16.7097C29.8656 16.7097 29.2544 16.676 28.677 16.6423C28.8129 16.5413 28.9827 16.4402 29.0846 16.3728C29.2883 16.2717 29.56 16.0022 29.526 15.7664C29.4921 15.5306 28.9148 15.8338 28.9148 15.8338C28.9148 15.8338 28.677 15.9012 28.4733 16.0022C28.2356 16.1033 28.1676 16.1033 27.9299 16.2381C27.7941 16.3054 27.5563 16.3728 27.3865 16.4739C27.3186 16.5413 26.979 16.6423 26.8092 16.7771C26.6394 16.8781 26.5375 16.9118 26.3338 16.9792C26.1979 17.0129 26.0281 17.0466 25.8583 17.0466C25.7225 16.6423 25.6206 16.3391 25.5866 16.137C25.5187 15.5643 25.4168 15.2274 25.3489 14.6547C25.315 14.3852 25.1452 13.8461 24.9754 13.3408C25.0093 13.1387 25.0772 12.9365 25.0093 12.667C24.9414 12.3975 24.7037 11.8585 24.4999 11.7574C24.466 11.5553 24.432 11.4205 24.398 11.3869C24.3641 11.3195 24.3641 11.2858 24.3641 11.2521L24.398 11.2184C24.466 11.1173 24.432 11.0163 24.7376 10.8141C25.0093 10.5783 26.2998 10.3088 26.4017 10.3088C26.5036 10.2751 26.5036 10.2414 26.6394 9.83716C26.7753 9.43289 27.0809 9.16338 27.0469 9.06231C27.013 8.96125 27.1149 8.86018 27.1488 8.82649C27.1828 8.7928 27.3186 8.75911 27.3865 8.4896C27.4545 8.22009 27.4884 8.05165 27.5563 8.01796C27.6243 7.98427 27.7261 8.01796 27.7261 8.01796C27.9639 8.05165 27.9639 7.81582 27.9639 7.64738C27.9639 7.51262 27.862 7.20942 27.862 7.07467C27.862 6.90622 27.9299 6.56933 27.9299 6.56933C27.9299 6.56933 28.0997 6.43458 28.0997 6.33351C28.0997 6.23244 28.2356 6.064 28.2356 6.064C28.3374 6.03031 28.3035 5.79449 28.3374 5.39022C28.3714 4.91858 28.2695 4.04266 28.2695 4.04266C28.2016 3.70577 29.0166 4.00897 29.0166 4.00897C28.8129 2.76248 27.0469 1.1791 25.7904 0.909591C24.5339 0.64008 23.1755 0.909591 22.2925 1.54968C21.4435 2.18977 20.9001 5.72711 20.9001 6.23244C20.9001 6.73778 21.3756 7.47893 21.3077 7.84951C21.3077 7.84951 20.968 7.84951 20.8662 8.01796C20.6964 8.11902 20.3228 8.55698 20.187 8.72542C20.0511 8.89387 19.7115 8.96125 19.3719 9.06231C19.0323 9.12969 18.8285 9.16338 18.1493 9.26445C17.4701 9.33183 17.1305 9.63503 16.723 9.90454C16.3155 10.174 15.1608 11.9259 15.025 12.1617C14.8892 12.3975 14.8212 14.0483 14.7533 14.3852C14.6854 14.7221 14.3797 15.4295 14.2099 16.1033C14.0401 16.7771 12.6817 20.2134 12.8176 20.6513C13.0893 21.5272 14.5156 21.9315 14.4137 22.2347C14.3118 22.5379 13.4968 29.0062 13.4968 29.5452C13.4968 30.0842 13.3609 31.2296 13.7685 31.7013C14.0062 31.9708 14.6514 32.1055 14.6514 32.1055C14.6854 32.7793 14.991 37.2936 15.025 38.1696C15.059 39.0118 15.4665 40.1235 15.4665 40.8647C15.4665 41.6058 14.4477 48.7816 14.2439 49.6575C14.0062 50.5334 13.3949 54.4413 13.4628 54.8793C13.5307 55.3172 14.2099 56.0921 14.2779 56.2942C14.3118 56.53 13.9383 57.2038 13.8364 57.507C13.7345 57.8102 14.3118 58.7872 14.3118 59.0567C14.3118 59.3262 14.5156 59.7642 14.5156 59.7642C14.5156 59.7642 14.8892 59.8315 15.2288 59.8315C15.5684 59.8315 19.4738 59.7979 19.6096 59.7979C19.7455 59.7979 19.9492 59.7305 19.9492 59.562C19.9492 59.3936 19.8134 59.3936 19.8134 59.2251C19.8474 59.2251 19.8474 59.1578 19.6436 58.8883Z" fill="#638CC2"/>
<path d="M38.933 0.640083C38.6274 1.2128 37.9821 1.31386 37.7105 1.65075C37.4048 1.98764 37.2011 1.95395 37.5067 2.22346C37.8123 2.52666 37.9482 2.45929 37.7105 2.79618C37.4727 3.13306 37.6765 2.79618 38.0501 2.93093C38.2878 2.99831 37.4388 4.17742 37.4048 4.64907C37.3709 5.12071 37.4048 5.22178 37.4388 5.4576C37.4727 5.69342 37.6086 5.65974 37.4727 5.79449C37.3369 5.92925 36.8275 6.6704 36.8954 6.90623C36.9294 7.14205 37.0312 7.14205 37.2011 7.17574C37.4048 7.20943 37.3369 7.04098 37.4048 7.20943C37.4388 7.41156 37.4388 7.61369 37.4388 7.74845C37.4727 7.8832 37.5746 7.98427 37.6765 8.01796C37.7784 8.05165 37.6425 8.15272 37.7105 8.25378C37.7444 8.38854 37.6765 8.35485 37.8463 8.48961C38.0161 8.62436 37.9821 8.72543 37.9821 8.96125C37.9482 9.19707 38.118 9.33183 38.3557 9.36552C38.5934 9.39921 39.3066 9.50027 39.6122 9.33183C39.9179 9.16338 39.9858 9.19707 40.1896 9.36552C40.3933 9.53396 40.5971 9.50027 40.5292 9.93823C40.5292 10.0056 40.4952 10.073 40.4952 10.1404C39.85 10.7468 39.2726 11.3869 39.0009 11.9933C39.0009 11.9933 38.5595 12.4649 39.0349 12.2291C39.2387 12.128 39.2726 12.3638 39.2387 12.7007C39.2047 12.7344 39.2047 12.7681 39.2387 12.8018C39.2387 13.0713 39.1708 13.3745 39.1368 13.644C39.0689 14.0483 38.933 14.621 38.933 14.7894C38.933 15.0253 37.6425 18.2594 37.6425 18.4615C37.6425 18.4952 37.6425 18.4952 37.6765 18.5289L36.42 18.5963C36.42 18.5963 36.386 18.63 36.386 18.6974C36.386 18.6974 36.3181 18.6637 36.1822 18.6637C36.1822 18.6637 35.7747 17.9562 35.503 17.7204C35.2314 17.4846 34.3823 17.215 34.1786 16.8782C33.9748 16.5076 33.6692 16.3728 33.5673 16.5076C33.4315 16.6423 33.805 17.1814 34.1107 17.3835C34.4163 17.6193 34.5521 17.8214 34.3484 17.9562C34.1446 18.091 33.8729 18.3605 33.7371 18.3268C33.7371 18.3268 33.0239 18.3605 33.0579 18.1246C33.0919 17.8888 33.1937 17.8551 33.1937 17.7541C33.1937 17.6867 33.0579 17.5182 32.956 17.6193C32.8202 17.7204 32.8541 17.9562 32.7862 17.9225C32.6843 17.8888 32.6164 17.7878 32.5824 17.6867C32.5824 17.5856 32.5145 17.3498 32.4126 17.4172C32.2768 17.5182 32.2089 17.6193 32.2428 17.8551C32.2768 18.0573 32.2428 18.2594 32.3447 18.3605C32.4466 18.4615 32.6164 18.5626 32.6504 18.63C32.6843 18.6974 32.5825 18.8321 32.6164 18.8995C32.6504 19.0006 32.8541 19.169 32.99 19.2364C33.1258 19.3038 33.1598 19.3711 33.2277 19.4722C33.2956 19.5733 33.3635 19.708 33.4994 19.7754C33.6352 19.8428 33.839 19.9775 33.9069 20.0449C33.9409 20.0786 33.9409 20.1123 34.0427 20.2134C34.1446 20.3481 34.1107 20.3144 34.2125 20.3818C34.3144 20.4155 35.2314 20.3818 35.3672 20.3818C35.503 20.3818 35.6389 20.3144 35.6389 20.3144C35.6389 20.3144 35.7408 19.3038 36.0804 18.7647C35.8766 19.169 35.537 20.2807 35.7068 21.2577C35.7068 21.2577 36.0124 21.7967 36.2162 21.8304C36.42 21.8641 36.6237 21.9989 36.6237 21.9989C36.6237 21.9989 36.6237 21.9652 36.5898 21.8641C36.5898 21.8978 36.6237 21.9652 36.6237 21.9989C36.6237 21.9989 36.3181 22.9422 36.2162 23.8518C36.1143 24.7614 36.0124 25.3341 35.9445 25.8057C35.8766 26.2774 35.8766 26.6143 35.8766 26.6143C35.8766 26.6143 36.4879 25.7383 36.6577 25.5025C36.8275 25.2667 36.8614 25.3341 36.9294 25.0309C36.9294 24.9972 36.9294 24.9298 36.9633 24.8624C36.9633 25.3341 37.0313 25.6373 37.0992 26.2437C37.2011 27.1196 37.0652 26.9175 37.1331 27.8607C37.235 28.804 37.0312 29.0399 37.3369 29.781C37.6425 30.5222 37.5407 30.7917 37.6425 31.2633C37.7444 31.7013 38.1859 31.836 38.1859 31.836C38.1859 31.836 38.2878 32.274 38.1519 32.6109C38.0161 32.9478 38.0161 34.1269 38.118 34.4638C38.2199 34.8007 38.3217 35.845 38.5255 36.5525C38.7293 37.2936 38.8311 37.7653 39.1708 38.5065C39.5104 39.2476 39.4764 39.1465 39.6122 39.9214C39.7481 40.6962 39.85 40.5952 39.85 41.909C39.85 43.2229 39.9518 43.0881 40.0877 43.7619C40.2235 44.4357 40.4952 44.6041 40.3933 45.1432C40.2914 45.6822 40.3594 45.8843 40.3933 46.457C40.4273 47.0298 40.5971 46.9961 40.631 47.5688C40.665 48.1415 40.3933 47.9057 40.631 48.5458C40.8688 49.1858 41.2763 49.0848 41.2763 49.8259C41.2763 50.5671 41.4801 52.3526 41.1744 53.4307C40.8688 54.5087 40.4273 55.0814 40.3933 55.3509C40.3594 55.5867 40.3933 55.452 40.4273 56.1258C40.4612 56.7995 40.5631 57.2375 40.2235 57.507C39.8839 57.7428 39.3745 58.4503 37.0312 58.3829C37.0312 58.3829 36.1483 58.6187 36.2841 58.9556C36.42 59.2925 37.8123 59.5957 39.0009 59.7305C39.0009 59.7305 45.3176 59.8652 46.642 59.8316C46.642 59.8316 47.2193 59.7305 47.2873 59.5957C47.3212 59.461 47.2533 59.0567 47.1854 58.9219C47.1514 58.7872 47.0495 58.1471 47.0835 57.6418C47.1175 57.1364 47.1854 57.1364 47.0835 56.7995C46.9816 56.4627 46.4383 56.2942 46.5741 55.6878C46.7099 55.0477 47.0835 54.6771 47.1514 54.1381C47.2533 53.5991 47.3552 49.2869 47.2873 47.7709C47.2533 46.2549 46.6081 43.2229 46.6081 42.2122C46.6081 41.2016 46.642 40.7973 46.4722 40.3593C46.2685 39.9214 45.9628 39.5171 46.0307 39.2813C46.0647 39.0455 46.4722 38.4391 46.4383 36.822C46.4043 35.2049 46.3024 34.1943 46.3024 33.8911C46.3024 33.5879 46.6081 32.7793 46.7779 32.1729C46.9816 31.6002 46.7779 31.5328 47.0835 31.0949C47.1514 30.9938 47.2533 30.9264 47.3552 30.8591C47.4231 30.8591 47.525 30.8927 47.6269 30.8927C48.0684 30.9264 48.374 30.6569 48.374 30.6569C48.374 30.6569 47.3552 27.5239 47.3552 25.7047C47.3552 23.8855 46.7099 22.5716 48.1023 16.7771C49.4947 10.9489 45.793 9.53396 44.8082 8.75912L44.3667 7.74845C44.3667 7.74845 44.2988 7.74845 44.1969 7.78214C44.061 7.64738 43.9592 7.54632 43.8912 7.47894C43.8912 7.47894 43.8233 7.54632 43.6875 7.61369C43.7894 7.54632 43.8573 7.47894 43.8912 7.47894C44.0271 7.44525 44.129 7.14205 44.129 7.14205C44.129 7.14205 44.3667 6.87254 44.6044 6.43458C44.8421 5.99662 44.944 5.7608 45.0119 5.25547C45.0459 4.78382 45.1478 4.61538 45.2157 4.2448C45.2496 3.84053 44.8761 3.84053 44.91 3.30151C44.944 2.76249 45.5892 2.89724 45.1138 2.29084C44.6044 1.65075 44.095 1.75182 44.129 1.2128C44.1629 0.673772 43.9931 0.471638 43.6196 0.336883C43.2799 0.202127 43.1441 0.134749 42.6687 0.134749C42.2272 0.134749 41.9895 -0.101074 41.6499 -0.0673847C41.3103 -0.0336957 41.6159 0.134749 41.1065 0.269505C40.5971 0.40426 40.699 0.269505 40.0877 0.471638C39.2726 0.74115 39.2387 0.067371 38.933 0.640083Z" fill="#638CC2"/>
</g>
<defs>
<clipPath id="clip0">
<path d="M0.851501 0H59.8515V60H0.851501V0Z" fill="white"/>
</clipPath>
</defs>
</svg>
