<svg width="60" height="60" viewBox="0 0 60 60" fill="none" xmlns="http://www.w3.org/2000/svg">
<g clip-path="url(#clip0)">
<path d="M23.892 17.7208C23.8515 17.9231 23.8515 18.085 23.9325 18.2872C24.0134 18.4491 24.0538 18.6514 24.0538 18.8537C24.0538 19.4201 24.1752 19.9865 24.2561 20.5529C24.2966 20.7552 24.2966 20.9575 24.337 21.1193C24.3775 21.3216 24.4989 21.5239 24.7012 21.6453C24.9035 21.7667 25.0653 21.9285 25.3485 21.969C25.4699 21.969 25.5913 22.0094 25.7126 21.969C25.7531 21.969 25.7935 21.9285 25.834 21.969C26.1172 22.0499 26.4409 22.0499 26.6836 22.2117C26.6432 22.7377 26.5218 23.2636 26.36 23.7491C26.2386 24.0728 26.1981 24.4369 26.1172 24.7606C26.1172 24.8011 26.1172 24.882 26.1172 24.9629C26.1172 24.9629 26.279 25.0438 26.279 25.0843C26.4409 25.2057 26.4004 25.4079 26.36 25.5698C26.279 25.6507 26.279 25.7721 26.2386 25.853C26.1981 26.0957 26.1981 26.298 26.1172 26.5408C26.0768 26.7026 26.1172 26.9049 26.1172 27.0667C26.0768 27.5522 26.0363 28.0378 25.9958 28.5637C25.9958 28.5637 25.9958 28.5637 25.9958 28.6042C25.9958 29.4133 25.9149 30.1821 25.9554 30.9912C25.9958 31.6386 26.0363 32.2859 26.0768 32.9332C26.0768 33.4187 26.1577 33.9042 26.1981 34.4302C26.279 35.0371 26.36 35.6844 26.4409 36.2913C26.4813 36.6959 26.5218 37.06 26.5623 37.4646C26.6027 37.8287 26.6836 38.1928 26.7241 38.5974C26.7645 38.8806 26.7645 39.1234 26.805 39.4066C26.8455 39.7707 26.8859 40.1348 26.9264 40.4585C26.9264 40.5799 26.9264 40.6608 26.9264 40.7822C26.9264 40.944 27.0073 41.0654 27.1287 41.1463C27.25 41.2272 27.4119 41.2677 27.5737 41.3486C27.7356 41.7532 27.8974 42.1578 28.0592 42.6028C28.0997 42.6433 28.0592 42.7242 28.0997 42.7647C28.2615 43.0479 28.2615 43.3715 28.3424 43.6952C28.4233 44.1402 28.5043 44.6257 28.6256 45.1112C28.8684 46.0823 29.1921 46.9723 29.5562 47.9029C29.7989 48.4693 30.0012 49.0357 30.2035 49.6426C30.4463 50.3304 30.689 51.0587 30.9318 51.7464C30.9722 51.9083 31.0127 52.1106 31.0531 52.3129C31.0936 52.8388 31.215 53.4052 31.0127 53.9312C30.9318 54.174 30.8104 54.4167 30.7295 54.6595C30.5272 55.2259 30.4058 55.7923 30.0012 56.2373C29.7989 56.4396 29.718 56.6419 29.4753 56.8038C29.0302 57.087 28.5447 57.3297 28.0188 57.4511C27.7356 57.532 27.6142 57.8152 27.8974 58.0175C28.0188 58.0984 28.0997 58.1793 28.2211 58.2603C28.3424 58.3412 28.4638 58.3816 28.5852 58.3816C28.8684 58.4221 29.1111 58.3412 29.3944 58.3412C29.6371 58.3412 29.8799 58.3007 30.1226 58.2603C30.5272 58.2198 30.9722 58.1389 31.3768 58.0984C31.4173 58.0984 31.4577 58.0984 31.5387 58.0984C31.8219 58.0984 32.0646 58.058 32.3478 57.8557C32.3478 58.0175 32.3478 58.1389 32.3478 58.2603C32.3478 58.6244 32.4287 58.9885 32.5906 59.2717C32.7524 59.5549 32.9547 59.7977 33.2784 59.8786C33.2784 59.8786 33.2784 59.8786 33.3188 59.8786C33.683 60.1618 33.9662 59.9595 34.2494 59.7572C34.4517 59.5954 34.6135 59.3931 34.7753 59.1908C35.0585 58.8267 35.099 58.4221 35.0585 57.9771C35.0181 57.5725 34.9372 57.1679 34.8967 56.7228C34.8562 56.561 34.8562 56.3992 34.8562 56.2373C34.8158 55.9541 34.7753 55.6305 34.7349 55.3473C34.654 55.064 34.6135 54.7404 34.654 54.4572C34.6944 54.2549 34.6944 54.0526 34.654 53.8098C34.6135 53.2839 34.7349 52.7984 34.8967 52.2724C35.0181 51.8678 35.1799 51.4632 35.3013 51.0182C35.5845 50.0876 35.8273 49.1166 36.07 48.1861C36.3128 47.2556 36.4746 46.2845 36.6769 45.3135C36.7173 45.0708 36.7173 44.828 36.7578 44.5853C36.7983 43.9784 36.7983 43.412 36.7983 42.8051C36.7983 42.441 36.7173 42.0769 36.7173 41.7127C36.7173 41.5509 36.7173 41.3486 36.7173 41.1463C36.8387 41.1059 36.9601 41.0249 37.1219 40.9845C37.2838 40.944 37.4051 40.8226 37.4861 40.7013C37.6883 40.4181 37.7288 40.0944 37.7288 39.7707C37.7288 39.3257 37.7288 38.9211 37.7288 38.4761C37.7693 37.9905 37.8097 37.4646 37.8502 36.9791C37.8906 36.534 37.9311 36.1295 37.9716 35.6844C38.012 35.3203 38.0929 34.9562 38.1334 34.5516C38.1738 34.3493 38.1738 34.1874 38.2143 33.9852C38.2548 33.6615 38.2548 33.3378 38.2952 33.0546C38.3761 32.1241 38.2952 31.234 38.3761 30.3034C38.4166 29.7775 38.4166 29.2515 38.4166 28.766C38.4166 28.24 38.3357 27.7141 38.2952 27.1881C38.2952 26.6217 38.1738 26.0553 38.012 25.5293C38.012 25.4484 38.012 25.3675 38.0525 25.2866C38.0525 25.2057 38.1334 25.0843 38.0929 25.0034C38.012 24.5988 37.9311 24.1942 37.6883 23.8301C37.5265 23.5873 37.4456 23.3446 37.4456 23.0613C37.4456 22.8186 37.3647 22.5758 37.2838 22.2926C37.2028 22.0094 37.2028 21.6858 37.0815 21.4026C37.041 21.3216 37.0006 21.2003 37.0006 21.1193C37.0006 21.0789 37.0006 21.0384 37.0006 20.998C37.0006 20.9575 37.041 20.917 37.041 20.8766C37.041 20.7957 37.041 20.7552 37.041 20.6743C37.0006 20.3911 37.0815 20.1483 37.2433 19.946C37.6883 19.4201 38.012 18.8537 38.2952 18.2468C38.538 17.6804 38.7403 17.1139 38.983 16.5475C39.1853 16.0216 39.2662 15.4147 39.2662 14.8483C39.2662 14.4437 39.2662 14.0391 39.2662 13.6345C39.2662 13.2704 39.3067 12.9467 39.3067 12.5826C39.3067 12.2185 39.2662 11.8948 39.1853 11.5711C39.0639 11.1665 38.8616 10.762 38.6998 10.3574C38.5784 10.1146 38.4166 9.99325 38.1334 9.95279C37.8502 9.95279 37.6074 9.87187 37.3242 9.83141C37.3647 9.66958 37.4051 9.50774 37.4456 9.34591C37.2433 9.46729 37.0815 9.58866 36.8387 9.5482C36.6364 9.50774 36.4746 9.42683 36.3128 9.30545C36.3128 9.22453 36.3532 9.14362 36.3532 9.0627C36.2723 8.98178 36.2318 8.90087 36.1509 8.81995C36.2723 8.61766 36.2318 8.33445 36.4341 8.21307C36.3532 8.01078 36.3128 7.8894 36.4746 7.72757C36.5555 7.72757 36.596 7.68711 36.7173 7.68711C36.596 7.52528 36.4746 7.4039 36.3532 7.28252V7.24207C36.3937 7.24207 36.3937 7.28252 36.4341 7.28252C36.4746 7.28252 36.4746 7.32298 36.515 7.32298C36.515 7.28252 36.515 7.28252 36.515 7.28252C36.3937 7.03977 36.2723 6.83748 36.1509 6.59473C36.1105 6.55427 36.1509 6.51381 36.1509 6.4329C36.1509 5.98785 36.1509 5.58327 36.1509 5.13822C36.1509 5.01685 36.1914 4.89547 36.1914 4.7741C36.1509 4.00538 36.1509 3.23667 35.8677 2.50842C35.7059 2.02292 35.4227 1.57787 35.1799 1.17329C35.1395 1.09237 35.0585 1.01145 35.0181 0.930536C34.8158 0.566409 34.4921 0.364116 34.128 0.161824C33.9257 0.0404481 33.7234 0.0404481 33.5211 0.121365C33.3997 0.202282 33.2784 0.161824 33.2379 0.0809067C33.0761 -0.161845 32.8333 -0.121386 32.631 -0.0809275C31.7409 0.121365 30.9722 0.485492 30.3249 1.17329C29.7585 1.73971 29.3134 2.38704 29.0707 3.19621C28.8684 3.88401 28.6661 4.5718 28.7066 5.34052C28.7066 5.46189 28.7066 5.54281 28.7066 5.66418C28.7066 5.70464 28.747 5.78556 28.747 5.86648C28.7066 5.94739 28.6661 6.06877 28.5852 6.19014C28.6256 6.19014 28.6256 6.2306 28.6661 6.2306C28.5852 6.59473 28.3829 6.87794 28.1806 7.20161C28.3829 7.32298 28.4233 7.12069 28.5447 7.08023C28.5852 7.08023 28.5852 7.12069 28.6256 7.12069C28.6661 7.08023 28.6661 7.03977 28.747 6.99931C28.7875 7.03977 28.7875 7.08023 28.7875 7.08023C28.7875 7.20161 28.6661 7.28253 28.8279 7.36344C28.7875 7.48482 28.7066 7.56573 28.6256 7.72757C28.8684 7.56573 28.9493 7.4039 29.0707 7.16115C29.1111 7.28252 29.1111 7.32298 29.1111 7.36344C29.1111 7.64665 29.0302 7.8894 28.8279 8.13215C28.7066 8.25353 28.6256 8.37491 28.4638 8.53674C28.6661 8.53674 28.8279 8.61766 29.0302 8.5772C28.9493 8.65812 28.8279 8.77949 28.747 8.86041C28.6661 8.98178 28.5447 9.02224 28.5447 9.22453C28.302 9.34591 28.0592 9.46729 27.8165 9.58866C27.9378 9.58866 28.0997 9.58866 28.2615 9.62912C28.2211 9.71004 28.1806 9.75049 28.1401 9.79095C27.8974 9.95279 27.6546 10.1146 27.4523 10.236C27.0478 10.3169 26.7241 10.3978 26.36 10.4787C26.3195 10.4787 26.279 10.5192 26.1981 10.5192C25.9958 10.5192 25.834 10.6001 25.7531 10.8024C25.3485 11.5711 24.9844 12.3803 24.863 13.2299C24.7821 13.7963 24.6202 14.3628 24.5393 14.9292C24.418 15.5765 24.2966 16.2239 24.1752 16.8712C24.0134 17.2353 23.9729 17.4781 23.892 17.7208ZM31.6196 41.9959C31.9432 41.9959 32.3074 41.9959 32.5906 41.9959C32.7119 42.0769 32.7929 42.1578 32.8738 42.2387C32.8738 42.8051 32.8738 43.3311 32.8738 43.857C32.8738 43.8975 32.8738 43.9784 32.8333 44.0189C32.7119 44.1402 32.7524 44.3021 32.7524 44.4639C32.7524 45.6372 32.7524 46.851 32.7524 48.0243C32.7524 48.1052 32.7524 48.1861 32.7524 48.267C32.6715 48.2266 32.6715 48.1456 32.6715 48.1052C32.6715 47.9433 32.6715 47.822 32.6715 47.6601C32.6715 47.5792 32.6715 47.4983 32.631 47.4174C32.5501 47.296 32.5501 47.1746 32.5501 47.0937C32.5501 46.9723 32.5501 46.8105 32.5501 46.6487C32.3478 46.4464 32.3883 46.4464 32.3883 46.2036C32.4287 45.9204 32.5097 45.5968 32.4287 45.3135C32.3478 45.0303 32.3883 44.828 32.4287 44.5448C32.4287 44.5044 32.4287 44.4235 32.4287 44.383C32.3478 44.0593 32.2669 43.7357 32.186 43.4524C32.1455 43.2906 32.0646 43.0883 31.9837 42.9265C31.8623 42.6837 31.7409 42.4814 31.66 42.2387C31.5791 42.1578 31.5791 42.0769 31.6196 41.9959Z" fill="#638CC2"/>
<path d="M40.0891 26.9333C40.3261 27.2296 40.3261 27.437 40.4743 27.3778C40.4743 27.3778 40.4743 27.3778 40.5039 27.3778C40.4743 27.7037 40.4743 28.0889 40.4447 28.3852C40.3854 28.7111 40.3558 28.9481 40.3261 29.2148C40.2965 29.4519 40.3854 29.7481 40.4743 29.9556C40.5632 30.163 40.6817 30.5778 41.0373 31.1704C41.0373 31.2889 41.0373 31.4074 41.0669 31.4963C41.215 31.9407 41.4224 32.2074 41.541 32.5333C41.6298 32.8593 41.8373 33.6889 41.8669 34.2222C41.8965 34.7556 42.015 36.4148 42.015 38.4593C42.015 40.5037 41.9261 44.7407 41.9854 45.6C42.0447 46.4593 42.2817 47.2593 42.2224 47.8519C42.1632 48.4444 41.778 49.3037 41.8669 50.0741C41.9261 50.8444 42.2817 51.6148 42.3113 52.237C42.341 52.8296 42.1336 53.6 41.9558 54.1037C41.7484 54.6074 41.6595 54.6074 41.7187 55.4667C41.778 56.3259 41.9854 56.9778 42.015 57.3037C42.0447 57.4815 42.015 57.6 42.0743 57.6C41.9854 57.7481 41.7187 58.1037 41.4224 58.2222C41.0669 58.3704 40.5335 58.4296 40.5039 59.1407C40.4447 59.2296 40.3261 59.4074 40.5335 59.5556C41.0965 59.5852 42.2521 59.8222 43.2002 59.8222C44.1187 59.8222 44.415 59.763 44.415 59.6148C44.6224 59.7037 44.6817 59.7037 44.6817 59.7037C44.6817 59.7037 45.1854 59.6741 45.3632 59.6148C45.541 59.5556 45.5706 59.437 45.541 59.2889C45.5113 59.1407 45.541 58.6074 45.4521 58.4296C45.4817 58.4 45.4817 58.3111 45.5706 58.0741C45.7484 57.6 46.2224 56.8593 46.341 56.4148C46.4891 55.9704 46.4891 55.6741 46.2521 55.3185C46.015 54.963 46.015 54.7556 46.015 54.2222C46.015 53.6889 45.9854 52.6222 46.015 51.8815C46.0447 51.1407 46.0743 49.6 46.1039 48.5926C46.1336 47.5852 46.2521 46.3704 46.341 45.5111C46.4298 44.6519 46.4298 42.9333 46.6373 42.2815C46.8447 41.6296 46.9632 40.8593 47.1113 40.237C47.2595 39.5852 47.141 39.0815 47.3484 38.3111C47.5261 37.6296 47.4669 37.3037 47.5558 36.7407C47.5854 36.5333 47.6743 36.237 47.7336 36C47.7632 35.9407 47.7632 35.8815 47.7928 35.8222C47.8817 35.5556 47.9706 35.3185 47.9706 34.9333C48.0002 34.4 48.1484 33.7778 48.3261 33.8667C48.5632 34.0741 48.741 35.4963 48.741 35.4963C48.741 35.4963 48.741 35.4667 48.741 35.437C48.8595 36.2074 48.9484 37.1259 49.0669 37.9259C49.2447 39.3778 49.0373 42.6074 49.3039 43.7926C49.5706 45.0074 49.6002 46.7259 49.6891 47.7037C49.778 48.6815 49.778 51.3481 49.8076 52.4148C49.8373 53.4815 49.5113 54.7852 49.5706 55.5852C49.6298 56.3556 49.8965 57.037 49.9261 57.4519C49.9558 57.8963 49.9261 58.2815 49.9261 58.2815C49.9261 58.2815 49.9558 58.2815 49.9854 58.2815C49.8965 58.4296 49.7484 58.6667 49.8076 58.9926C49.8373 59.1407 49.8076 59.3185 49.8965 59.4074C49.9854 59.4963 51.3187 59.7037 51.3187 59.7037L52.2669 59.5259C52.2669 59.5259 52.3261 59.6444 52.4447 59.8222C52.5632 60 52.8595 60.0296 53.9261 60.0296C55.0224 60 56.415 59.8519 56.8595 59.763C57.3039 59.6741 57.4224 59.437 57.3336 59.2889C57.2447 59.1111 57.2447 58.9037 57.0373 58.7259C56.8299 58.5481 56.5632 58.4889 56.1187 58.4889C55.7336 58.4889 54.9039 58.6667 54.1632 57.6296C54.1632 57.6296 54.1336 57.5704 54.0743 57.4815C54.0447 57.4519 54.0447 57.3926 54.015 57.363C53.9261 56.6815 54.341 56.6815 54.2224 56.2074C54.1336 55.7333 54.1039 55.0815 53.9261 54.7259C53.7484 54.3704 53.9558 53.2444 53.9854 52.5037C54.015 51.763 53.8669 49.4519 53.9261 48.2074C53.9854 46.963 53.7484 44.9778 53.8669 44C53.9558 43.0222 54.2224 39.7926 54.4002 37.6C54.6076 35.4074 54.4595 34.4296 55.1113 32.8889C55.3187 32.4148 55.7039 31.8815 55.7039 31.1704C55.7039 31.2 55.7039 31.2296 55.7039 31.2296C55.7039 31.2296 55.8521 30.9333 56.1187 30.1926C56.3854 29.4519 56.5039 29.1556 56.5336 28.7407C56.5632 28.3259 56.6224 27.7037 56.8002 27.1407C56.9187 26.7556 57.0076 26.4 57.0669 26.1333C57.0965 26.1333 57.1558 26.1333 57.1854 26.1333C57.3039 26.1333 57.3336 26.1037 57.4521 25.9852C57.6299 25.837 57.778 25.8074 57.9261 25.3037C58.0743 24.8296 58.3706 23.9704 58.2224 24.0593C58.0743 24.1481 57.8373 23.8519 57.8373 23.8519C57.8373 23.8519 57.8076 24.0593 57.8076 23.437C57.8373 22.8148 57.8373 21.6 57.8373 20.8296C57.8669 20.0593 57.8076 18.5481 57.5706 16.563C57.3039 14.5778 57.0965 12.8593 56.8002 12.1185C56.5336 11.4667 56.0299 10.9926 55.141 10.5481V10.5185C54.7558 10.2519 52.2965 9.18519 51.941 9.03704C51.7928 8.97778 51.8224 9.0963 51.8224 9.0963L51.5854 8.94815C51.4076 8.74074 51.2595 7.94074 51.141 7.76296C51.0224 7.58519 50.7854 7.46667 50.7854 7.46667C50.7558 7.14074 50.7854 6.42963 50.8743 6.31111C51.0224 6.01481 51.1706 5.71852 51.2891 5.27407C51.4373 5.39259 51.7336 5.21481 51.8817 4.97778C52.0299 4.77037 52.2373 4.41481 52.178 3.94074C52.0891 3.46667 51.8224 3.40741 51.8224 3.40741C51.8817 3.2 51.8224 2.66667 51.6743 2.22222C51.5261 1.80741 51.4373 1.48148 51.0817 1.03704C50.7261 0.622222 50.4891 0.503704 50.2224 0.355556C49.9261 0.207407 49.6298 0.0888889 49.3632 0.0296296C49.1261 0.0592593 48.8595 0 48.2373 0C47.615 0.0296296 47.2595 0.414815 47.0817 0.622222C46.9336 0.82963 46.6076 1.00741 46.0447 1.86667C45.4817 2.72593 46.015 3.85185 46.0743 4.32593C45.8373 4.53333 46.1039 5.12593 46.1336 5.51111C46.1928 5.92593 46.4298 5.80741 46.5484 5.71852C46.7558 6.42963 47.0224 6.66667 47.0817 6.9037C47.141 7.08148 47.1113 7.64444 47.1113 7.97037C46.9632 8 46.9632 8.23704 46.9336 8.5037C46.9039 8.77037 46.8447 9.03704 46.6965 9.42222C46.6965 9.42222 45.7484 9.95556 45.0965 10.1926C44.4447 10.4593 43.2891 11.0519 43.1706 11.1704C43.1706 11.1704 43.1706 11.2 43.1706 11.2889H43.141C43.0817 11.3185 42.9039 11.3778 42.7854 11.4963C42.7558 11.5259 42.7558 11.5556 42.7558 11.5556C42.4891 11.763 42.2521 12.0296 42.015 12.4741C41.5113 13.363 41.6298 14.0148 41.5113 15.0815C41.3928 16.1481 40.7706 19.437 40.4743 21.0963C40.178 22.7556 40.178 24.7407 40.2076 24.9778C40.2373 25.2148 40.3261 25.037 40.1187 25.1556C39.9706 25.3333 39.941 25.4815 39.7928 25.4519C39.6447 25.4222 39.6743 25.6 39.7335 26.0444C39.7928 26.4889 39.8521 26.637 40.0891 26.9333ZM54.4891 25.2741C54.4002 24.6222 54.3706 23.3778 54.2817 22.4593C54.1928 21.5407 54.2817 21.3333 54.1928 21.037C54.1336 20.7111 54.1039 20.6815 54.2224 20.3259C54.341 19.9704 54.4891 19.7333 54.4595 19.1111C54.4595 19.0222 54.4595 18.8741 54.4595 18.7259C54.4891 18.7556 54.4891 18.8148 54.4891 18.8444C54.5187 19.1111 54.5484 19.1704 54.578 19.3778C54.6076 19.5259 54.6076 19.7333 54.6076 19.9111C54.6076 20.0296 54.6076 20.1185 54.6076 20.237C54.6076 20.2963 54.6076 20.3259 54.6076 20.3556C54.6076 20.4741 54.6076 20.563 54.6076 20.6815C54.6669 21.3926 54.6669 21.7778 54.815 22.1037C54.9632 22.4 54.9039 22.9333 54.9039 23.1407C54.8743 23.3481 54.9632 23.6444 54.8743 23.763C54.815 23.8519 54.6965 23.7926 54.6669 23.763C54.6669 23.763 54.6669 23.9111 54.7261 24.2963C54.7854 24.7111 54.815 24.8 54.8743 25.0963C54.9336 25.3926 54.9039 25.6889 54.9336 25.8667C54.9336 25.8963 54.9336 25.8963 54.9632 25.9259C54.9928 26.0148 55.2299 26.163 55.2299 26.163C55.2299 26.163 55.2299 26.1037 55.2002 25.9852C55.2595 26.5481 55.3187 27.5556 55.2891 27.7926C55.2299 28.1481 55.0817 28.4741 54.8743 28.6815C54.7261 28.8296 54.6373 28.9185 54.6373 28.9185C54.6373 28.9185 54.6373 28.9481 54.6669 28.9778C54.6076 28.8889 54.5484 28.8296 54.5187 28.7407C54.1632 28.237 54.2224 27.7037 54.2224 27.4667C54.2224 27.3778 54.1928 27.2889 54.1632 27.2V27.1704C54.1336 27.0519 54.0743 26.9333 54.0447 26.8741C54.2817 26.8444 54.5187 26.8444 54.578 26.7259C54.6965 26.5185 54.578 25.9556 54.4891 25.2741ZM47.141 7.97037C47.141 8 47.141 8.02963 47.141 8.02963C47.1113 8 47.1113 8 47.141 7.97037ZM43.0521 24.9481C43.1113 24.6222 43.3187 23.2296 43.3484 22.9037C43.378 22.5778 43.2595 22.5481 43.378 22.1333C43.4965 21.7481 43.6447 21.8667 43.6447 21.4222C43.6447 20.9778 43.8521 20.9185 43.7632 20.6519V20.6222C43.7632 20.5926 43.7632 20.563 43.7336 20.5037C43.7928 20.6815 43.8817 20.7407 43.8817 20.9778C43.9113 21.2741 43.8224 21.3926 43.8224 21.6593C43.7928 21.8963 43.8817 22.0741 43.7928 22.2815C43.7039 22.4889 43.5854 22.5778 43.4965 22.963C43.4076 23.3185 43.141 25.0963 43.1113 25.4519C43.1113 25.6593 43.0521 25.9259 42.9928 26.1333C43.0224 25.837 43.0521 25.5407 43.0521 25.4519C43.0521 25.2741 42.9928 25.2444 43.0521 24.9481ZM42.015 27.2296L41.9854 27.3778C41.9854 27.3778 42.341 27.4074 42.5484 27.3185C42.578 27.3185 42.578 27.3185 42.578 27.2889C42.578 27.2889 42.6076 27.2889 42.6076 27.2593C42.7854 27.1111 42.7558 26.8444 42.8447 26.6667C42.8743 26.637 42.8743 26.5481 42.9039 26.4593C42.9632 26.4889 43.0817 26.5481 43.2298 26.5778C43.2298 26.6074 43.2002 26.637 43.2002 26.6963C43.2002 26.7852 43.1706 26.8444 43.1706 26.9037C43.0817 27.2593 42.9336 27.7926 42.6669 28.237C42.5187 28.4741 42.2521 28.7407 41.9558 29.0667C41.8965 29.0074 41.8373 28.8296 41.8076 28.5926C41.8076 28.237 42.015 27.2296 42.015 27.2296Z" fill="#638CC2"/>
<path d="M22.4936 21.4535C23.1127 20.6764 23.5255 20.2878 23.4108 19.6478C22.6541 15.7851 20.9802 11.2596 20.8426 10.7796C20.7509 10.4596 20.4758 10.4139 20.407 10.3911C20.3611 10.3911 19.7649 10.1396 19.4898 10.0254C19.2375 9.91107 16.2337 8.76826 16.0273 8.69969C15.7522 8.60826 15.7063 8.42541 15.477 8.35685C15.4312 8.33399 15.3624 8.33399 15.3165 8.33399C15.3165 8.15114 15.3165 8.014 15.3394 7.96829C15.4999 7.69401 15.7292 7.21403 15.9127 6.80262C15.7292 7.21403 16.3025 6.82548 16.6923 6.27693C17.1051 5.70552 17.2197 4.63128 17.0821 3.37418C16.9675 2.1628 15.4312 0.174305 14.0783 0.0143107C12.4273 -0.191396 10.4095 1.86567 10.1343 3.28276C9.85917 4.69984 9.92796 5.4541 10.1114 5.91123C10.2948 6.41406 10.7305 7.03118 10.9369 7.09975C11.1203 7.60259 11.7165 8.12828 11.8082 8.47113C11.8082 8.49398 11.8082 8.5397 11.8311 8.58541C11.7394 8.58541 11.4643 8.67683 11.2808 8.9054C11.2808 8.9054 10.1573 9.24824 9.53815 9.43109C8.89611 9.59108 7.61202 10.0482 7.5203 10.0482C7.42858 10.0482 7.17635 10.1396 7.01584 10.3682C6.62603 10.9853 5.15851 15.2594 4.88335 16.5622C4.74577 17.2479 3.8515 19.3507 3.8515 19.9907C3.8515 20.4935 5.11265 22.1849 6.35087 23.3277C6.51138 23.4877 6.74068 23.6248 6.87826 23.8077C7.01584 24.0134 6.90119 24.2877 6.87826 24.4934C6.76361 25.1791 6.80947 25.8647 6.71775 26.5276C6.6031 27.3961 6.3738 28.2418 6.19036 29.1103C6.12157 29.4532 5.93813 29.9789 6.00692 30.3446C6.00692 30.3674 6.02985 30.4131 6.07571 30.4817C6.07571 30.5046 6.09864 30.5046 6.09864 30.5503C6.19036 30.6874 6.46552 31.0988 6.74068 31.3502C6.76361 31.3731 6.78654 31.396 6.78654 31.396C6.78654 31.396 6.80947 31.396 6.80947 31.4188C6.80947 31.4188 6.80947 31.4188 6.8324 31.4188C6.85533 31.4417 6.90119 31.4645 6.94705 31.4874C6.96998 31.4874 6.96998 31.5102 6.99291 31.5102C7.10756 33.7044 7.61202 37.7043 7.65788 39.0071C7.72667 40.607 7.79546 45.0183 7.81839 46.6868C7.84132 48.5839 8.07062 51.258 8.13941 53.1551C8.13941 53.4065 8.25406 53.7951 8.18527 54.0237C8.13941 54.1836 7.95597 54.2294 8.02476 54.3894C8.07062 54.5265 8.23113 54.5951 8.2082 54.7322C8.2082 54.8008 8.13941 54.8465 8.11648 54.8922C8.07062 54.9379 8.04769 55.0065 8.07062 55.075C8.09355 55.0979 8.13941 55.1208 8.13941 55.1436C8.04769 55.5093 8.07062 55.7836 8.09355 56.0579C8.18527 56.1264 8.41458 56.1721 8.71267 56.2179C8.52923 56.7207 7.88718 57.315 7.08463 57.9321C6.69482 58.2521 5.9152 59.2577 6.78654 59.6692C7.56616 59.8749 9.07955 59.7834 9.69866 59.4634C10.2948 59.1435 10.1802 58.7092 10.3407 58.6406C10.5012 58.5721 11.6248 58.4121 11.6248 58.1835C11.6477 57.9321 11.7624 57.6121 11.6706 57.4521C11.5789 57.315 11.7165 57.1321 11.7394 56.8807C11.7624 56.7435 11.7165 56.5378 11.6248 56.3093C11.6248 56.3093 11.6477 56.3093 11.6477 56.2864C11.8311 55.7379 11.7394 55.1436 11.9458 54.5951C12.0375 54.3436 11.9458 54.1837 11.9229 53.9551C11.8999 53.7494 11.9687 53.4751 11.9917 53.2694C12.0375 52.7666 12.0834 52.2637 12.1292 51.7609C12.198 50.9609 12.2668 50.1381 12.2668 49.3153C12.2439 47.6468 11.877 43.944 11.9917 43.0298C12.0834 42.0927 11.9917 41.1327 12.1751 39.9442C12.221 39.6242 12.3127 39.0299 12.4273 38.3214C12.519 38.1614 12.542 37.6586 12.542 37.5214C12.5878 37.1786 12.6337 36.8129 12.7025 36.4701C12.7025 36.4472 12.7025 36.4015 12.7025 36.3786C12.9318 34.8701 13.1611 33.4073 13.2987 32.973C13.2987 32.9502 13.2987 32.9502 13.3216 32.9273C13.3445 32.9045 13.3445 32.8816 13.3675 32.8588C13.6197 32.6759 14.7891 37.6814 15.0413 39.4414C15.2936 41.247 15.8898 44.4926 16.0732 46.7325C16.2566 48.9724 16.9904 52.6294 17.2197 54.0922C17.2426 54.2294 17.2885 54.3665 17.2885 54.5036C17.2885 54.6179 17.2656 54.7322 17.2656 54.8236C17.2885 54.9151 17.3573 54.9836 17.3802 55.075C17.4261 55.4636 17.5866 55.9207 17.7242 56.3093C17.793 56.3321 17.8388 56.355 17.9076 56.355C17.8388 56.5836 17.8617 56.8121 17.8617 56.9493C17.8617 57.1092 18.0223 57.0407 17.9305 57.1092C17.8159 57.1778 17.793 57.9092 17.8847 58.0235C17.9535 58.1378 18.3203 58.3435 18.5726 58.4578C18.8248 58.5721 18.8936 58.7092 18.8936 58.9378C18.8936 59.1663 18.9624 59.212 19.5356 59.5777C20.1089 59.9434 21.5535 60.0349 21.7828 59.9891C22.0121 59.9663 22.4019 60.0349 22.5395 59.4634C22.7229 58.7092 21.4159 57.475 21.049 57.0407C20.8197 56.7893 20.728 56.4007 20.7051 56.1264C20.8885 56.0579 21.0032 56.035 21.049 56.035C21.1866 56.035 21.0949 55.6236 21.0949 55.5779C21.0949 55.4865 21.1178 55.395 21.0949 55.3036C21.0719 55.1893 20.9802 55.0979 20.9573 54.9608C20.9573 54.8922 20.9802 54.8236 20.9802 54.7551C21.0032 54.6408 21.0261 54.5494 21.049 54.4351C21.0719 54.3436 21.0949 54.2751 21.0719 54.1837C21.0719 54.0694 20.9802 54.0237 20.9344 53.9322C20.9114 53.818 20.9344 53.658 20.9344 53.5665C20.9344 53.2923 20.9344 53.018 20.9573 52.7666C21.049 50.3895 20.2006 42.1384 19.9942 40.8127C19.7879 39.4871 19.6044 36.4015 19.5586 33.1787C19.5586 32.6073 19.5127 31.9674 19.4439 31.2817C19.6732 31.1445 19.8796 30.9617 19.9254 30.916C19.9484 30.916 19.9025 30.916 19.8567 30.9388C19.9484 30.8931 20.0172 30.8474 20.0172 30.8246C20.0172 30.7331 19.9484 29.2932 19.8108 27.8075C19.6732 26.3219 19.4439 24.2419 19.5127 24.1048C19.6503 24.082 21.8516 22.2306 22.4936 21.4535ZM15.3394 8.5397C15.3624 8.63112 15.3853 8.79111 15.3624 8.95111C15.3624 8.83683 15.3394 8.67683 15.3394 8.5397ZM15.6146 8.51684C15.6146 8.49398 15.6146 8.51684 15.6146 8.51684V8.51684ZM11.8082 8.7454C11.7624 8.7454 11.7165 8.81397 11.6936 8.92825C11.7165 8.76826 11.7624 8.7454 11.8082 8.7454ZM7.42858 18.8936C7.61202 18.3222 7.91011 17.7508 7.84132 17.1565C7.91011 17.1794 7.93304 17.2708 7.93304 17.3394C7.95597 18.5736 8.00183 19.3507 7.93304 20.425C7.93304 20.5164 7.81839 20.5392 7.77253 20.4707C7.65788 20.3107 7.58909 20.1964 7.49737 19.9678C7.42858 19.785 7.15342 19.785 7.13049 19.5793C7.15342 19.3964 7.38272 19.0536 7.42858 18.8936ZM19.6044 31.2131C19.5586 31.236 19.5356 31.2588 19.4898 31.2817C19.5356 31.236 19.5586 31.2131 19.6044 31.2131ZM19.421 20.5392C19.3522 20.6078 19.2375 20.5392 19.2375 20.4478C19.3293 19.305 19.5127 18.9164 19.5815 17.6365C19.5815 17.5679 19.6044 17.4993 19.6274 17.4308C19.6503 17.3851 19.7191 17.4079 19.7191 17.4536C19.6274 18.3222 19.8337 18.1165 19.9484 18.9393C19.9942 19.2136 20.0401 19.465 19.9713 19.7393C19.9254 19.9221 19.742 19.9907 19.6732 20.1507C19.6044 20.2421 19.5356 20.425 19.421 20.5392Z" fill="#638CC2"/>
</g>
<defs>
<clipPath id="clip0">
<path d="M0.851501 0H59.8515V60H0.851501V0Z" fill="white"/>
</clipPath>
</defs>
</svg>
