<svg width="60" height="60" viewBox="0 0 60 60" fill="none" xmlns="http://www.w3.org/2000/svg">
<g clip-path="url(#clip0)">
<path d="M46.0086 20.0455C46.0554 19.834 46.0788 19.599 46.0554 19.4345C46.032 19.2699 45.4231 12.7365 45.0484 11.0913C44.6736 9.44621 44.416 9.86925 44.416 9.86925C44.416 9.86925 40.9031 8.78817 40.6221 8.52965C40.341 8.27113 39.9195 7.8716 39.8726 7.9656C39.8492 7.8481 39.8258 7.77759 39.8024 7.77759C39.8024 7.77759 39.8024 7.77759 39.7789 7.82459C39.7555 7.54257 39.8024 7.33106 39.8024 7.33106C39.9429 7.11954 40.2005 6.48499 40.2005 6.48499C40.5284 6.41449 40.5284 6.01496 40.8797 5.59193C41.231 5.14539 41.1607 4.91038 41.1607 4.91038C41.7228 4.36984 41.6759 3.52377 41.6759 3.52377C41.3949 0.868075 39.0998 0.139521 37.6009 -0.00148983C36.1021 -0.1425 35.5868 1.43212 35.3761 2.06666C35.1419 2.70121 35.2355 4.29933 35.2355 4.29933C34.9077 4.36984 35.2824 5.14539 35.3761 5.33341C35.4463 5.52142 35.4463 5.49792 35.4697 5.73294C35.4932 5.96796 35.821 6.13247 35.821 6.13247C35.7976 6.29698 35.9381 6.76701 35.9615 6.90803C35.985 7.04904 35.9615 7.73059 35.9615 7.73059C35.9147 7.70709 35.8679 7.82459 35.821 7.9656H35.7976C35.7976 7.9656 35.7508 7.98911 35.5868 8.22412C35.4229 8.45914 35.2121 8.69416 35.0716 8.76466C34.9311 8.83517 34.1114 9.14069 33.6664 9.3052C33.2449 9.46972 31.1839 10.1278 31.1137 10.1278C31.0434 10.1043 30.9966 10.1043 30.9263 10.1513C30.8561 10.1983 30.6687 10.2688 30.3643 11.2794C30.0598 12.2664 29.2401 19.8575 29.1464 20.0455C29.0762 20.2335 28.9357 20.5155 28.9591 20.7036C28.9825 20.8916 28.8654 21.0326 28.9591 21.1971C29.0293 21.3616 28.9591 21.5731 29.0762 21.9256C29.1933 22.2782 29.7788 28.0831 30.2003 29.5872C30.2003 29.5872 30.3174 29.5637 30.4814 29.5167C30.5282 29.7517 30.6687 30.2688 30.739 30.2688C30.7858 30.2688 30.9263 30.2453 31.1371 30.1748C31.1605 30.3393 31.2542 30.7153 31.3947 30.9738C31.5587 31.2793 31.7694 31.6789 32.027 31.9139C31.9334 32.995 31.8631 33.9585 31.8163 34.3346C31.7226 35.4627 31.746 42.4897 31.8163 42.9832C31.8865 43.4767 32.5189 48.4591 32.5891 48.9762C32.6594 49.4932 33.5727 54.5461 33.7133 54.7106C33.8538 54.8751 33.8772 54.9456 33.7133 55.1336C33.5493 55.3216 33.4088 55.7682 33.5493 56.2617C33.6664 56.7552 33.4791 57.1078 33.5962 57.0843C33.6664 57.0608 33.7601 56.9668 33.9709 56.8963C33.9475 56.9668 33.924 57.0608 33.8304 57.2018C33.6664 57.4838 33.0107 58.0008 32.5657 58.3534C32.1207 58.7059 31.4181 58.8939 31.1839 59.0584C30.9497 59.2229 31.0434 59.5285 30.9966 59.5755C30.9497 59.6225 30.8092 59.74 31.1371 59.7635C31.465 59.8105 33.198 59.928 34.0411 59.9045C34.8842 59.881 35.2824 59.5285 35.4932 59.3404C35.7039 59.1524 36.0084 59.3639 36.3363 59.4109C36.6641 59.4579 37.9054 59.0349 37.9054 59.0349C37.9054 59.0349 37.8585 58.4944 37.8585 58.3769C37.8585 58.2594 37.7883 58.2594 37.7883 58.2594C37.8351 57.9773 37.7883 57.5073 37.718 57.2488C37.6478 56.9903 37.273 56.5437 37.273 56.5437C37.2262 56.5437 37.1794 56.5672 37.1559 56.5672C37.1794 56.5437 37.2028 56.5202 37.2262 56.5202C37.273 56.4732 37.2965 56.4262 37.2965 56.3792C37.3199 56.0972 37.3433 55.2511 37.2965 54.9456C37.2262 54.5931 36.8515 53.9115 36.8983 53.606C36.8983 53.3475 36.6641 47.237 36.547 46.0619C36.4299 44.9104 35.9615 43.9703 36.0318 43.6883C36.1021 43.4297 36.3363 42.0901 36.5002 41.5731C36.6641 41.0561 36.5939 40.4685 36.7344 39.7165C36.8749 38.9644 37.9991 34.7341 38.0693 34.6401C38.1396 34.5461 38.6314 36.9433 38.7719 38.9174C38.9124 40.8916 38.8656 45.4274 38.889 46.5085C38.9124 47.5661 38.7953 52.0079 38.889 52.5249C38.889 52.6894 38.3972 54.2876 38.2332 55.1336C38.0693 56.0032 37.9991 56.1677 38.0459 56.4027C38.0693 56.6377 38.1396 57.0843 38.2098 57.0608C38.2332 57.0608 38.3503 56.9668 38.5377 56.9198C38.4674 57.2958 38.3738 58.1653 38.6314 58.4709C38.6314 58.4709 38.5845 58.4709 38.5377 58.5414C38.5143 58.6119 38.4909 59.2229 38.4909 59.2699C38.4909 59.3169 38.5377 59.3639 38.5611 59.4579C38.608 59.552 38.4206 59.787 38.608 59.9045C38.7953 59.9985 41.3012 60.0455 41.7462 59.9515C42.1912 59.8575 42.238 59.7635 42.238 59.7165C42.238 59.6695 42.2146 59.4579 42.0975 59.4109C42.0975 59.4109 42.1443 59.1054 41.8633 58.7529C41.6057 58.4004 41.1841 57.7188 41.1841 57.2958C41.1841 57.2488 41.1841 57.2018 41.1841 57.1548C41.2778 57.0373 41.3949 56.8727 41.5823 56.6142C41.9336 56.0972 41.9101 55.6507 42.0741 55.2981C42.238 54.9456 42.3785 54.9221 42.3785 54.4286C42.3785 53.935 42.519 53.747 42.5425 53.3945C42.5659 53.042 42.8469 50.2688 42.8938 49.1642C42.9172 48.0596 42.9406 45.0044 42.9874 44.1113C43.0109 43.2417 43.7369 36.4967 43.854 35.2276C43.9711 33.9585 44.135 33.1595 44.2287 32.0784C44.2287 31.9609 44.2287 31.8199 44.2287 31.6789C44.6268 30.9973 44.6971 30.3393 44.6971 30.1513C44.7439 30.1513 44.7907 30.1748 44.8376 30.1748C44.9547 30.1983 45.0484 30.1983 45.0718 30.1748C45.1186 30.1043 45.1889 29.5872 45.2123 29.3287H45.2357C45.7275 29.2582 45.7978 29.1407 45.7978 29.1407C45.7978 29.1407 45.9617 21.5966 46.032 21.1501C46.1022 20.7036 46.1959 20.6095 46.1725 20.445C46.1491 20.2805 45.9383 20.2335 46.0086 20.0455ZM32.3783 21.5731C32.4018 21.4556 32.3549 21.4086 32.3783 21.2911C32.4018 21.1736 32.4954 21.0796 32.5657 20.9621C32.636 20.8211 32.5423 20.5625 32.5657 20.3275C32.5891 20.0925 32.6828 19.0114 32.6828 19.0584C32.6594 19.2699 32.9404 20.304 32.8936 20.5155C32.8467 20.7506 32.8233 20.7976 32.7765 21.2676C32.7531 21.7376 32.7531 22.2782 32.6828 22.5837C32.6125 22.8892 32.472 23.9703 32.472 23.9703C32.4486 23.6648 32.2847 22.0197 32.3549 21.9021C32.472 21.7611 32.3783 21.6906 32.3783 21.5731ZM35.821 7.98911C35.821 8.01261 35.821 8.01261 35.7976 8.03611C35.7976 8.01261 35.7976 8.01261 35.821 7.98911Z" fill="#82A3CE"/>
<path d="M31.8896 32.0017C31.3426 29.0178 30.7707 26.9291 30.0247 24.7907C30.1242 24.6167 30.1242 24.4923 30.0247 24.368C29.8755 24.1691 29.3534 22.702 29.2788 22.5528C29.2042 22.4036 29.1047 22.3042 29.1793 22.2545C29.229 22.2296 29.5523 22.2296 29.7512 22.2545C29.7761 22.2545 29.7761 22.2793 29.8009 22.2793C29.9004 22.2793 29.9253 22.2793 29.9501 22.2545C30.1491 22.2296 30.3231 22.1799 30.4723 22.1053C30.5469 22.155 30.721 22.155 30.7458 22.0307C30.7707 21.9809 30.7707 21.9312 30.7707 21.8815C30.9945 21.6577 31.1188 21.409 31.2183 21.3096C31.2431 21.2847 31.2431 21.2598 31.268 21.1852C31.3675 21.2101 31.4172 21.1604 31.4172 20.9615C31.4172 20.6879 31.3923 20.2155 31.3426 20.116C31.3426 20.0912 31.3177 20.0663 31.2929 20.0166C31.2929 19.8177 31.2929 19.6187 31.268 19.4198C31.3177 19.4695 31.3426 19.5193 31.4172 19.5193C31.5912 19.5441 31.6907 19.5193 31.6658 19.4447C31.6658 19.3701 31.5166 18.9971 31.4918 18.8976C31.4918 18.8479 31.3675 18.7484 31.2431 18.649C31.2183 18.1019 31.1934 17.7041 31.1685 17.6792C31.1437 17.5798 31.2431 17.3063 31.1934 17.2317C31.1437 17.1571 31.1934 17.1073 31.1934 17.0327C31.1934 16.9581 31.1685 16.9333 31.0691 16.8338C30.9696 16.7592 30.9447 16.6598 30.9447 16.6598C30.8701 16.063 30.6961 14.024 30.6712 13.7008C30.6464 13.3527 30.3231 12.1343 30.348 12.0348C30.348 11.9602 30.3231 12.0348 30.2734 11.9602C30.2236 11.8856 30.2734 11.8359 30.2734 11.7613C30.2734 11.6618 30.2236 11.637 30.1739 11.637C30.1242 11.637 30.1739 11.4878 30.1739 11.438C30.1739 11.3883 30.1242 11.4132 30.0745 11.4132C30.0247 11.4132 30.0496 11.3634 30.0247 11.2391C29.9999 11.1148 29.8507 10.6424 29.8009 10.5926C29.7512 10.518 29.602 10.4932 29.5026 10.4932C29.4031 10.4932 29.4031 10.4932 29.0798 10.2942C28.7566 10.0953 28.5079 9.94613 28.3339 9.92126C28.1598 9.8964 28.0604 9.69747 27.7868 9.54828C27.5133 9.39909 26.9663 9.15044 26.8171 9.07584C26.7425 9.02611 26.643 8.95151 26.5436 8.87692C26.7674 8.5288 26.8917 8.10609 26.7425 7.68338C26.5684 7.18608 26.9166 6.91256 26.9912 6.44012C27.0409 6.14173 26.9414 5.79362 26.8171 5.54496C26.842 5.5201 26.8917 5.4455 26.9166 5.34604C26.9663 5.12225 26.9912 5.02279 27.0658 4.9482C27.1155 4.8736 27.1652 4.60008 27.1901 4.47576C27.2149 4.35143 27.4139 3.90385 27.2398 3.77953C27.1901 3.7298 27.1404 3.7298 27.1155 3.70493C27.1901 3.70493 27.2398 3.77953 27.2398 3.77953C27.4636 2.88438 26.9912 1.66597 26.6182 1.06921C26.4441 0.447574 25.8971 0.223786 25.5987 0.198921C25.4744 0.174056 25.35 0.198921 25.2755 0.223786C25.0765 0.248652 24.9771 0.323248 24.8527 0.223786C24.8279 0.223786 24.803 0.198921 24.7781 0.198921C24.5792 0.0994598 24.3306 -1.51619e-06 23.8581 0.124325C23.5597 0.198921 23.336 0.348113 23.1619 0.47244C23.0873 0.497305 23.0127 0.547035 22.963 0.571901C22.4905 0.845419 22.0678 1.41732 21.9435 1.64111C21.7943 1.8649 21.6948 1.96436 21.5457 2.61086C21.3965 3.25736 21.6948 3.95358 21.6948 3.95358L21.7197 3.92872C21.6451 4.02818 21.4213 4.40116 21.4213 4.47576C21.4213 4.55035 21.4213 4.67468 21.4462 4.72441C21.4711 4.77414 21.5208 4.72441 21.5954 4.84874C21.67 4.97306 21.6948 5.49523 22.1424 5.71902C22.1424 5.71902 22.3413 6.86283 22.8387 7.385C22.8387 7.385 22.8635 7.45959 22.8387 7.53419C22.8387 7.55906 22.8387 7.55906 22.8138 7.58392C22.6646 7.58392 22.6397 7.85744 22.59 7.90717C22.5403 7.98177 22.4905 7.98177 22.3911 8.00663C22.2916 8.0315 22.3662 8.18069 21.6203 8.23042C20.8743 8.30501 20.551 8.32988 20.4019 8.40448C20.2527 8.47907 20.1035 8.50394 19.83 8.45421C19.5564 8.40448 18.8602 8.57853 18.8353 8.57853C18.7856 8.6034 18.7359 8.45421 18.6613 8.47907C18.5618 8.50394 18.0894 8.95151 17.9402 9.37422C17.7661 9.79693 17.3434 11.5624 17.3186 12.3581C17.2937 12.8554 17.1196 14.5959 16.9953 15.8143C16.9704 15.9884 16.871 16.1873 16.7964 16.3614C16.7715 16.436 16.7467 16.4857 16.7218 16.5603C16.6969 16.6349 16.6969 16.7095 16.7467 16.7592C16.7467 16.7841 16.8212 16.8338 16.8461 16.9084C16.8461 16.9333 16.8461 16.9581 16.8461 16.983C16.8212 17.0327 16.7964 17.0825 16.7964 17.1322C16.7715 17.2317 16.8461 17.3311 16.8958 17.4057C16.9456 17.4803 16.9953 17.5549 17.0202 17.6046C17.0948 17.8284 16.9953 18.2014 17.0948 18.7236C17.1942 19.2955 18.9099 19.8177 18.9099 19.8177C18.9099 19.8177 18.7359 20.489 18.6613 21.0858C18.5618 21.6826 17.8407 23.995 17.7413 24.3431C17.6418 24.6913 17.5672 24.9399 17.5672 24.9399C17.5672 24.9399 17.4677 24.9648 18.0148 25.3378C17.7661 26.0091 17.5175 26.7302 17.2191 27.4762C16.4483 29.4157 16.1002 30.9325 15.8515 34.1401C16.9456 34.5877 17.5423 34.8114 17.8407 34.886L18.0894 35.085C18.0894 35.259 18.0894 35.3833 18.0645 35.4579C18.6861 35.5325 19.457 35.5823 20.2278 35.632C21.0981 37.845 21.9186 39.8591 22.1176 40.7791C22.4408 42.1467 22.3165 44.9316 22.9132 47.2441C23.2862 48.6366 23.6592 49.8052 23.9576 50.6755C23.7835 51.0982 23.3608 51.9188 23.3111 52.1923C23.2614 52.5404 23.3111 53.2118 23.2862 53.5848C23.2365 53.9577 23.0624 54.4302 23.1122 54.8529C23.137 55.1015 23.0127 55.6486 22.963 56.1459C22.9381 56.0962 22.9132 56.1459 22.8884 56.2453C22.8884 56.2453 22.8387 56.494 22.7889 56.8918C22.7392 57.2897 22.6895 57.5135 22.9878 57.8616C23.2862 58.2097 23.9327 58.533 24.1565 58.6324C24.2808 58.6822 24.3554 58.707 24.43 58.707C24.4549 59.0551 24.7036 59.3535 25.0517 59.826C25.2009 60.0249 25.4992 60.0746 26.1457 59.826C26.9663 59.4778 27.2149 59.5773 27.3144 59.1546C27.389 58.7319 27.1901 57.1654 27.1652 56.7178C27.1404 56.2702 27.1901 56.0464 27.389 55.3005C27.5631 54.5545 27.2398 53.9826 27.0409 53.7091C26.842 53.4356 26.5933 53.2118 26.5684 53.2118H26.5436C26.4441 53.0377 26.3695 52.8637 26.3447 52.7393C26.2949 52.441 26.1706 50.5015 26.1457 49.8301C26.1457 49.6809 26.1457 49.4323 26.1209 49.109C26.1209 49.0841 26.1209 49.0841 26.1457 49.0593C26.4441 48.2387 26.7674 47.3436 26.9663 46.4733C27.3641 44.7327 27.3144 42.0721 27.3393 40.6797C27.3641 39.7845 27.6625 38.0937 28.2344 35.9552C28.6323 35.9304 28.9804 35.8807 29.1544 35.8061C29.1296 35.6569 29.1047 35.5077 29.1047 35.3336C29.1047 35.3336 29.229 35.2342 29.4777 35.1596C29.9999 35.085 30.9199 34.9358 30.9945 34.9109C31.3923 34.8363 32.3372 34.712 32.3869 34.6623C32.4367 34.6125 32.2626 33.966 32.2377 33.5433C32.2129 33.419 31.9145 32.2006 31.8896 32.0017ZM27.9858 17.0576C28.0106 17.0576 28.0355 17.0825 28.0604 17.1322C28.1101 17.2565 28.1847 17.4057 28.1847 17.53C28.1847 17.7041 28.1101 17.903 28.1847 18.0522C28.2344 18.1268 28.309 18.1765 28.3339 18.276C28.3588 18.3257 28.3588 18.4003 28.3588 18.4501C28.3588 18.5247 28.3588 18.5993 28.3588 18.6987C28.2344 18.7236 28.0852 18.7236 27.9609 18.7484C27.9609 18.6241 27.936 18.4998 27.8366 18.4003C27.8117 18.3755 27.762 18.3257 27.7371 18.3009C27.7123 18.2511 27.7123 18.2014 27.7371 18.1765C27.762 18.1517 27.7868 18.1517 27.8117 18.1268C27.9112 18.0771 27.9112 17.9528 27.9112 17.8533C27.9112 17.729 27.936 17.6046 27.9858 17.5052C28.0106 17.4306 28.0355 17.3809 28.0355 17.3063C28.0106 17.2068 27.9858 17.1322 27.9858 17.0576ZM24.8527 57.4886C24.8527 57.4637 24.8527 57.414 24.8776 57.3892C24.8527 57.414 24.8527 57.4637 24.8527 57.4886ZM26.5436 0.795689C26.5684 0.845419 26.5684 0.870285 26.5933 0.89515C26.5684 0.870285 26.5436 0.845419 26.5436 0.795689C26.2949 0.497305 25.9965 0.323248 25.7479 0.223786C26.1955 0.273517 26.4939 0.696227 26.5436 0.795689ZM23.3608 0.323248C23.9576 -0.0745975 24.4798 0.0994598 24.4798 0.0994598C24.1316 0.0745944 23.7089 0.174056 23.3608 0.323248ZM21.844 3.95358C21.844 4.00331 21.9186 4.20224 21.8689 4.2271C21.844 4.25197 21.7943 4.32656 21.7943 4.32656C21.7943 4.32656 21.6451 4.32656 21.6203 4.32656C21.6203 4.3017 21.844 3.95358 21.844 3.95358ZM21.7943 4.92333C21.7694 4.72441 21.7446 4.50062 21.8938 4.52549C21.8938 4.52549 21.9186 4.64981 21.9186 4.84874C21.9186 5.02279 22.0181 5.24658 21.9932 5.32118C21.9932 5.37091 21.8192 5.19685 21.7943 4.92333ZM29.055 35.2093C29.055 35.2093 29.0798 35.2342 29.055 35.2093L29.0798 35.3833C29.0798 35.3336 29.0798 35.2839 29.055 35.2093Z" fill="#638CC2"/>
<path d="M20.785 21.4535C21.4041 20.6764 21.8168 20.2878 21.7022 19.6478C20.9455 15.7851 19.2716 11.2596 19.134 10.7796C19.0423 10.4596 18.7671 10.4139 18.6984 10.3911C18.6525 10.3911 18.0563 10.1396 17.7812 10.0254C17.5289 9.91107 14.5251 8.76826 14.3187 8.69969C14.0436 8.60826 13.9977 8.42541 13.7684 8.35685C13.7225 8.33399 13.6538 8.33399 13.6079 8.33399C13.6079 8.15114 13.6079 8.014 13.6308 7.96829C13.7913 7.69401 14.0206 7.21403 14.2041 6.80262C14.0206 7.21403 14.5939 6.82548 14.9837 6.27693C15.3964 5.70552 15.5111 4.63128 15.3735 3.37418C15.2589 2.1628 13.7225 0.174305 12.3697 0.0143107C10.7187 -0.191396 8.70087 1.86567 8.42571 3.28276C8.15055 4.69984 8.21934 5.4541 8.40278 5.91123C8.58622 6.41406 9.02189 7.03118 9.22826 7.09975C9.4117 7.60259 10.0079 8.12828 10.0996 8.47113C10.0996 8.49398 10.0996 8.5397 10.1225 8.58541C10.0308 8.58541 9.75565 8.67683 9.57221 8.9054C9.57221 8.9054 8.44864 9.24824 7.82953 9.43109C7.18749 9.59108 5.90341 10.0482 5.81169 10.0482C5.71997 10.0482 5.46774 10.1396 5.30723 10.3682C4.91742 10.9853 3.44989 15.2594 3.17473 16.5622C3.03715 17.2479 2.14288 19.3507 2.14288 19.9907C2.14288 20.4935 3.40403 22.1849 4.64226 23.3277C4.80277 23.4877 5.03207 23.6248 5.16965 23.8077C5.30723 24.0134 5.19258 24.2877 5.16965 24.4934C5.055 25.1791 5.10086 25.8647 5.00914 26.5276C4.89449 27.3961 4.66519 28.2418 4.48175 29.1103C4.41296 29.4532 4.22952 29.9789 4.29831 30.3446C4.29831 30.3674 4.32124 30.4131 4.3671 30.4817C4.3671 30.5046 4.39003 30.5046 4.39003 30.5503C4.48175 30.6874 4.75691 31.0988 5.03207 31.3502C5.055 31.3731 5.07793 31.396 5.07793 31.396C5.07793 31.396 5.10086 31.396 5.10086 31.4188C5.10086 31.4188 5.10086 31.4188 5.12379 31.4188C5.14672 31.4417 5.19258 31.4645 5.23844 31.4874C5.26137 31.4874 5.26137 31.5102 5.2843 31.5102C5.39895 33.7044 5.90341 37.7043 5.94927 39.0071C6.01806 40.607 6.08685 45.0183 6.10978 46.6868C6.13271 48.5839 6.36201 51.258 6.4308 53.1551C6.4308 53.4065 6.54545 53.7951 6.47666 54.0237C6.4308 54.1836 6.24736 54.2294 6.31615 54.3894C6.36201 54.5265 6.52252 54.5951 6.49959 54.7322C6.49959 54.8008 6.4308 54.8465 6.40787 54.8922C6.36201 54.9379 6.33908 55.0065 6.36201 55.075C6.38494 55.0979 6.4308 55.1208 6.4308 55.1436C6.33908 55.5093 6.36201 55.7836 6.38494 56.0579C6.47666 56.1264 6.70596 56.1721 7.00405 56.2179C6.82061 56.7207 6.17857 57.315 5.37602 57.9321C4.98621 58.2521 4.20658 59.2577 5.07793 59.6692C5.85755 59.8749 7.37093 59.7834 7.99004 59.4634C8.58622 59.1435 8.47157 58.7092 8.63208 58.6406C8.79259 58.5721 9.91616 58.4121 9.91616 58.1835C9.93909 57.9321 10.0537 57.6121 9.96202 57.4521C9.8703 57.315 10.0079 57.1321 10.0308 56.8807C10.0537 56.7435 10.0079 56.5378 9.91616 56.3093C9.91616 56.3093 9.93909 56.3093 9.93909 56.2864C10.1225 55.7379 10.0308 55.1436 10.2372 54.5951C10.3289 54.3436 10.2372 54.1837 10.2142 53.9551C10.1913 53.7494 10.2601 53.4751 10.283 53.2694C10.3289 52.7666 10.3748 52.2637 10.4206 51.7609C10.4894 50.9609 10.5582 50.1381 10.5582 49.3153C10.5353 47.6468 10.1684 43.944 10.283 43.0298C10.3748 42.0927 10.283 41.1327 10.4665 39.9442C10.5123 39.6242 10.6041 39.0299 10.7187 38.3214C10.8104 38.1614 10.8334 37.6586 10.8334 37.5214C10.8792 37.1786 10.9251 36.8129 10.9939 36.4701C10.9939 36.4472 10.9939 36.4015 10.9939 36.3786C11.2232 34.8701 11.4525 33.4073 11.59 32.973C11.59 32.9502 11.59 32.9502 11.613 32.9273C11.6359 32.9045 11.6359 32.8816 11.6588 32.8588C11.9111 32.6759 13.0805 37.6814 13.3327 39.4414C13.585 41.247 14.1811 44.4926 14.3646 46.7325C14.548 48.9724 15.2818 52.6294 15.5111 54.0922C15.534 54.2294 15.5799 54.3665 15.5799 54.5036C15.5799 54.6179 15.5569 54.7322 15.5569 54.8236C15.5799 54.9151 15.6487 54.9836 15.6716 55.075C15.7175 55.4636 15.878 55.9207 16.0155 56.3093C16.0843 56.3321 16.1302 56.355 16.199 56.355C16.1302 56.5836 16.1531 56.8121 16.1531 56.9493C16.1531 57.1092 16.3136 57.0407 16.2219 57.1092C16.1073 57.1778 16.0843 57.9092 16.1761 58.0235C16.2448 58.1378 16.6117 58.3435 16.864 58.4578C17.1162 58.5721 17.185 58.7092 17.185 58.9378C17.185 59.1663 17.2538 59.212 17.827 59.5777C18.4003 59.9434 19.8449 60.0349 20.0742 59.9891C20.3035 59.9663 20.6933 60.0349 20.8308 59.4634C21.0143 58.7092 19.7073 57.475 19.3404 57.0407C19.1111 56.7893 19.0194 56.4007 18.9964 56.1264C19.1799 56.0579 19.2945 56.035 19.3404 56.035C19.478 56.035 19.3863 55.6236 19.3863 55.5779C19.3863 55.4865 19.4092 55.395 19.3863 55.3036C19.3633 55.1893 19.2716 55.0979 19.2487 54.9608C19.2487 54.8922 19.2716 54.8236 19.2716 54.7551C19.2945 54.6408 19.3175 54.5494 19.3404 54.4351C19.3633 54.3436 19.3863 54.2751 19.3633 54.1837C19.3633 54.0694 19.2716 54.0237 19.2257 53.9322C19.2028 53.818 19.2257 53.658 19.2257 53.5665C19.2257 53.2923 19.2257 53.018 19.2487 52.7666C19.3404 50.3895 18.492 42.1384 18.2856 40.8127C18.0792 39.4871 17.8958 36.4015 17.8499 33.1787C17.8499 32.6073 17.8041 31.9674 17.7353 31.2817C17.9646 31.1445 18.171 30.9617 18.2168 30.916C18.2398 30.916 18.1939 30.916 18.148 30.9388C18.2398 30.8931 18.3085 30.8474 18.3085 30.8246C18.3085 30.7331 18.2398 29.2932 18.1022 27.8075C17.9646 26.3219 17.7353 24.2419 17.8041 24.1048C17.9417 24.082 20.1429 22.2306 20.785 21.4535ZM13.6308 8.5397C13.6538 8.63112 13.6767 8.79111 13.6538 8.95111C13.6538 8.83683 13.6308 8.67683 13.6308 8.5397ZM13.906 8.51684C13.906 8.49398 13.906 8.51684 13.906 8.51684V8.51684ZM10.0996 8.7454C10.0537 8.7454 10.0079 8.81397 9.98495 8.92825C10.0079 8.76826 10.0537 8.7454 10.0996 8.7454ZM5.71997 18.8936C5.90341 18.3222 6.2015 17.7508 6.13271 17.1565C6.2015 17.1794 6.22443 17.2708 6.22443 17.3394C6.24736 18.5736 6.29322 19.3507 6.22443 20.425C6.22443 20.5164 6.10978 20.5392 6.06392 20.4707C5.94927 20.3107 5.88048 20.1964 5.78876 19.9678C5.71997 19.785 5.44481 19.785 5.42188 19.5793C5.44481 19.3964 5.67411 19.0536 5.71997 18.8936ZM17.8958 31.2131C17.8499 31.236 17.827 31.2588 17.7812 31.2817C17.827 31.236 17.8499 31.2131 17.8958 31.2131ZM17.7124 20.5392C17.6436 20.6078 17.5289 20.5392 17.5289 20.4478C17.6206 19.305 17.8041 18.9164 17.8729 17.6365C17.8729 17.5679 17.8958 17.4993 17.9187 17.4308C17.9417 17.3851 18.0105 17.4079 18.0105 17.4536C17.9187 18.3222 18.1251 18.1165 18.2398 18.9393C18.2856 19.2136 18.3315 19.465 18.2627 19.7393C18.2168 19.9221 18.0334 19.9907 17.9646 20.1507C17.8958 20.2421 17.827 20.425 17.7124 20.5392Z" fill="#638CC2"/>
<path d="M60.8612 59.1282C60.8612 59.0618 60.828 58.7629 60.6288 58.5969C60.4628 58.4309 59.6991 58.3645 59.2674 58.0656C58.8357 57.7668 58.1053 56.8039 58.0056 56.4386C57.906 56.0734 57.8728 55.9738 57.906 55.7745C57.9392 55.5753 58.1385 52.919 58.0721 52.3877C58.0388 51.8564 57.0095 46.0125 56.9099 44.8172C56.8103 43.6218 56.6111 41.3639 56.5447 37.9107C56.4782 34.4574 56.3122 33.1957 56.279 32.0667C56.2458 30.9378 56.2458 30.8714 56.2458 30.8714C56.2458 30.8714 56.6443 30.8382 56.7771 30.7054C56.9099 30.5725 57.5076 29.0784 57.7732 28.3479C58.0056 27.6174 57.906 27.2189 58.0056 26.6212C58.1053 26.0236 58.0388 25.3263 58.1385 24.7286C58.2381 24.1309 58.2713 22.6699 58.2381 22.1387C58.2049 21.5742 58.0056 21.0097 58.0388 20.6777C58.0721 20.3789 57.8728 19.2499 57.8396 18.7851C57.8064 18.3202 57.6072 16.826 57.408 15.3982C57.2087 13.9704 57.0095 12.4763 56.7771 11.5797C56.5447 10.7164 56.5447 10.318 56.3454 10.2184C56.1462 10.152 54.1207 9.32186 53.7555 9.08943C53.3571 8.857 52.9254 8.857 52.7926 8.79059C52.6598 8.72418 51.9625 8.69098 51.8297 8.55816C51.6968 8.42534 50.9331 7.76126 50.7671 7.69485C50.7339 7.69485 50.7339 7.69485 50.7339 7.66165C50.7007 7.59524 50.6675 7.56203 50.6343 7.52883C50.5679 7.46242 50.4683 7.42922 50.3355 7.39601C50.4019 7.16358 50.6675 6.20066 50.8999 5.96823C50.8999 5.96823 51.066 6.06784 51.2984 5.86862C51.5308 5.66939 51.7965 4.97211 51.7965 4.47404C51.7965 4.47404 51.73 4.142 51.4312 4.30802C51.4312 4.30802 51.398 3.97598 51.5308 3.80996C51.6636 3.61073 52.4937 0.82158 49.5718 0.0246789C48.4096 -0.274159 46.2514 0.0910871 46.351 3.27869C46.351 3.27869 46.0521 3.21228 45.9193 3.44471C45.7865 3.67714 45.7865 4.9389 46.2181 5.00531C46.2181 5.00531 46.3842 5.13813 46.517 5.03851C46.517 5.03851 46.6498 5.40376 46.6166 5.60298C46.5834 5.83541 46.4506 6.16746 46.517 6.43309C46.5502 6.59911 46.5502 6.86474 46.5502 7.03077C46.5502 7.03077 46.4506 7.16358 46.3842 7.36281C46.351 7.39601 46.2846 7.42922 46.2846 7.42922C46.2846 7.42922 45.2884 8.22612 45.0892 8.39214C44.89 8.55816 44.6575 8.45855 44.2591 8.62457C43.8606 8.75738 42.1008 9.38826 41.7688 9.52108C41.4699 9.6539 41.0051 9.75351 40.8723 9.81992C40.7395 9.91953 40.5734 9.85312 40.507 10.0523C40.4738 10.2516 40.1086 11.2477 40.0754 11.7458C40.0422 12.2438 40.1418 12.5427 40.0754 12.7419C40.009 12.9743 39.6769 14.2361 39.6437 14.6345C39.6105 15.033 39.6105 15.5975 39.4777 15.9959C39.3449 16.3944 39.2453 17.1248 39.2453 17.5233C39.2453 17.9217 39.2453 18.3534 39.1789 18.6854C39.1124 18.9843 38.9464 20.1796 38.8468 20.7109C38.7472 21.2422 38.714 21.873 38.714 22.0723C38.714 22.3047 38.548 22.8028 38.548 23.1016C38.548 23.4004 38.2823 26.0568 38.2159 26.8205C38.1495 27.5842 37.9503 29.2444 37.9835 29.7424C38.0167 30.2405 38.0167 30.7718 38.0499 30.9046C38.0167 31.0706 38.0831 31.137 38.1495 31.2034L38.2159 31.5687C38.2159 31.5687 38.2491 31.5687 38.2823 31.5687C38.2491 31.8343 38.1827 32.1996 38.1827 32.2992C38.1827 32.5316 38.1827 32.7972 38.3155 32.9632C38.4484 33.1293 38.5812 33.4945 38.6476 33.7602C38.6808 34.0258 38.6144 34.3578 38.7472 34.391C38.88 34.4242 39.1124 34.5238 39.2453 34.5238V34.5571C39.2453 34.6899 39.1457 34.8891 39.1457 34.8891C39.1457 34.8891 38.8468 34.9555 38.7804 34.9555C38.7472 34.9555 38.714 34.8559 38.5812 34.8559C38.4484 34.8559 38.382 34.9887 38.2823 35.0219C38.1827 35.0551 37.7511 35.2543 37.6847 35.3872C37.6515 35.52 37.7843 44.3191 37.9171 44.95C37.9171 44.95 37.9503 45.2156 38.0831 45.282C38.1827 45.3484 38.88 45.9793 38.88 45.9793H39.046C39.046 45.9793 39.046 46.1785 39.1789 46.1785C39.3449 46.1785 39.3449 46.0125 39.3449 46.0125L40.7395 45.9129C40.7395 45.9129 40.7727 46.1453 40.8723 46.1121C40.9387 46.0789 41.0715 46.0125 41.1711 45.9461C41.1379 46.1785 41.1379 46.3778 41.1047 46.577C41.0715 46.9754 40.8723 48.4696 40.8723 48.7684C40.8723 49.0673 40.7395 50.6943 40.7727 51.0927C40.8059 51.4912 41.0383 52.5537 41.1047 53.1514C41.1711 53.7491 41.3371 54.6788 41.3703 54.9444C41.4035 55.2101 41.4367 55.6085 41.3703 55.7413C41.3039 55.8741 41.2375 55.9406 41.1379 55.9406C41.0051 55.9406 40.673 56.2726 40.6398 56.4386C40.6066 56.6046 40.5734 56.9035 40.6398 57.1691C40.7062 57.468 40.8723 57.8996 40.8723 57.9992C40.8723 58.0988 40.7395 58.1984 40.6398 58.2649C40.5402 58.3313 40.0754 58.4973 39.8429 58.4973C39.6105 58.4641 39.4445 58.4641 39.2121 58.6965C38.9796 58.9289 38.9132 59.1614 38.9464 59.2942C38.9796 59.427 38.7472 59.5266 38.8136 59.6594C38.88 59.7922 38.8136 59.9583 39.046 59.9251C39.2785 59.8919 45.1556 60.0579 45.6205 59.8587C45.6205 59.8587 45.4877 59.0618 45.4544 58.8625C45.4212 58.6301 45.4212 58.2981 45.4212 58.2981C45.4212 58.2981 45.3548 58.1984 45.2884 58.0656C45.222 57.9328 45.222 57.634 45.1556 57.5012C45.1224 57.3683 45.0228 57.1691 45.056 56.9699C45.0892 56.7707 45.5873 54.0479 45.6537 53.251C45.7201 52.4541 45.7865 48.0048 45.7865 47.4071C45.7865 46.8094 46.0853 44.5183 46.1849 43.9206C46.2846 43.323 46.6498 41.7624 46.7494 41.2975C46.8822 40.7994 47.3803 39.8033 47.4467 39.4049C47.4467 39.4049 47.9116 37.4126 48.0776 36.6157C48.2436 35.8188 48.3764 35.0219 48.5092 35.0551C48.6421 35.0883 48.8081 35.4868 48.9409 35.7524C49.0737 36.018 49.1733 36.4829 49.2729 36.8149C49.4058 37.1138 49.8706 38.8736 50.0034 39.4381C50.1362 40.0025 50.3023 41.0651 50.5015 41.5299C50.7007 42.028 51.0992 42.7253 51.1988 43.2566C51.2984 43.7878 51.4644 44.3855 51.6636 44.9832C51.8629 45.5808 51.9957 45.7469 52.0621 46.0125C52.0289 46.3445 52.0621 46.6766 52.1617 46.9754C52.1617 47.0086 52.1617 47.0418 52.1949 47.075C52.2613 47.3407 52.4273 47.5399 52.4273 48.1708C52.3941 48.8017 52.6598 49.9638 52.693 50.3623C52.7262 50.7607 52.9918 51.9561 53.1578 52.5869C53.3238 53.251 53.6559 53.7823 53.7223 54.38C53.8219 54.9444 53.9879 55.4425 54.0211 55.8409C54.0543 56.2394 53.8219 56.0402 53.8219 56.5714C53.8219 57.1359 54.0211 58.3313 54.0211 58.5305C54.0211 58.7629 54.2536 58.7297 54.2536 59.0618C54.2536 59.3938 54.2204 59.6594 54.2536 59.7922C54.2868 59.9251 54.9176 59.8255 54.9841 59.8255C55.0505 59.8255 60.3299 59.759 60.4295 59.7258C60.5292 59.6926 61.0936 59.4602 61.0272 59.3274C61.0936 59.3606 60.8612 59.1946 60.8612 59.1282ZM39.6105 32.9632C39.4113 32.8968 39.4777 32.7972 39.4777 32.6976C39.4777 32.598 39.8429 32.598 39.9758 32.598C39.9758 32.598 39.9758 32.93 39.9758 33.0297C39.9758 33.0629 39.9758 33.0629 39.9426 33.0629C39.8761 33.0297 39.7433 32.9965 39.6105 32.9632ZM41.6692 39.9693C41.7024 40.2682 41.4699 40.733 41.5364 41.2311C41.6028 41.7292 41.5031 42.0612 41.4699 42.5261C41.4699 42.7917 41.4367 43.489 41.3703 44.1531C41.3703 42.8913 41.3703 41.3307 41.3703 41.0983C41.3703 40.6666 41.2043 35.8188 41.2043 35.7192C41.2043 35.5864 40.9719 35.4204 40.8059 35.2543C40.6398 35.1215 40.507 35.1547 40.507 35.1547L40.4074 35.0551C40.4074 35.0551 39.9426 35.0551 39.9093 35.0551C39.8761 35.0219 39.9758 34.5903 40.0754 34.2582C40.175 34.225 40.2746 34.1586 40.3078 34.1254C40.4738 34.0258 40.6066 34.391 40.8059 34.2914C40.9719 34.1918 40.8391 33.6937 40.8391 33.3617C40.8391 33.0297 40.9055 31.7679 40.8391 31.5355C40.8059 31.3694 40.7395 31.1702 40.7062 31.0374C40.7727 30.971 40.8391 30.9046 40.8723 30.8382C40.8723 30.8382 40.9719 29.4104 40.9719 28.9787C40.9719 28.5471 41.2707 27.5178 41.3039 27.1193C41.3371 26.7873 41.4699 26.3556 41.5364 26.2228C41.5364 26.256 41.5364 26.2892 41.5364 26.2892C41.5031 26.6877 41.4367 27.8498 41.4035 28.2483C41.3703 28.7131 41.1711 29.9417 41.1379 30.3069C41.1047 30.639 41.0051 32.0667 41.0383 32.3988C41.0715 32.7308 41.0383 32.6644 41.0051 33.0297C40.9719 33.3949 40.8723 33.8598 40.9719 33.893C41.0383 33.9262 41.1379 34.059 41.2707 34.059C41.4035 34.059 41.3703 34.5903 41.4035 34.9555C41.4367 35.3207 41.4699 35.686 41.5696 35.9848C41.6692 36.2837 41.6028 36.6821 41.636 37.0474C41.6692 37.4126 41.5696 38.1431 41.6692 38.5416C41.7688 38.9068 41.636 39.6373 41.6692 39.9693Z" fill="#638CC2"/>
</g>
<defs>
<clipPath id="clip0">
<path d="M0.851501 0H59.8515V60H0.851501V0Z" fill="white"/>
</clipPath>
</defs>
</svg>
