<svg width="60" height="60" viewBox="0 0 60 60" fill="none" xmlns="http://www.w3.org/2000/svg">
<g clip-path="url(#clip0)">
<path d="M36.0271 59.1282C36.0271 59.0618 35.9939 58.7629 35.7947 58.5969C35.6286 58.4309 34.865 58.3645 34.4333 58.0656C34.0016 57.7668 33.2711 56.8039 33.1715 56.4386C33.0719 56.0734 33.0387 55.9738 33.0719 55.7745C33.1051 55.5753 33.3044 52.919 33.2379 52.3877C33.2047 51.8564 32.1754 46.0125 32.0758 44.8172C31.9762 43.6218 31.777 41.3639 31.7105 37.9107C31.6441 34.4574 31.4781 33.1957 31.4449 32.0667C31.4117 30.9378 31.4117 30.8714 31.4117 30.8714C31.4117 30.8714 31.8102 30.8382 31.943 30.7054C32.0758 30.5725 32.6735 29.0784 32.9391 28.3479C33.1715 27.6174 33.0719 27.2189 33.1715 26.6212C33.2711 26.0236 33.2047 25.3263 33.3044 24.7286C33.404 24.1309 33.4372 22.6699 33.404 22.1387C33.3708 21.5742 33.1715 21.0097 33.2047 20.6777C33.2379 20.3789 33.0387 19.2499 33.0055 18.7851C32.9723 18.3202 32.7731 16.826 32.5739 15.3982C32.3746 13.9704 32.1754 12.4763 31.943 11.5797C31.7106 10.7164 31.7106 10.318 31.5113 10.2184C31.3121 10.152 29.2866 9.32186 28.9214 9.08943C28.5229 8.857 28.0913 8.857 27.9585 8.79059C27.8257 8.72418 27.1284 8.69098 26.9956 8.55816C26.8627 8.42534 26.099 7.76126 25.933 7.69485C25.8998 7.69485 25.8998 7.69485 25.8998 7.66165C25.8666 7.59524 25.8334 7.56203 25.8002 7.52883C25.7338 7.46242 25.6342 7.42922 25.5014 7.39601C25.5678 7.16358 25.8334 6.20066 26.0658 5.96823C26.0658 5.96823 26.2319 6.06784 26.4643 5.86862C26.6967 5.66939 26.9623 4.97211 26.9623 4.47404C26.9623 4.47404 26.8959 4.142 26.5971 4.30802C26.5971 4.30802 26.5639 3.97598 26.6967 3.80996C26.8295 3.61073 27.6596 0.82158 24.7377 0.0246789C23.5755 -0.274159 21.4172 0.0910871 21.5169 3.27869C21.5169 3.27869 21.218 3.21228 21.0852 3.44471C20.9524 3.67714 20.9524 4.9389 21.384 5.00531C21.384 5.00531 21.5501 5.13813 21.6829 5.03851C21.6829 5.03851 21.8157 5.40376 21.7825 5.60298C21.7493 5.83541 21.6165 6.16746 21.6829 6.43309C21.7161 6.59911 21.7161 6.86474 21.7161 7.03077C21.7161 7.03077 21.6165 7.16358 21.5501 7.36281C21.5169 7.39601 21.4504 7.42922 21.4504 7.42922C21.4504 7.42922 20.4543 8.22612 20.2551 8.39214C20.0559 8.55816 19.8234 8.45855 19.425 8.62457C19.0265 8.75738 17.2667 9.38826 16.9347 9.52108C16.6358 9.6539 16.171 9.75351 16.0382 9.81992C15.9053 9.91953 15.7393 9.85312 15.6729 10.0523C15.6397 10.2516 15.2745 11.2477 15.2413 11.7458C15.2081 12.2438 15.3077 12.5427 15.2413 12.7419C15.1749 12.9743 14.8428 14.2361 14.8096 14.6345C14.7764 15.033 14.7764 15.5975 14.6436 15.9959C14.5108 16.3944 14.4112 17.1248 14.4112 17.5233C14.4112 17.9217 14.4112 18.3534 14.3447 18.6854C14.2783 18.9843 14.1123 20.1796 14.0127 20.7109C13.9131 21.2422 13.8799 21.873 13.8799 22.0723C13.8799 22.3047 13.7139 22.8028 13.7139 23.1016C13.7139 23.4004 13.4482 26.0568 13.3818 26.8205C13.3154 27.5842 13.1162 29.2444 13.1494 29.7424C13.1826 30.2405 13.1826 30.7718 13.2158 30.9046C13.1826 31.0706 13.249 31.137 13.3154 31.2034L13.3818 31.5687C13.3818 31.5687 13.415 31.5687 13.4482 31.5687C13.415 31.8343 13.3486 32.1996 13.3486 32.2992C13.3486 32.5316 13.3486 32.7972 13.4814 32.9632C13.6143 33.1293 13.7471 33.4945 13.8135 33.7602C13.8467 34.0258 13.7803 34.3578 13.9131 34.391C14.0459 34.4242 14.2783 34.5238 14.4112 34.5238V34.5571C14.4112 34.6899 14.3115 34.8891 14.3115 34.8891C14.3115 34.8891 14.0127 34.9555 13.9463 34.9555C13.9131 34.9555 13.8799 34.8559 13.7471 34.8559C13.6143 34.8559 13.5478 34.9887 13.4482 35.0219C13.3486 35.0551 12.917 35.2543 12.8506 35.3872C12.8174 35.52 12.9502 44.3191 13.083 44.95C13.083 44.95 13.1162 45.2156 13.249 45.282C13.3486 45.3484 14.0459 45.9793 14.0459 45.9793H14.2119C14.2119 45.9793 14.2119 46.1785 14.3447 46.1785C14.5108 46.1785 14.5108 46.0125 14.5108 46.0125L15.9053 45.9129C15.9053 45.9129 15.9386 46.1453 16.0382 46.1121C16.1046 46.0789 16.2374 46.0125 16.337 45.9461C16.3038 46.1785 16.3038 46.3778 16.2706 46.577C16.2374 46.9754 16.0382 48.4696 16.0382 48.7684C16.0382 49.0673 15.9053 50.6943 15.9386 51.0927C15.9718 51.4912 16.2042 52.5537 16.2706 53.1514C16.337 53.7491 16.503 54.6788 16.5362 54.9444C16.5694 55.2101 16.6026 55.6085 16.5362 55.7413C16.4698 55.8741 16.4034 55.9406 16.3038 55.9406C16.171 55.9406 15.8389 56.2726 15.8057 56.4386C15.7725 56.6046 15.7393 56.9035 15.8057 57.1691C15.8721 57.468 16.0382 57.8996 16.0382 57.9992C16.0382 58.0988 15.9053 58.1984 15.8057 58.2649C15.7061 58.3313 15.2413 58.4973 15.0088 58.4973C14.7764 58.4641 14.6104 58.4641 14.378 58.6965C14.1455 58.9289 14.0791 59.1614 14.1123 59.2942C14.1455 59.427 13.9131 59.5266 13.9795 59.6594C14.0459 59.7922 13.9795 59.9583 14.2119 59.9251C14.4444 59.8919 20.3215 60.0579 20.7864 59.8587C20.7864 59.8587 20.6535 59.0618 20.6203 58.8625C20.5871 58.6301 20.5871 58.2981 20.5871 58.2981C20.5871 58.2981 20.5207 58.1984 20.4543 58.0656C20.3879 57.9328 20.3879 57.634 20.3215 57.5012C20.2883 57.3683 20.1887 57.1691 20.2219 56.9699C20.2551 56.7707 20.7532 54.0479 20.8196 53.251C20.886 52.4541 20.9524 48.0048 20.9524 47.4071C20.9524 46.8094 21.2512 44.5183 21.3508 43.9206C21.4504 43.323 21.8157 41.7624 21.9153 41.2975C22.0481 40.7994 22.5462 39.8033 22.6126 39.4049C22.6126 39.4049 23.0775 37.4126 23.2435 36.6157C23.4095 35.8188 23.5423 35.0219 23.6751 35.0551C23.8079 35.0883 23.974 35.4868 24.1068 35.7524C24.2396 36.018 24.3392 36.4829 24.4388 36.8149C24.5716 37.1138 25.0365 38.8736 25.1693 39.4381C25.3021 40.0025 25.4682 41.0651 25.6674 41.5299C25.8666 42.028 26.2651 42.7253 26.3647 43.2566C26.4643 43.7878 26.6303 44.3855 26.8295 44.9832C27.0288 45.5808 27.1616 45.7469 27.228 46.0125C27.1948 46.3445 27.228 46.6766 27.3276 46.9754C27.3276 47.0086 27.3276 47.0418 27.3608 47.075C27.4272 47.3407 27.5932 47.5399 27.5932 48.1708C27.56 48.8017 27.8257 49.9638 27.8589 50.3623C27.8921 50.7607 28.1577 51.9561 28.3237 52.5869C28.4897 53.251 28.8218 53.7823 28.8882 54.38C28.9878 54.9444 29.1538 55.4425 29.187 55.8409C29.2202 56.2394 28.9878 56.0402 28.9878 56.5714C28.9878 57.1359 29.187 58.3313 29.187 58.5305C29.187 58.7629 29.4195 58.7297 29.4195 59.0618C29.4195 59.3938 29.3863 59.6594 29.4195 59.7922C29.4527 59.9251 30.0835 59.8255 30.15 59.8255C30.2164 59.8255 35.4958 59.759 35.5954 59.7258C35.6951 59.6926 36.2595 59.4602 36.1931 59.3274C36.2595 59.3606 36.0271 59.1946 36.0271 59.1282ZM14.7764 32.9632C14.5772 32.8968 14.6436 32.7972 14.6436 32.6976C14.6436 32.598 15.0088 32.598 15.1416 32.598C15.1416 32.598 15.1416 32.93 15.1416 33.0297C15.1416 33.0629 15.1416 33.0629 15.1084 33.0629C15.042 33.0297 14.9092 32.9965 14.7764 32.9632ZM16.8351 39.9693C16.8683 40.2682 16.6358 40.733 16.7022 41.2311C16.7687 41.7292 16.669 42.0612 16.6358 42.5261C16.6358 42.7917 16.6026 43.489 16.5362 44.1531C16.5362 42.8913 16.5362 41.3307 16.5362 41.0983C16.5362 40.6666 16.3702 35.8188 16.3702 35.7192C16.3702 35.5864 16.1378 35.4204 15.9718 35.2543C15.8057 35.1215 15.6729 35.1547 15.6729 35.1547L15.5733 35.0551C15.5733 35.0551 15.1084 35.0551 15.0752 35.0551C15.042 35.0219 15.1416 34.5903 15.2413 34.2582C15.3409 34.225 15.4405 34.1586 15.4737 34.1254C15.6397 34.0258 15.7725 34.391 15.9718 34.2914C16.1378 34.1918 16.005 33.6937 16.005 33.3617C16.005 33.0297 16.0714 31.7679 16.005 31.5355C15.9718 31.3694 15.9053 31.1702 15.8721 31.0374C15.9386 30.971 16.005 30.9046 16.0382 30.8382C16.0382 30.8382 16.1378 29.4104 16.1378 28.9787C16.1378 28.5471 16.4366 27.5178 16.4698 27.1193C16.503 26.7873 16.6358 26.3556 16.7022 26.2228C16.7022 26.256 16.7022 26.2892 16.7022 26.2892C16.669 26.6877 16.6026 27.8498 16.5694 28.2483C16.5362 28.7131 16.337 29.9417 16.3038 30.3069C16.2706 30.639 16.171 32.0667 16.2042 32.3988C16.2374 32.7308 16.2042 32.6644 16.171 33.0297C16.1378 33.3949 16.0382 33.8598 16.1378 33.893C16.2042 33.9262 16.3038 34.059 16.4366 34.059C16.5694 34.059 16.5362 34.5903 16.5694 34.9555C16.6026 35.3207 16.6358 35.686 16.7355 35.9848C16.8351 36.2837 16.7687 36.6821 16.8019 37.0474C16.8351 37.4126 16.7355 38.1431 16.8351 38.5416C16.9347 38.9068 16.8019 39.6373 16.8351 39.9693Z" fill="#638CC2"/>
</g>
<defs>
<clipPath id="clip0">
<path d="M0.851501 0H59.8515V60H0.851501V0Z" fill="white"/>
</clipPath>
</defs>
</svg>
