<svg width="60" height="60" viewBox="0 0 60 60" fill="none" xmlns="http://www.w3.org/2000/svg">
<g clip-path="url(#clip0)">
<path d="M22.8477 17.7208C22.8072 17.9231 22.8072 18.085 22.8881 18.2872C22.9691 18.4491 23.0095 18.6514 23.0095 18.8537C23.0095 19.4201 23.1309 19.9865 23.2118 20.5529C23.2523 20.7552 23.2523 20.9575 23.2927 21.1193C23.3332 21.3216 23.4546 21.5239 23.6569 21.6453C23.8591 21.7667 24.021 21.9285 24.3042 21.969C24.4256 21.969 24.5469 22.0094 24.6683 21.969C24.7088 21.969 24.7492 21.9285 24.7897 21.969C25.0729 22.0499 25.3966 22.0499 25.6393 22.2117C25.5989 22.7377 25.4775 23.2636 25.3157 23.7491C25.1943 24.0728 25.1538 24.4369 25.0729 24.7606C25.0729 24.8011 25.0729 24.882 25.0729 24.9629C25.0729 24.9629 25.2347 25.0438 25.2347 25.0843C25.3966 25.2057 25.3561 25.4079 25.3157 25.5698C25.2347 25.6507 25.2347 25.7721 25.1943 25.853C25.1538 26.0957 25.1538 26.298 25.0729 26.5408C25.0324 26.7026 25.0729 26.9049 25.0729 27.0667C25.0324 27.5522 24.992 28.0378 24.9515 28.5637C24.9515 28.5637 24.9515 28.5637 24.9515 28.6042C24.9515 29.4133 24.8706 30.1821 24.9111 30.9912C24.9515 31.6386 24.992 32.2859 25.0324 32.9332C25.0324 33.4187 25.1134 33.9042 25.1538 34.4302C25.2347 35.0371 25.3157 35.6844 25.3966 36.2913C25.437 36.6959 25.4775 37.06 25.5179 37.4646C25.5584 37.8287 25.6393 38.1928 25.6798 38.5974C25.7202 38.8806 25.7202 39.1234 25.7607 39.4066C25.8012 39.7707 25.8416 40.1348 25.8821 40.4585C25.8821 40.5799 25.8821 40.6608 25.8821 40.7822C25.8821 40.944 25.963 41.0654 26.0844 41.1463C26.2057 41.2272 26.3676 41.2677 26.5294 41.3486C26.6912 41.7532 26.8531 42.1578 27.0149 42.6028C27.0554 42.6433 27.0149 42.7242 27.0554 42.7647C27.2172 43.0479 27.2172 43.3715 27.2981 43.6952C27.379 44.1402 27.46 44.6257 27.5813 45.1112C27.8241 46.0823 28.1477 46.9723 28.5119 47.9029C28.7546 48.4693 28.9569 49.0357 29.1592 49.6426C29.402 50.3304 29.6447 51.0587 29.8875 51.7464C29.9279 51.9083 29.9684 52.1106 30.0088 52.3129C30.0493 52.8388 30.1707 53.4052 29.9684 53.9312C29.8875 54.174 29.7661 54.4167 29.6852 54.6595C29.4829 55.2259 29.3615 55.7923 28.9569 56.2373C28.7546 56.4396 28.6737 56.6419 28.431 56.8038C27.9859 57.087 27.5004 57.3297 26.9744 57.4511C26.6912 57.532 26.5699 57.8152 26.8531 58.0175C26.9744 58.0984 27.0554 58.1793 27.1767 58.2603C27.2981 58.3412 27.4195 58.3816 27.5409 58.3816C27.8241 58.4221 28.0668 58.3412 28.35 58.3412C28.5928 58.3412 28.8355 58.3007 29.0783 58.2603C29.4829 58.2198 29.9279 58.1389 30.3325 58.0984C30.373 58.0984 30.4134 58.0984 30.4943 58.0984C30.7775 58.0984 31.0203 58.058 31.3035 57.8557C31.3035 58.0175 31.3035 58.1389 31.3035 58.2603C31.3035 58.6244 31.3844 58.9885 31.5463 59.2717C31.7081 59.5549 31.9104 59.7977 32.2341 59.8786C32.2341 59.8786 32.2341 59.8786 32.2745 59.8786C32.6386 60.1618 32.9219 59.9595 33.2051 59.7572C33.4074 59.5954 33.5692 59.3931 33.731 59.1908C34.0142 58.8267 34.0547 58.4221 34.0142 57.9771C33.9738 57.5725 33.8929 57.1679 33.8524 56.7228C33.8119 56.561 33.8119 56.3992 33.8119 56.2373C33.7715 55.9541 33.731 55.6305 33.6906 55.3473C33.6096 55.064 33.5692 54.7404 33.6096 54.4572C33.6501 54.2549 33.6501 54.0526 33.6096 53.8098C33.5692 53.2839 33.6906 52.7984 33.8524 52.2724C33.9738 51.8678 34.1356 51.4632 34.257 51.0182C34.5402 50.0876 34.7829 49.1166 35.0257 48.1861C35.2684 47.2556 35.4303 46.2845 35.6326 45.3135C35.673 45.0708 35.673 44.828 35.7135 44.5853C35.7539 43.9784 35.7539 43.412 35.7539 42.8051C35.7539 42.441 35.673 42.0769 35.673 41.7127C35.673 41.5509 35.673 41.3486 35.673 41.1463C35.7944 41.1059 35.9158 41.0249 36.0776 40.9845C36.2394 40.944 36.3608 40.8226 36.4417 40.7013C36.644 40.4181 36.6845 40.0944 36.6845 39.7707C36.6845 39.3257 36.6845 38.9211 36.6845 38.4761C36.725 37.9905 36.7654 37.4646 36.8059 36.9791C36.8463 36.534 36.8868 36.1295 36.9272 35.6844C36.9677 35.3203 37.0486 34.9562 37.0891 34.5516C37.1295 34.3493 37.1295 34.1874 37.17 33.9852C37.2105 33.6615 37.2105 33.3378 37.2509 33.0546C37.3318 32.1241 37.2509 31.234 37.3318 30.3034C37.3723 29.7775 37.3723 29.2515 37.3723 28.766C37.3723 28.24 37.2914 27.7141 37.2509 27.1881C37.2509 26.6217 37.1295 26.0553 36.9677 25.5293C36.9677 25.4484 36.9677 25.3675 37.0082 25.2866C37.0082 25.2057 37.0891 25.0843 37.0486 25.0034C36.9677 24.5988 36.8868 24.1942 36.644 23.8301C36.4822 23.5873 36.4013 23.3446 36.4013 23.0613C36.4013 22.8186 36.3204 22.5758 36.2394 22.2926C36.1585 22.0094 36.1585 21.6858 36.0372 21.4026C35.9967 21.3216 35.9562 21.2003 35.9562 21.1193C35.9562 21.0789 35.9562 21.0384 35.9562 20.998C35.9562 20.9575 35.9967 20.917 35.9967 20.8766C35.9967 20.7957 35.9967 20.7552 35.9967 20.6743C35.9562 20.3911 36.0372 20.1483 36.199 19.946C36.644 19.4201 36.9677 18.8537 37.2509 18.2468C37.4937 17.6804 37.696 17.1139 37.9387 16.5475C38.141 16.0216 38.2219 15.4147 38.2219 14.8483C38.2219 14.4437 38.2219 14.0391 38.2219 13.6345C38.2219 13.2704 38.2624 12.9467 38.2624 12.5826C38.2624 12.2185 38.2219 11.8948 38.141 11.5711C38.0196 11.1665 37.8173 10.762 37.6555 10.3574C37.5341 10.1146 37.3723 9.99325 37.0891 9.95279C36.8059 9.95279 36.5631 9.87187 36.2799 9.83141C36.3204 9.66958 36.3608 9.50774 36.4013 9.34591C36.199 9.46729 36.0372 9.58866 35.7944 9.5482C35.5921 9.50774 35.4303 9.42683 35.2684 9.30545C35.2684 9.22453 35.3089 9.14362 35.3089 9.0627C35.228 8.98178 35.1875 8.90087 35.1066 8.81995C35.228 8.61766 35.1875 8.33445 35.3898 8.21307C35.3089 8.01078 35.2684 7.8894 35.4303 7.72757C35.5112 7.72757 35.5517 7.68711 35.673 7.68711C35.5517 7.52528 35.4303 7.4039 35.3089 7.28252V7.24207C35.3494 7.24207 35.3494 7.28252 35.3898 7.28252C35.4303 7.28252 35.4303 7.32298 35.4707 7.32298C35.4707 7.28252 35.4707 7.28252 35.4707 7.28252C35.3494 7.03977 35.228 6.83748 35.1066 6.59473C35.0662 6.55427 35.1066 6.51381 35.1066 6.4329C35.1066 5.98785 35.1066 5.58327 35.1066 5.13822C35.1066 5.01685 35.1471 4.89547 35.1471 4.7741C35.1066 4.00538 35.1066 3.23667 34.8234 2.50842C34.6616 2.02292 34.3784 1.57787 34.1356 1.17329C34.0951 1.09237 34.0142 1.01145 33.9738 0.930536C33.7715 0.566409 33.4478 0.364116 33.0837 0.161824C32.8814 0.0404481 32.6791 0.0404481 32.4768 0.121365C32.3554 0.202282 32.2341 0.161824 32.1936 0.0809067C32.0318 -0.161845 31.789 -0.121386 31.5867 -0.0809275C30.6966 0.121365 29.9279 0.485492 29.2806 1.17329C28.7142 1.73971 28.2691 2.38704 28.0264 3.19621C27.8241 3.88401 27.6218 4.5718 27.6622 5.34052C27.6622 5.46189 27.6622 5.54281 27.6622 5.66418C27.6622 5.70464 27.7027 5.78556 27.7027 5.86648C27.6622 5.94739 27.6218 6.06877 27.5409 6.19014C27.5813 6.19014 27.5813 6.2306 27.6218 6.2306C27.5409 6.59473 27.3386 6.87794 27.1363 7.20161C27.3386 7.32298 27.379 7.12069 27.5004 7.08023C27.5409 7.08023 27.5409 7.12069 27.5813 7.12069C27.6218 7.08023 27.6218 7.03977 27.7027 6.99931C27.7432 7.03977 27.7432 7.08023 27.7432 7.08023C27.7432 7.20161 27.6218 7.28253 27.7836 7.36344C27.7432 7.48482 27.6622 7.56573 27.5813 7.72757C27.8241 7.56573 27.905 7.4039 28.0264 7.16115C28.0668 7.28252 28.0668 7.32298 28.0668 7.36344C28.0668 7.64665 27.9859 7.8894 27.7836 8.13215C27.6622 8.25353 27.5813 8.37491 27.4195 8.53674C27.6218 8.53674 27.7836 8.61766 27.9859 8.5772C27.905 8.65812 27.7836 8.77949 27.7027 8.86041C27.6218 8.98178 27.5004 9.02224 27.5004 9.22453C27.2577 9.34591 27.0149 9.46729 26.7722 9.58866C26.8935 9.58866 27.0554 9.58866 27.2172 9.62912C27.1767 9.71004 27.1363 9.75049 27.0958 9.79095C26.8531 9.95279 26.6103 10.1146 26.408 10.236C26.0034 10.3169 25.6798 10.3978 25.3157 10.4787C25.2752 10.4787 25.2347 10.5192 25.1538 10.5192C24.9515 10.5192 24.7897 10.6001 24.7088 10.8024C24.3042 11.5711 23.9401 12.3803 23.8187 13.2299C23.7378 13.7963 23.5759 14.3628 23.495 14.9292C23.3736 15.5765 23.2523 16.2239 23.1309 16.8712C22.9691 17.2353 22.9286 17.4781 22.8477 17.7208ZM30.5753 41.9959C30.8989 41.9959 31.2631 41.9959 31.5463 41.9959C31.6676 42.0769 31.7486 42.1578 31.8295 42.2387C31.8295 42.8051 31.8295 43.3311 31.8295 43.857C31.8295 43.8975 31.8295 43.9784 31.789 44.0189C31.6676 44.1402 31.7081 44.3021 31.7081 44.4639C31.7081 45.6372 31.7081 46.851 31.7081 48.0243C31.7081 48.1052 31.7081 48.1861 31.7081 48.267C31.6272 48.2266 31.6272 48.1456 31.6272 48.1052C31.6272 47.9433 31.6272 47.822 31.6272 47.6601C31.6272 47.5792 31.6272 47.4983 31.5867 47.4174C31.5058 47.296 31.5058 47.1746 31.5058 47.0937C31.5058 46.9723 31.5058 46.8105 31.5058 46.6487C31.3035 46.4464 31.344 46.4464 31.344 46.2036C31.3844 45.9204 31.4653 45.5968 31.3844 45.3135C31.3035 45.0303 31.344 44.828 31.3844 44.5448C31.3844 44.5044 31.3844 44.4235 31.3844 44.383C31.3035 44.0593 31.2226 43.7357 31.1417 43.4524C31.1012 43.2906 31.0203 43.0883 30.9394 42.9265C30.818 42.6837 30.6966 42.4814 30.6157 42.2387C30.5348 42.1578 30.5348 42.0769 30.5753 41.9959Z" fill="#638CC2"/>
<path d="M39.0448 26.9333C39.2818 27.2296 39.2818 27.437 39.43 27.3778C39.43 27.3778 39.43 27.3778 39.4596 27.3778C39.43 27.7037 39.43 28.0889 39.4003 28.3852C39.3411 28.7111 39.3115 28.9481 39.2818 29.2148C39.2522 29.4519 39.3411 29.7481 39.43 29.9556C39.5189 30.163 39.6374 30.5778 39.9929 31.1704C39.9929 31.2889 39.9929 31.4074 40.0226 31.4963C40.1707 31.9407 40.3781 32.2074 40.4966 32.5333C40.5855 32.8593 40.7929 33.6889 40.8226 34.2222C40.8522 34.7556 40.9707 36.4148 40.9707 38.4593C40.9707 40.5037 40.8818 44.7407 40.9411 45.6C41.0003 46.4593 41.2374 47.2593 41.1781 47.8519C41.1189 48.4444 40.7337 49.3037 40.8226 50.0741C40.8818 50.8444 41.2374 51.6148 41.267 52.237C41.2966 52.8296 41.0892 53.6 40.9115 54.1037C40.7041 54.6074 40.6152 54.6074 40.6744 55.4667C40.7337 56.3259 40.9411 56.9778 40.9707 57.3037C41.0003 57.4815 40.9707 57.6 41.03 57.6C40.9411 57.7481 40.6744 58.1037 40.3781 58.2222C40.0226 58.3704 39.4892 58.4296 39.4596 59.1407C39.4003 59.2296 39.2818 59.4074 39.4892 59.5556C40.0522 59.5852 41.2078 59.8222 42.1559 59.8222C43.0744 59.8222 43.3707 59.763 43.3707 59.6148C43.5781 59.7037 43.6374 59.7037 43.6374 59.7037C43.6374 59.7037 44.1411 59.6741 44.3189 59.6148C44.4966 59.5556 44.5263 59.437 44.4966 59.2889C44.467 59.1407 44.4966 58.6074 44.4078 58.4296C44.4374 58.4 44.4374 58.3111 44.5263 58.0741C44.7041 57.6 45.1781 56.8593 45.2966 56.4148C45.4448 55.9704 45.4448 55.6741 45.2078 55.3185C44.9707 54.963 44.9707 54.7556 44.9707 54.2222C44.9707 53.6889 44.9411 52.6222 44.9707 51.8815C45.0004 51.1407 45.03 49.6 45.0596 48.5926C45.0892 47.5852 45.2078 46.3704 45.2966 45.5111C45.3855 44.6519 45.3855 42.9333 45.5929 42.2815C45.8004 41.6296 45.9189 40.8593 46.067 40.237C46.2152 39.5852 46.0966 39.0815 46.3041 38.3111C46.4818 37.6296 46.4226 37.3037 46.5115 36.7407C46.5411 36.5333 46.63 36.237 46.6892 36C46.7189 35.9407 46.7189 35.8815 46.7485 35.8222C46.8374 35.5556 46.9263 35.3185 46.9263 34.9333C46.9559 34.4 47.1041 33.7778 47.2818 33.8667C47.5189 34.0741 47.6966 35.4963 47.6966 35.4963C47.6966 35.4963 47.6966 35.4667 47.6966 35.437C47.8152 36.2074 47.9041 37.1259 48.0226 37.9259C48.2004 39.3778 47.9929 42.6074 48.2596 43.7926C48.5263 45.0074 48.5559 46.7259 48.6448 47.7037C48.7337 48.6815 48.7337 51.3481 48.7633 52.4148C48.7929 53.4815 48.467 54.7852 48.5263 55.5852C48.5855 56.3556 48.8522 57.037 48.8818 57.4519C48.9115 57.8963 48.8818 58.2815 48.8818 58.2815C48.8818 58.2815 48.9115 58.2815 48.9411 58.2815C48.8522 58.4296 48.7041 58.6667 48.7633 58.9926C48.7929 59.1407 48.7633 59.3185 48.8522 59.4074C48.9411 59.4963 50.2744 59.7037 50.2744 59.7037L51.2226 59.5259C51.2226 59.5259 51.2818 59.6444 51.4004 59.8222C51.5189 60 51.8152 60.0296 52.8818 60.0296C53.9781 60 55.3707 59.8519 55.8152 59.763C56.2596 59.6741 56.3781 59.437 56.2892 59.2889C56.2004 59.1111 56.2004 58.9037 55.9929 58.7259C55.7855 58.5481 55.5189 58.4889 55.0744 58.4889C54.6892 58.4889 53.8596 58.6667 53.1189 57.6296C53.1189 57.6296 53.0892 57.5704 53.03 57.4815C53.0004 57.4519 53.0004 57.3926 52.9707 57.363C52.8818 56.6815 53.2966 56.6815 53.1781 56.2074C53.0892 55.7333 53.0596 55.0815 52.8818 54.7259C52.7041 54.3704 52.9115 53.2444 52.9411 52.5037C52.9707 51.763 52.8226 49.4519 52.8818 48.2074C52.9411 46.963 52.7041 44.9778 52.8226 44C52.9115 43.0222 53.1781 39.7926 53.3559 37.6C53.5633 35.4074 53.4152 34.4296 54.067 32.8889C54.2744 32.4148 54.6596 31.8815 54.6596 31.1704C54.6596 31.2 54.6596 31.2296 54.6596 31.2296C54.6596 31.2296 54.8078 30.9333 55.0744 30.1926C55.3411 29.4519 55.4596 29.1556 55.4892 28.7407C55.5189 28.3259 55.5781 27.7037 55.7559 27.1407C55.8744 26.7556 55.9633 26.4 56.0226 26.1333C56.0522 26.1333 56.1115 26.1333 56.1411 26.1333C56.2596 26.1333 56.2892 26.1037 56.4078 25.9852C56.5855 25.837 56.7337 25.8074 56.8818 25.3037C57.03 24.8296 57.3263 23.9704 57.1781 24.0593C57.03 24.1481 56.7929 23.8519 56.7929 23.8519C56.7929 23.8519 56.7633 24.0593 56.7633 23.437C56.7929 22.8148 56.7929 21.6 56.7929 20.8296C56.8226 20.0593 56.7633 18.5481 56.5263 16.563C56.2596 14.5778 56.0522 12.8593 55.7559 12.1185C55.4892 11.4667 54.9855 10.9926 54.0967 10.5481V10.5185C53.7115 10.2519 51.2522 9.18519 50.8966 9.03704C50.7485 8.97778 50.7781 9.0963 50.7781 9.0963L50.5411 8.94815C50.3633 8.74074 50.2152 7.94074 50.0966 7.76296C49.9781 7.58519 49.7411 7.46667 49.7411 7.46667C49.7115 7.14074 49.7411 6.42963 49.83 6.31111C49.9781 6.01481 50.1263 5.71852 50.2448 5.27407C50.3929 5.39259 50.6892 5.21481 50.8374 4.97778C50.9855 4.77037 51.1929 4.41481 51.1337 3.94074C51.0448 3.46667 50.7781 3.40741 50.7781 3.40741C50.8374 3.2 50.7781 2.66667 50.63 2.22222C50.4818 1.80741 50.3929 1.48148 50.0374 1.03704C49.6818 0.622222 49.4448 0.503704 49.1781 0.355556C48.8818 0.207407 48.5855 0.0888889 48.3189 0.0296296C48.0818 0.0592593 47.8152 0 47.1929 0C46.5707 0.0296296 46.2152 0.414815 46.0374 0.622222C45.8892 0.82963 45.5633 1.00741 45.0004 1.86667C44.4374 2.72593 44.9707 3.85185 45.03 4.32593C44.7929 4.53333 45.0596 5.12593 45.0892 5.51111C45.1485 5.92593 45.3855 5.80741 45.5041 5.71852C45.7115 6.42963 45.9781 6.66667 46.0374 6.9037C46.0966 7.08148 46.067 7.64444 46.067 7.97037C45.9189 8 45.9189 8.23704 45.8892 8.5037C45.8596 8.77037 45.8004 9.03704 45.6522 9.42222C45.6522 9.42222 44.7041 9.95556 44.0522 10.1926C43.4004 10.4593 42.2448 11.0519 42.1263 11.1704C42.1263 11.1704 42.1263 11.2 42.1263 11.2889H42.0966C42.0374 11.3185 41.8596 11.3778 41.7411 11.4963C41.7115 11.5259 41.7115 11.5556 41.7115 11.5556C41.4448 11.763 41.2078 12.0296 40.9707 12.4741C40.467 13.363 40.5855 14.0148 40.467 15.0815C40.3485 16.1481 39.7263 19.437 39.43 21.0963C39.1337 22.7556 39.1337 24.7407 39.1633 24.9778C39.1929 25.2148 39.2818 25.037 39.0744 25.1556C38.9263 25.3333 38.8966 25.4815 38.7485 25.4519C38.6003 25.4222 38.63 25.6 38.6892 26.0444C38.7485 26.4889 38.8078 26.637 39.0448 26.9333ZM53.4448 25.2741C53.3559 24.6222 53.3263 23.3778 53.2374 22.4593C53.1485 21.5407 53.2374 21.3333 53.1485 21.037C53.0892 20.7111 53.0596 20.6815 53.1781 20.3259C53.2966 19.9704 53.4448 19.7333 53.4152 19.1111C53.4152 19.0222 53.4152 18.8741 53.4152 18.7259C53.4448 18.7556 53.4448 18.8148 53.4448 18.8444C53.4744 19.1111 53.5041 19.1704 53.5337 19.3778C53.5633 19.5259 53.5633 19.7333 53.5633 19.9111C53.5633 20.0296 53.5633 20.1185 53.5633 20.237C53.5633 20.2963 53.5633 20.3259 53.5633 20.3556C53.5633 20.4741 53.5633 20.563 53.5633 20.6815C53.6226 21.3926 53.6226 21.7778 53.7707 22.1037C53.9189 22.4 53.8596 22.9333 53.8596 23.1407C53.83 23.3481 53.9189 23.6444 53.83 23.763C53.7707 23.8519 53.6522 23.7926 53.6226 23.763C53.6226 23.763 53.6226 23.9111 53.6818 24.2963C53.7411 24.7111 53.7707 24.8 53.83 25.0963C53.8892 25.3926 53.8596 25.6889 53.8892 25.8667C53.8892 25.8963 53.8892 25.8963 53.9189 25.9259C53.9485 26.0148 54.1855 26.163 54.1855 26.163C54.1855 26.163 54.1855 26.1037 54.1559 25.9852C54.2152 26.5481 54.2744 27.5556 54.2448 27.7926C54.1855 28.1481 54.0374 28.4741 53.83 28.6815C53.6818 28.8296 53.5929 28.9185 53.5929 28.9185C53.5929 28.9185 53.5929 28.9481 53.6226 28.9778C53.5633 28.8889 53.5041 28.8296 53.4744 28.7407C53.1189 28.237 53.1781 27.7037 53.1781 27.4667C53.1781 27.3778 53.1485 27.2889 53.1189 27.2V27.1704C53.0892 27.0519 53.03 26.9333 53.0004 26.8741C53.2374 26.8444 53.4744 26.8444 53.5337 26.7259C53.6522 26.5185 53.5337 25.9556 53.4448 25.2741ZM46.0966 7.97037C46.0966 8 46.0966 8.02963 46.0966 8.02963C46.067 8 46.067 8 46.0966 7.97037ZM42.0078 24.9481C42.067 24.6222 42.2744 23.2296 42.3041 22.9037C42.3337 22.5778 42.2152 22.5481 42.3337 22.1333C42.4522 21.7481 42.6004 21.8667 42.6004 21.4222C42.6004 20.9778 42.8078 20.9185 42.7189 20.6519V20.6222C42.7189 20.5926 42.7189 20.563 42.6892 20.5037C42.7485 20.6815 42.8374 20.7407 42.8374 20.9778C42.867 21.2741 42.7781 21.3926 42.7781 21.6593C42.7485 21.8963 42.8374 22.0741 42.7485 22.2815C42.6596 22.4889 42.5411 22.5778 42.4522 22.963C42.3633 23.3185 42.0966 25.0963 42.067 25.4519C42.067 25.6593 42.0078 25.9259 41.9485 26.1333C41.9781 25.837 42.0078 25.5407 42.0078 25.4519C42.0078 25.2741 41.9485 25.2444 42.0078 24.9481ZM40.9707 27.2296L40.9411 27.3778C40.9411 27.3778 41.2966 27.4074 41.5041 27.3185C41.5337 27.3185 41.5337 27.3185 41.5337 27.2889C41.5337 27.2889 41.5633 27.2889 41.5633 27.2593C41.7411 27.1111 41.7115 26.8444 41.8004 26.6667C41.83 26.637 41.83 26.5481 41.8596 26.4593C41.9189 26.4889 42.0374 26.5481 42.1855 26.5778C42.1855 26.6074 42.1559 26.637 42.1559 26.6963C42.1559 26.7852 42.1263 26.8444 42.1263 26.9037C42.0374 27.2593 41.8892 27.7926 41.6226 28.237C41.4744 28.4741 41.2078 28.7407 40.9115 29.0667C40.8522 29.0074 40.7929 28.8296 40.7633 28.5926C40.7633 28.237 40.9707 27.2296 40.9707 27.2296Z" fill="#638CC2"/>
<path opacity="0.8" d="M47.2666 20.0455C47.3135 19.834 47.3369 19.599 47.3135 19.4345C47.29 19.2699 46.6811 12.7365 46.3064 11.0913C45.9317 9.44621 45.6741 9.86925 45.6741 9.86925C45.6741 9.86925 42.1611 8.78817 41.8801 8.52965C41.5991 8.27113 41.1775 7.8716 41.1307 7.9656C41.1073 7.8481 41.0838 7.77759 41.0604 7.77759C41.0604 7.77759 41.0604 7.77759 41.037 7.82459C41.0136 7.54257 41.0604 7.33106 41.0604 7.33106C41.2009 7.11954 41.4586 6.48499 41.4586 6.48499C41.7864 6.41449 41.7864 6.01496 42.1377 5.59193C42.489 5.14539 42.4188 4.91038 42.4188 4.91038C42.9808 4.36984 42.934 3.52377 42.934 3.52377C42.653 0.868075 40.3578 0.139521 38.859 -0.00148983C37.3601 -0.1425 36.8449 1.43212 36.6341 2.06666C36.3999 2.70121 36.4936 4.29933 36.4936 4.29933C36.1657 4.36984 36.5404 5.14539 36.6341 5.33341C36.7044 5.52142 36.7044 5.49792 36.7278 5.73294C36.7512 5.96796 37.0791 6.13247 37.0791 6.13247C37.0557 6.29698 37.1962 6.76701 37.2196 6.90803C37.243 7.04904 37.2196 7.73059 37.2196 7.73059C37.1728 7.70709 37.1259 7.82459 37.0791 7.9656H37.0557C37.0557 7.9656 37.0088 7.98911 36.8449 8.22412C36.681 8.45914 36.4702 8.69416 36.3297 8.76466C36.1891 8.83517 35.3695 9.14069 34.9245 9.3052C34.5029 9.46972 32.442 10.1278 32.3717 10.1278C32.3015 10.1043 32.2546 10.1043 32.1844 10.1513C32.1141 10.1983 31.9268 10.2688 31.6223 11.2794C31.3179 12.2664 30.4982 19.8575 30.4045 20.0455C30.3342 20.2335 30.1937 20.5155 30.2171 20.7036C30.2406 20.8916 30.1235 21.0326 30.2171 21.1971C30.2874 21.3616 30.2171 21.5731 30.3342 21.9256C30.4513 22.2782 31.0368 28.0831 31.4584 29.5872C31.4584 29.5872 31.5755 29.5637 31.7394 29.5167C31.7862 29.7517 31.9268 30.2688 31.997 30.2688C32.0439 30.2688 32.1844 30.2453 32.3952 30.1748C32.4186 30.3393 32.5123 30.7153 32.6528 30.9738C32.8167 31.2793 33.0275 31.6789 33.2851 31.9139C33.1914 32.995 33.1212 33.9585 33.0743 34.3346C32.9806 35.4627 33.0041 42.4897 33.0743 42.9832C33.1446 43.4767 33.7769 48.4591 33.8472 48.9762C33.9174 49.4932 34.8308 54.5461 34.9713 54.7106C35.1118 54.8751 35.1353 54.9456 34.9713 55.1336C34.8074 55.3216 34.6669 55.7682 34.8074 56.2617C34.9245 56.7552 34.7371 57.1078 34.8542 57.0843C34.9245 57.0608 35.0182 56.9668 35.2289 56.8963C35.2055 56.9668 35.1821 57.0608 35.0884 57.2018C34.9245 57.4838 34.2687 58.0008 33.8238 58.3534C33.3788 58.7059 32.6762 58.8939 32.442 59.0584C32.2078 59.2229 32.3015 59.5285 32.2546 59.5755C32.2078 59.6225 32.0673 59.74 32.3952 59.7635C32.723 59.8105 34.4561 59.928 35.2992 59.9045C36.1423 59.881 36.5404 59.5285 36.7512 59.3404C36.962 59.1524 37.2664 59.3639 37.5943 59.4109C37.9222 59.4579 39.1634 59.0349 39.1634 59.0349C39.1634 59.0349 39.1166 58.4944 39.1166 58.3769C39.1166 58.2594 39.0463 58.2594 39.0463 58.2594C39.0932 57.9773 39.0463 57.5073 38.9761 57.2488C38.9058 56.9903 38.5311 56.5437 38.5311 56.5437C38.4843 56.5437 38.4374 56.5672 38.414 56.5672C38.4374 56.5437 38.4608 56.5202 38.4843 56.5202C38.5311 56.4732 38.5545 56.4262 38.5545 56.3792C38.5779 56.0972 38.6014 55.2511 38.5545 54.9456C38.4843 54.5931 38.1095 53.9115 38.1564 53.606C38.1564 53.3475 37.9222 47.237 37.8051 46.0619C37.688 44.9104 37.2196 43.9703 37.2899 43.6883C37.3601 43.4297 37.5943 42.0901 37.7583 41.5731C37.9222 41.0561 37.8519 40.4685 37.9924 39.7165C38.133 38.9644 39.2571 34.7341 39.3274 34.6401C39.3976 34.5461 39.8894 36.9433 40.03 38.9174C40.1705 40.8916 40.1236 45.4274 40.1471 46.5085C40.1705 47.5661 40.0534 52.0079 40.1471 52.5249C40.1471 52.6894 39.6552 54.2876 39.4913 55.1336C39.3274 56.0032 39.2571 56.1677 39.3039 56.4027C39.3274 56.6377 39.3976 57.0843 39.4679 57.0608C39.4913 57.0608 39.6084 56.9668 39.7958 56.9198C39.7255 57.2958 39.6318 58.1653 39.8894 58.4709C39.8894 58.4709 39.8426 58.4709 39.7958 58.5414C39.7723 58.6119 39.7489 59.2229 39.7489 59.2699C39.7489 59.3169 39.7958 59.3639 39.8192 59.4579C39.866 59.552 39.6787 59.787 39.866 59.9045C40.0534 59.9985 42.5593 60.0455 43.0043 59.9515C43.4492 59.8575 43.4961 59.7635 43.4961 59.7165C43.4961 59.6695 43.4726 59.4579 43.3555 59.4109C43.3555 59.4109 43.4024 59.1054 43.1213 58.7529C42.8637 58.4004 42.4422 57.7188 42.4422 57.2958C42.4422 57.2488 42.4422 57.2018 42.4422 57.1548C42.5359 57.0373 42.653 56.8727 42.8403 56.6142C43.1916 56.0972 43.1682 55.6507 43.3321 55.2981C43.4961 54.9456 43.6366 54.9221 43.6366 54.4286C43.6366 53.935 43.7771 53.747 43.8005 53.3945C43.8239 53.042 44.105 50.2688 44.1518 49.1642C44.1752 48.0596 44.1987 45.0044 44.2455 44.1113C44.2689 43.2417 44.9949 36.4967 45.112 35.2276C45.2291 33.9585 45.3931 33.1595 45.4867 32.0784C45.4867 31.9609 45.4867 31.8199 45.4867 31.6789C45.8849 30.9973 45.9551 30.3393 45.9551 30.1513C46.002 30.1513 46.0488 30.1748 46.0956 30.1748C46.2127 30.1983 46.3064 30.1983 46.3298 30.1748C46.3767 30.1043 46.4469 29.5872 46.4704 29.3287H46.4938C46.9856 29.2582 47.0558 29.1407 47.0558 29.1407C47.0558 29.1407 47.2198 21.5966 47.29 21.1501C47.3603 20.7036 47.454 20.6095 47.4306 20.445C47.4071 20.2805 47.1964 20.2335 47.2666 20.0455ZM33.6364 21.5731C33.6598 21.4556 33.613 21.4086 33.6364 21.2911C33.6598 21.1736 33.7535 21.0796 33.8238 20.9621C33.894 20.8211 33.8003 20.5625 33.8238 20.3275C33.8472 20.0925 33.9409 19.0114 33.9409 19.0584C33.9174 19.2699 34.1985 20.304 34.1516 20.5155C34.1048 20.7506 34.0814 20.7976 34.0345 21.2676C34.0111 21.7376 34.0111 22.2782 33.9409 22.5837C33.8706 22.8892 33.7301 23.9703 33.7301 23.9703C33.7067 23.6648 33.5427 22.0197 33.613 21.9021C33.7301 21.7611 33.6364 21.6906 33.6364 21.5731ZM37.0791 7.98911C37.0791 8.01261 37.0791 8.01261 37.0557 8.03611C37.0557 8.01261 37.0557 8.01261 37.0791 7.98911Z" fill="#638CC2"/>
<path d="M21.4493 21.4535C22.0684 20.6764 22.4811 20.2878 22.3665 19.6478C21.6098 15.7851 19.9359 11.2596 19.7983 10.7796C19.7066 10.4596 19.4315 10.4139 19.3627 10.3911C19.3168 10.3911 18.7206 10.1396 18.4455 10.0254C18.1932 9.91107 15.1894 8.76826 14.983 8.69969C14.7079 8.60826 14.662 8.42541 14.4327 8.35685C14.3868 8.33399 14.3181 8.33399 14.2722 8.33399C14.2722 8.15114 14.2722 8.014 14.2951 7.96829C14.4556 7.69401 14.6849 7.21403 14.8684 6.80262C14.6849 7.21403 15.2582 6.82548 15.648 6.27693C16.0607 5.70552 16.1754 4.63128 16.0378 3.37418C15.9232 2.1628 14.3868 0.174305 13.034 0.0143107C11.383 -0.191396 9.36517 1.86567 9.09001 3.28276C8.81485 4.69984 8.88364 5.4541 9.06708 5.91123C9.25052 6.41406 9.68619 7.03118 9.89257 7.09975C10.076 7.60259 10.6722 8.12828 10.7639 8.47113C10.7639 8.49398 10.7639 8.5397 10.7868 8.58541C10.6951 8.58541 10.42 8.67683 10.2365 8.9054C10.2365 8.9054 9.11295 9.24824 8.49383 9.43109C7.85179 9.59108 6.56771 10.0482 6.47599 10.0482C6.38427 10.0482 6.13204 10.1396 5.97153 10.3682C5.58172 10.9853 4.1142 15.2594 3.83904 16.5622C3.70146 17.2479 2.80719 19.3507 2.80719 19.9907C2.80719 20.4935 4.06834 22.1849 5.30656 23.3277C5.46707 23.4877 5.69637 23.6248 5.83395 23.8077C5.97153 24.0134 5.85688 24.2877 5.83395 24.4934C5.7193 25.1791 5.76516 25.8647 5.67344 26.5276C5.55879 27.3961 5.32949 28.2418 5.14605 29.1103C5.07726 29.4532 4.89382 29.9789 4.96261 30.3446C4.96261 30.3674 4.98554 30.4131 5.0314 30.4817C5.0314 30.5046 5.05433 30.5046 5.05433 30.5503C5.14605 30.6874 5.42121 31.0988 5.69637 31.3502C5.7193 31.3731 5.74223 31.396 5.74223 31.396C5.74223 31.396 5.76516 31.396 5.76516 31.4188C5.76516 31.4188 5.76516 31.4188 5.78809 31.4188C5.81102 31.4417 5.85688 31.4645 5.90274 31.4874C5.92567 31.4874 5.92567 31.5102 5.9486 31.5102C6.06325 33.7044 6.56771 37.7043 6.61357 39.0071C6.68236 40.607 6.75115 45.0183 6.77408 46.6868C6.79701 48.5839 7.02631 51.258 7.0951 53.1551C7.0951 53.4065 7.20975 53.7951 7.14096 54.0237C7.0951 54.1836 6.91166 54.2294 6.98045 54.3894C7.02631 54.5265 7.18682 54.5951 7.16389 54.7322C7.16389 54.8008 7.0951 54.8465 7.07217 54.8922C7.02631 54.9379 7.00338 55.0065 7.02631 55.075C7.04924 55.0979 7.0951 55.1208 7.0951 55.1436C7.00338 55.5093 7.02631 55.7836 7.04924 56.0579C7.14096 56.1264 7.37026 56.1721 7.66835 56.2179C7.48491 56.7207 6.84287 57.315 6.04032 57.9321C5.65051 58.2521 4.87089 59.2577 5.74223 59.6692C6.52185 59.8749 8.03523 59.7834 8.65434 59.4634C9.25052 59.1435 9.13587 58.7092 9.29638 58.6406C9.4569 58.5721 10.5805 58.4121 10.5805 58.1835C10.6034 57.9321 10.718 57.6121 10.6263 57.4521C10.5346 57.315 10.6722 57.1321 10.6951 56.8807C10.718 56.7435 10.6722 56.5378 10.5805 56.3093C10.5805 56.3093 10.6034 56.3093 10.6034 56.2864C10.7868 55.7379 10.6951 55.1436 10.9015 54.5951C10.9932 54.3436 10.9015 54.1837 10.8786 53.9551C10.8556 53.7494 10.9244 53.4751 10.9473 53.2694C10.9932 52.7666 11.0391 52.2637 11.0849 51.7609C11.1537 50.9609 11.2225 50.1381 11.2225 49.3153C11.1996 47.6468 10.8327 43.944 10.9473 43.0298C11.0391 42.0927 10.9473 41.1327 11.1308 39.9442C11.1766 39.6242 11.2684 39.0299 11.383 38.3214C11.4747 38.1614 11.4977 37.6586 11.4977 37.5214C11.5435 37.1786 11.5894 36.8129 11.6582 36.4701C11.6582 36.4472 11.6582 36.4015 11.6582 36.3786C11.8875 34.8701 12.1168 33.4073 12.2544 32.973C12.2544 32.9502 12.2544 32.9502 12.2773 32.9273C12.3002 32.9045 12.3002 32.8816 12.3231 32.8588C12.5754 32.6759 13.7448 37.6814 13.997 39.4414C14.2493 41.247 14.8454 44.4926 15.0289 46.7325C15.2123 48.9724 15.9461 52.6294 16.1754 54.0922C16.1983 54.2294 16.2442 54.3665 16.2442 54.5036C16.2442 54.6179 16.2212 54.7322 16.2212 54.8236C16.2442 54.9151 16.313 54.9836 16.3359 55.075C16.3818 55.4636 16.5423 55.9207 16.6799 56.3093C16.7486 56.3321 16.7945 56.355 16.8633 56.355C16.7945 56.5836 16.8174 56.8121 16.8174 56.9493C16.8174 57.1092 16.9779 57.0407 16.8862 57.1092C16.7716 57.1778 16.7486 57.9092 16.8404 58.0235C16.9092 58.1378 17.276 58.3435 17.5283 58.4578C17.7805 58.5721 17.8493 58.7092 17.8493 58.9378C17.8493 59.1663 17.9181 59.212 18.4913 59.5777C19.0646 59.9434 20.5092 60.0349 20.7385 59.9891C20.9678 59.9663 21.3576 60.0349 21.4952 59.4634C21.6786 58.7092 20.3716 57.475 20.0047 57.0407C19.7754 56.7893 19.6837 56.4007 19.6608 56.1264C19.8442 56.0579 19.9588 56.035 20.0047 56.035C20.1423 56.035 20.0506 55.6236 20.0506 55.5779C20.0506 55.4865 20.0735 55.395 20.0506 55.3036C20.0276 55.1893 19.9359 55.0979 19.913 54.9608C19.913 54.8922 19.9359 54.8236 19.9359 54.7551C19.9588 54.6408 19.9818 54.5494 20.0047 54.4351C20.0276 54.3436 20.0506 54.2751 20.0276 54.1837C20.0276 54.0694 19.9359 54.0237 19.8901 53.9322C19.8671 53.818 19.8901 53.658 19.8901 53.5665C19.8901 53.2923 19.8901 53.018 19.913 52.7666C20.0047 50.3895 19.1563 42.1384 18.9499 40.8127C18.7436 39.4871 18.5601 36.4015 18.5143 33.1787C18.5143 32.6073 18.4684 31.9674 18.3996 31.2817C18.6289 31.1445 18.8353 30.9617 18.8811 30.916C18.9041 30.916 18.8582 30.916 18.8123 30.9388C18.9041 30.8931 18.9729 30.8474 18.9729 30.8246C18.9729 30.7331 18.9041 29.2932 18.7665 27.8075C18.6289 26.3219 18.3996 24.2419 18.4684 24.1048C18.606 24.082 20.8073 22.2306 21.4493 21.4535ZM14.2951 8.5397C14.3181 8.63112 14.341 8.79111 14.3181 8.95111C14.3181 8.83683 14.2951 8.67683 14.2951 8.5397ZM14.5703 8.51684C14.5703 8.49398 14.5703 8.51684 14.5703 8.51684V8.51684ZM10.7639 8.7454C10.718 8.7454 10.6722 8.81397 10.6493 8.92825C10.6722 8.76826 10.718 8.7454 10.7639 8.7454ZM6.38427 18.8936C6.56771 18.3222 6.8658 17.7508 6.79701 17.1565C6.8658 17.1794 6.88873 17.2708 6.88873 17.3394C6.91166 18.5736 6.95752 19.3507 6.88873 20.425C6.88873 20.5164 6.77408 20.5392 6.72822 20.4707C6.61357 20.3107 6.54478 20.1964 6.45306 19.9678C6.38427 19.785 6.10911 19.785 6.08618 19.5793C6.10911 19.3964 6.33841 19.0536 6.38427 18.8936ZM18.5601 31.2131C18.5143 31.236 18.4913 31.2588 18.4455 31.2817C18.4913 31.236 18.5143 31.2131 18.5601 31.2131ZM18.3767 20.5392C18.3079 20.6078 18.1932 20.5392 18.1932 20.4478C18.285 19.305 18.4684 18.9164 18.5372 17.6365C18.5372 17.5679 18.5601 17.4993 18.583 17.4308C18.606 17.3851 18.6748 17.4079 18.6748 17.4536C18.583 18.3222 18.7894 18.1165 18.9041 18.9393C18.9499 19.2136 18.9958 19.465 18.927 19.7393C18.8811 19.9221 18.6977 19.9907 18.6289 20.1507C18.5601 20.2421 18.4913 20.425 18.3767 20.5392Z" fill="#638CC2"/>
<path opacity="0.8" d="M34.9828 59.1282C34.9828 59.0618 34.9496 58.7629 34.7504 58.5969C34.5843 58.4309 33.8206 58.3645 33.389 58.0656C32.9573 57.7668 32.2268 56.8039 32.1272 56.4386C32.0276 56.0734 31.9944 55.9738 32.0276 55.7745C32.0608 55.5753 32.26 52.919 32.1936 52.3877C32.1604 51.8564 31.1311 46.0125 31.0315 44.8172C30.9319 43.6218 30.7326 41.3639 30.6662 37.9107C30.5998 34.4574 30.4338 33.1957 30.4006 32.0667C30.3674 30.9378 30.3674 30.8714 30.3674 30.8714C30.3674 30.8714 30.7659 30.8382 30.8987 30.7054C31.0315 30.5725 31.6292 29.0784 31.8948 28.3479C32.1272 27.6174 32.0276 27.2189 32.1272 26.6212C32.2268 26.0236 32.1604 25.3263 32.26 24.7286C32.3597 24.1309 32.3929 22.6699 32.3597 22.1387C32.3264 21.5742 32.1272 21.0097 32.1604 20.6777C32.1936 20.3789 31.9944 19.2499 31.9612 18.7851C31.928 18.3202 31.7288 16.826 31.5295 15.3982C31.3303 13.9704 31.1311 12.4763 30.8987 11.5797C30.6662 10.7164 30.6662 10.318 30.467 10.2184C30.2678 10.152 28.2423 9.32186 27.8771 9.08943C27.4786 8.857 27.047 8.857 26.9142 8.79059C26.7813 8.72418 26.0841 8.69098 25.9512 8.55816C25.8184 8.42534 25.0547 7.76126 24.8887 7.69485C24.8555 7.69485 24.8555 7.69485 24.8555 7.66165C24.8223 7.59524 24.7891 7.56203 24.7559 7.52883C24.6895 7.46242 24.5899 7.42922 24.4571 7.39601C24.5235 7.16358 24.7891 6.20066 25.0215 5.96823C25.0215 5.96823 25.1875 6.06784 25.42 5.86862C25.6524 5.66939 25.918 4.97211 25.918 4.47404C25.918 4.47404 25.8516 4.142 25.5528 4.30802C25.5528 4.30802 25.5196 3.97598 25.6524 3.80996C25.7852 3.61073 26.6153 0.82158 23.6934 0.0246789C22.5312 -0.274159 20.3729 0.0910871 20.4725 3.27869C20.4725 3.27869 20.1737 3.21228 20.0409 3.44471C19.9081 3.67714 19.9081 4.9389 20.3397 5.00531C20.3397 5.00531 20.5057 5.13813 20.6386 5.03851C20.6386 5.03851 20.7714 5.40376 20.7382 5.60298C20.705 5.83541 20.5722 6.16746 20.6386 6.43309C20.6718 6.59911 20.6718 6.86474 20.6718 7.03077C20.6718 7.03077 20.5722 7.16358 20.5057 7.36281C20.4725 7.39601 20.4061 7.42922 20.4061 7.42922C20.4061 7.42922 19.41 8.22612 19.2108 8.39214C19.0116 8.55816 18.7791 8.45855 18.3807 8.62457C17.9822 8.75738 16.2224 9.38826 15.8904 9.52108C15.5915 9.6539 15.1267 9.75351 14.9939 9.81992C14.861 9.91953 14.695 9.85312 14.6286 10.0523C14.5954 10.2516 14.2302 11.2477 14.1969 11.7458C14.1637 12.2438 14.2634 12.5427 14.1969 12.7419C14.1305 12.9743 13.7985 14.2361 13.7653 14.6345C13.7321 15.033 13.7321 15.5975 13.5993 15.9959C13.4665 16.3944 13.3668 17.1248 13.3668 17.5233C13.3668 17.9217 13.3668 18.3534 13.3004 18.6854C13.234 18.9843 13.068 20.1796 12.9684 20.7109C12.8688 21.2422 12.8356 21.873 12.8356 22.0723C12.8356 22.3047 12.6696 22.8028 12.6696 23.1016C12.6696 23.4004 12.4039 26.0568 12.3375 26.8205C12.2711 27.5842 12.0719 29.2444 12.1051 29.7424C12.1383 30.2405 12.1383 30.7718 12.1715 30.9046C12.1383 31.0706 12.2047 31.137 12.2711 31.2034L12.3375 31.5687C12.3375 31.5687 12.3707 31.5687 12.4039 31.5687C12.3707 31.8343 12.3043 32.1996 12.3043 32.2992C12.3043 32.5316 12.3043 32.7972 12.4371 32.9632C12.5699 33.1293 12.7028 33.4945 12.7692 33.7602C12.8024 34.0258 12.736 34.3578 12.8688 34.391C13.0016 34.4242 13.234 34.5238 13.3668 34.5238V34.5571C13.3668 34.6899 13.2672 34.8891 13.2672 34.8891C13.2672 34.8891 12.9684 34.9555 12.902 34.9555C12.8688 34.9555 12.8356 34.8559 12.7028 34.8559C12.5699 34.8559 12.5035 34.9887 12.4039 35.0219C12.3043 35.0551 11.8727 35.2543 11.8062 35.3872C11.773 35.52 11.9059 44.3191 12.0387 44.95C12.0387 44.95 12.0719 45.2156 12.2047 45.282C12.3043 45.3484 13.0016 45.9793 13.0016 45.9793H13.1676C13.1676 45.9793 13.1676 46.1785 13.3004 46.1785C13.4665 46.1785 13.4665 46.0125 13.4665 46.0125L14.861 45.9129C14.861 45.9129 14.8942 46.1453 14.9939 46.1121C15.0603 46.0789 15.1931 46.0125 15.2927 45.9461C15.2595 46.1785 15.2595 46.3778 15.2263 46.577C15.1931 46.9754 14.9939 48.4696 14.9939 48.7684C14.9939 49.0673 14.861 50.6943 14.8942 51.0927C14.9274 51.4912 15.1599 52.5537 15.2263 53.1514C15.2927 53.7491 15.4587 54.6788 15.4919 54.9444C15.5251 55.2101 15.5583 55.6085 15.4919 55.7413C15.4255 55.8741 15.3591 55.9406 15.2595 55.9406C15.1267 55.9406 14.7946 56.2726 14.7614 56.4386C14.7282 56.6046 14.695 56.9035 14.7614 57.1691C14.8278 57.468 14.9939 57.8996 14.9939 57.9992C14.9939 58.0988 14.861 58.1984 14.7614 58.2649C14.6618 58.3313 14.1969 58.4973 13.9645 58.4973C13.7321 58.4641 13.5661 58.4641 13.3336 58.6965C13.1012 58.9289 13.0348 59.1614 13.068 59.2942C13.1012 59.427 12.8688 59.5266 12.9352 59.6594C13.0016 59.7922 12.9352 59.9583 13.1676 59.9251C13.4 59.8919 19.2772 60.0579 19.7421 59.8587C19.7421 59.8587 19.6092 59.0618 19.576 58.8625C19.5428 58.6301 19.5428 58.2981 19.5428 58.2981C19.5428 58.2981 19.4764 58.1984 19.41 58.0656C19.3436 57.9328 19.3436 57.634 19.2772 57.5012C19.244 57.3683 19.1444 57.1691 19.1776 56.9699C19.2108 56.7707 19.7088 54.0479 19.7753 53.251C19.8417 52.4541 19.9081 48.0048 19.9081 47.4071C19.9081 46.8094 20.2069 44.5183 20.3065 43.9206C20.4061 43.323 20.7714 41.7624 20.871 41.2975C21.0038 40.7994 21.5019 39.8033 21.5683 39.4049C21.5683 39.4049 22.0331 37.4126 22.1992 36.6157C22.3652 35.8188 22.498 35.0219 22.6308 35.0551C22.7636 35.0883 22.9297 35.4868 23.0625 35.7524C23.1953 36.018 23.2949 36.4829 23.3945 36.8149C23.5273 37.1138 23.9922 38.8736 24.125 39.4381C24.2578 40.0025 24.4238 41.0651 24.6231 41.5299C24.8223 42.028 25.2207 42.7253 25.3204 43.2566C25.42 43.7878 25.586 44.3855 25.7852 44.9832C25.9844 45.5808 26.1173 45.7469 26.1837 46.0125C26.1505 46.3445 26.1837 46.6766 26.2833 46.9754C26.2833 47.0086 26.2833 47.0418 26.3165 47.075C26.3829 47.3407 26.5489 47.5399 26.5489 48.1708C26.5157 48.8017 26.7813 49.9638 26.8145 50.3623C26.8478 50.7607 27.1134 51.9561 27.2794 52.5869C27.4454 53.251 27.7775 53.7823 27.8439 54.38C27.9435 54.9444 28.1095 55.4425 28.1427 55.8409C28.1759 56.2394 27.9435 56.0402 27.9435 56.5714C27.9435 57.1359 28.1427 58.3313 28.1427 58.5305C28.1427 58.7629 28.3751 58.7297 28.3751 59.0618C28.3751 59.3938 28.3419 59.6594 28.3751 59.7922C28.4084 59.9251 29.0392 59.8255 29.1056 59.8255C29.172 59.8255 34.4515 59.759 34.5511 59.7258C34.6507 59.6926 35.2152 59.4602 35.1488 59.3274C35.2152 59.3606 34.9828 59.1946 34.9828 59.1282ZM13.7321 32.9632C13.5329 32.8968 13.5993 32.7972 13.5993 32.6976C13.5993 32.598 13.9645 32.598 14.0973 32.598C14.0973 32.598 14.0973 32.93 14.0973 33.0297C14.0973 33.0629 14.0973 33.0629 14.0641 33.0629C13.9977 33.0297 13.8649 32.9965 13.7321 32.9632ZM15.7908 39.9693C15.824 40.2682 15.5915 40.733 15.6579 41.2311C15.7243 41.7292 15.6247 42.0612 15.5915 42.5261C15.5915 42.7917 15.5583 43.489 15.4919 44.1531C15.4919 42.8913 15.4919 41.3307 15.4919 41.0983C15.4919 40.6666 15.3259 35.8188 15.3259 35.7192C15.3259 35.5864 15.0935 35.4204 14.9274 35.2543C14.7614 35.1215 14.6286 35.1547 14.6286 35.1547L14.529 35.0551C14.529 35.0551 14.0641 35.0551 14.0309 35.0551C13.9977 35.0219 14.0973 34.5903 14.1969 34.2582C14.2966 34.225 14.3962 34.1586 14.4294 34.1254C14.5954 34.0258 14.7282 34.391 14.9274 34.2914C15.0935 34.1918 14.9606 33.6937 14.9606 33.3617C14.9606 33.0297 15.0271 31.7679 14.9606 31.5355C14.9274 31.3694 14.861 31.1702 14.8278 31.0374C14.8942 30.971 14.9606 30.9046 14.9939 30.8382C14.9939 30.8382 15.0935 29.4104 15.0935 28.9787C15.0935 28.5471 15.3923 27.5178 15.4255 27.1193C15.4587 26.7873 15.5915 26.3556 15.6579 26.2228C15.6579 26.256 15.6579 26.2892 15.6579 26.2892C15.6247 26.6877 15.5583 27.8498 15.5251 28.2483C15.4919 28.7131 15.2927 29.9417 15.2595 30.3069C15.2263 30.639 15.1267 32.0667 15.1599 32.3988C15.1931 32.7308 15.1599 32.6644 15.1267 33.0297C15.0935 33.3949 14.9939 33.8598 15.0935 33.893C15.1599 33.9262 15.2595 34.059 15.3923 34.059C15.5251 34.059 15.4919 34.5903 15.5251 34.9555C15.5583 35.3207 15.5915 35.686 15.6911 35.9848C15.7908 36.2837 15.7243 36.6821 15.7575 37.0474C15.7908 37.4126 15.6911 38.1431 15.7908 38.5416C15.8904 38.9068 15.7575 39.6373 15.7908 39.9693Z" fill="#638CC2"/>
</g>
<defs>
<clipPath id="clip0">
<path d="M0.851501 0H59.8515V60H0.851501V0Z" fill="white"/>
</clipPath>
</defs>
</svg>
