<svg width="60" height="60" viewBox="0 0 60 60" fill="none" xmlns="http://www.w3.org/2000/svg">
<g clip-path="url(#clip0)">
<path opacity="0.5" d="M25.9221 20.0455C25.969 19.834 25.9924 19.599 25.969 19.4345C25.9456 19.2699 25.3367 12.7365 24.9619 11.0913C24.5872 9.44621 24.3296 9.86925 24.3296 9.86925C24.3296 9.86925 20.8167 8.78817 20.5356 8.52965C20.2546 8.27113 19.833 7.8716 19.7862 7.9656C19.7628 7.8481 19.7394 7.77759 19.7159 7.77759C19.7159 7.77759 19.7159 7.77759 19.6925 7.82459C19.6691 7.54257 19.7159 7.33106 19.7159 7.33106C19.8565 7.11954 20.1141 6.48499 20.1141 6.48499C20.4419 6.41449 20.4419 6.01496 20.7932 5.59193C21.1445 5.14539 21.0743 4.91038 21.0743 4.91038C21.6363 4.36984 21.5895 3.52377 21.5895 3.52377C21.3085 0.868075 19.0133 0.139521 17.5145 -0.00148983C16.0156 -0.1425 15.5004 1.43212 15.2896 2.06666C15.0554 2.70121 15.1491 4.29933 15.1491 4.29933C14.8212 4.36984 15.196 5.14539 15.2896 5.33341C15.3599 5.52142 15.3599 5.49792 15.3833 5.73294C15.4067 5.96796 15.7346 6.13247 15.7346 6.13247C15.7112 6.29698 15.8517 6.76701 15.8751 6.90803C15.8985 7.04904 15.8751 7.73059 15.8751 7.73059C15.8283 7.70709 15.7814 7.82459 15.7346 7.9656H15.7112C15.7112 7.9656 15.6643 7.98911 15.5004 8.22412C15.3365 8.45914 15.1257 8.69416 14.9852 8.76466C14.8447 8.83517 14.025 9.14069 13.58 9.3052C13.1584 9.46972 11.0975 10.1278 11.0273 10.1278C10.957 10.1043 10.9102 10.1043 10.8399 10.1513C10.7696 10.1983 10.5823 10.2688 10.2778 11.2794C9.97337 12.2664 9.15369 19.8575 9.06001 20.0455C8.98975 20.2335 8.84923 20.5155 8.87265 20.7036C8.89607 20.8916 8.77897 21.0326 8.87265 21.1971C8.94291 21.3616 8.87265 21.5731 8.98975 21.9256C9.10685 22.2782 9.69234 28.0831 10.1139 29.5872C10.1139 29.5872 10.231 29.5637 10.3949 29.5167C10.4418 29.7517 10.5823 30.2688 10.6525 30.2688C10.6994 30.2688 10.8399 30.2453 11.0507 30.1748C11.0741 30.3393 11.1678 30.7153 11.3083 30.9738C11.4722 31.2793 11.683 31.6789 11.9406 31.9139C11.8469 32.995 11.7767 33.9585 11.7298 34.3346C11.6362 35.4627 11.6596 42.4897 11.7298 42.9832C11.8001 43.4767 12.4324 48.4591 12.5027 48.9762C12.573 49.4932 13.4863 54.5461 13.6268 54.7106C13.7674 54.8751 13.7908 54.9456 13.6268 55.1336C13.4629 55.3216 13.3224 55.7682 13.4629 56.2617C13.58 56.7552 13.3926 57.1078 13.5097 57.0843C13.58 57.0608 13.6737 56.9668 13.8845 56.8963C13.861 56.9668 13.8376 57.0608 13.7439 57.2018C13.58 57.4838 12.9242 58.0008 12.4793 58.3534C12.0343 58.7059 11.3317 58.8939 11.0975 59.0584C10.8633 59.2229 10.957 59.5285 10.9102 59.5755C10.8633 59.6225 10.7228 59.74 11.0507 59.7635C11.3786 59.8105 13.1116 59.928 13.9547 59.9045C14.7978 59.881 15.196 59.5285 15.4067 59.3404C15.6175 59.1524 15.922 59.3639 16.2498 59.4109C16.5777 59.4579 17.8189 59.0349 17.8189 59.0349C17.8189 59.0349 17.7721 58.4944 17.7721 58.3769C17.7721 58.2594 17.7019 58.2594 17.7019 58.2594C17.7487 57.9773 17.7019 57.5073 17.6316 57.2488C17.5613 56.9903 17.1866 56.5437 17.1866 56.5437C17.1398 56.5437 17.0929 56.5672 17.0695 56.5672C17.0929 56.5437 17.1164 56.5202 17.1398 56.5202C17.1866 56.4732 17.21 56.4262 17.21 56.3792C17.2335 56.0972 17.2569 55.2511 17.21 54.9456C17.1398 54.5931 16.7651 53.9115 16.8119 53.606C16.8119 53.3475 16.5777 47.237 16.4606 46.0619C16.3435 44.9104 15.8751 43.9703 15.9454 43.6883C16.0156 43.4297 16.2498 42.0901 16.4138 41.5731C16.5777 41.0561 16.5074 40.4685 16.648 39.7165C16.7885 38.9644 17.9126 34.7341 17.9829 34.6401C18.0531 34.5461 18.545 36.9433 18.6855 38.9174C18.826 40.8916 18.7792 45.4274 18.8026 46.5085C18.826 47.5661 18.7089 52.0079 18.8026 52.5249C18.8026 52.6894 18.3108 54.2876 18.1468 55.1336C17.9829 56.0032 17.9126 56.1677 17.9595 56.4027C17.9829 56.6377 18.0531 57.0843 18.1234 57.0608C18.1468 57.0608 18.2639 56.9668 18.4513 56.9198C18.381 57.2958 18.2873 58.1653 18.545 58.4709C18.545 58.4709 18.4981 58.4709 18.4513 58.5414C18.4279 58.6119 18.4044 59.2229 18.4044 59.2699C18.4044 59.3169 18.4513 59.3639 18.4747 59.4579C18.5215 59.552 18.3342 59.787 18.5215 59.9045C18.7089 59.9985 21.2148 60.0455 21.6598 59.9515C22.1047 59.8575 22.1516 59.7635 22.1516 59.7165C22.1516 59.6695 22.1282 59.4579 22.0111 59.4109C22.0111 59.4109 22.0579 59.1054 21.7769 58.7529C21.5193 58.4004 21.0977 57.7188 21.0977 57.2958C21.0977 57.2488 21.0977 57.2018 21.0977 57.1548C21.1914 57.0373 21.3085 56.8727 21.4958 56.6142C21.8471 56.0972 21.8237 55.6507 21.9876 55.2981C22.1516 54.9456 22.2921 54.9221 22.2921 54.4286C22.2921 53.935 22.4326 53.747 22.456 53.3945C22.4795 53.042 22.7605 50.2688 22.8073 49.1642C22.8307 48.0596 22.8542 45.0044 22.901 44.1113C22.9244 43.2417 23.6504 36.4967 23.7675 35.2276C23.8846 33.9585 24.0486 33.1595 24.1423 32.0784C24.1423 31.9609 24.1423 31.8199 24.1423 31.6789C24.5404 30.9973 24.6106 30.3393 24.6106 30.1513C24.6575 30.1513 24.7043 30.1748 24.7512 30.1748C24.8683 30.1983 24.9619 30.1983 24.9854 30.1748C25.0322 30.1043 25.1025 29.5872 25.1259 29.3287H25.1493C25.6411 29.2582 25.7114 29.1407 25.7114 29.1407C25.7114 29.1407 25.8753 21.5966 25.9456 21.1501C26.0158 20.7036 26.1095 20.6095 26.0861 20.445C26.0627 20.2805 25.8519 20.2335 25.9221 20.0455ZM12.2919 21.5731C12.3153 21.4556 12.2685 21.4086 12.2919 21.2911C12.3153 21.1736 12.409 21.0796 12.4793 20.9621C12.5495 20.8211 12.4559 20.5625 12.4793 20.3275C12.5027 20.0925 12.5964 19.0114 12.5964 19.0584C12.573 19.2699 12.854 20.304 12.8071 20.5155C12.7603 20.7506 12.7369 20.7976 12.69 21.2676C12.6666 21.7376 12.6666 22.2782 12.5964 22.5837C12.5261 22.8892 12.3856 23.9703 12.3856 23.9703C12.3622 23.6648 12.1982 22.0197 12.2685 21.9021C12.3856 21.7611 12.2919 21.6906 12.2919 21.5731ZM15.7346 7.98911C15.7346 8.01261 15.7346 8.01261 15.7112 8.03611C15.7112 8.01261 15.7112 8.01261 15.7346 7.98911Z" fill="#638CC2"/>
<path opacity="0.5" d="M33.3442 26.9333C33.5812 27.2296 33.5812 27.437 33.7294 27.3778C33.7294 27.3778 33.7294 27.3778 33.759 27.3778C33.7294 27.7037 33.7294 28.0889 33.6998 28.3852C33.6405 28.7111 33.6109 28.9481 33.5812 29.2148C33.5516 29.4519 33.6405 29.7481 33.7294 29.9556C33.8183 30.163 33.9368 30.5778 34.2924 31.1704C34.2924 31.2889 34.2924 31.4074 34.322 31.4963C34.4701 31.9407 34.6775 32.2074 34.7961 32.5333C34.8849 32.8593 35.0924 33.6889 35.122 34.2222C35.1516 34.7556 35.2701 36.4148 35.2701 38.4593C35.2701 40.5037 35.1812 44.7407 35.2405 45.6C35.2998 46.4593 35.5368 47.2593 35.4775 47.8519C35.4183 48.4444 35.0331 49.3037 35.122 50.0741C35.1812 50.8444 35.5368 51.6148 35.5664 52.237C35.5961 52.8296 35.3886 53.6 35.2109 54.1037C35.0035 54.6074 34.9146 54.6074 34.9738 55.4667C35.0331 56.3259 35.2405 56.9778 35.2701 57.3037C35.2998 57.4815 35.2701 57.6 35.3294 57.6C35.2405 57.7481 34.9738 58.1037 34.6775 58.2222C34.322 58.3704 33.7886 58.4296 33.759 59.1407C33.6998 59.2296 33.5812 59.4074 33.7886 59.5556C34.3516 59.5852 35.5072 59.8222 36.4553 59.8222C37.3738 59.8222 37.6701 59.763 37.6701 59.6148C37.8775 59.7037 37.9368 59.7037 37.9368 59.7037C37.9368 59.7037 38.4405 59.6741 38.6183 59.6148C38.7961 59.5556 38.8257 59.437 38.7961 59.2889C38.7664 59.1407 38.7961 58.6074 38.7072 58.4296C38.7368 58.4 38.7368 58.3111 38.8257 58.0741C39.0035 57.6 39.4775 56.8593 39.5961 56.4148C39.7442 55.9704 39.7442 55.6741 39.5072 55.3185C39.2701 54.963 39.2701 54.7556 39.2701 54.2222C39.2701 53.6889 39.2405 52.6222 39.2701 51.8815C39.2998 51.1407 39.3294 49.6 39.359 48.5926C39.3886 47.5852 39.5072 46.3704 39.5961 45.5111C39.6849 44.6519 39.6849 42.9333 39.8924 42.2815C40.0998 41.6296 40.2183 40.8593 40.3664 40.237C40.5146 39.5852 40.3961 39.0815 40.6035 38.3111C40.7812 37.6296 40.722 37.3037 40.8109 36.7407C40.8405 36.5333 40.9294 36.237 40.9886 36C41.0183 35.9407 41.0183 35.8815 41.0479 35.8222C41.1368 35.5556 41.2257 35.3185 41.2257 34.9333C41.2553 34.4 41.4035 33.7778 41.5812 33.8667C41.8183 34.0741 41.9961 35.4963 41.9961 35.4963C41.9961 35.4963 41.9961 35.4667 41.9961 35.437C42.1146 36.2074 42.2035 37.1259 42.322 37.9259C42.4998 39.3778 42.2924 42.6074 42.559 43.7926C42.8257 45.0074 42.8553 46.7259 42.9442 47.7037C43.0331 48.6815 43.0331 51.3481 43.0627 52.4148C43.0924 53.4815 42.7664 54.7852 42.8257 55.5852C42.8849 56.3556 43.1516 57.037 43.1812 57.4519C43.2109 57.8963 43.1812 58.2815 43.1812 58.2815C43.1812 58.2815 43.2109 58.2815 43.2405 58.2815C43.1516 58.4296 43.0035 58.6667 43.0627 58.9926C43.0924 59.1407 43.0627 59.3185 43.1516 59.4074C43.2405 59.4963 44.5738 59.7037 44.5738 59.7037L45.522 59.5259C45.522 59.5259 45.5812 59.6444 45.6998 59.8222C45.8183 60 46.1146 60.0296 47.1812 60.0296C48.2775 60 49.6701 59.8519 50.1146 59.763C50.559 59.6741 50.6775 59.437 50.5887 59.2889C50.4998 59.1111 50.4998 58.9037 50.2924 58.7259C50.0849 58.5481 49.8183 58.4889 49.3738 58.4889C48.9887 58.4889 48.159 58.6667 47.4183 57.6296C47.4183 57.6296 47.3886 57.5704 47.3294 57.4815C47.2998 57.4519 47.2998 57.3926 47.2701 57.363C47.1812 56.6815 47.5961 56.6815 47.4775 56.2074C47.3886 55.7333 47.359 55.0815 47.1812 54.7259C47.0035 54.3704 47.2109 53.2444 47.2405 52.5037C47.2701 51.763 47.122 49.4519 47.1812 48.2074C47.2405 46.963 47.0035 44.9778 47.122 44C47.2109 43.0222 47.4775 39.7926 47.6553 37.6C47.8627 35.4074 47.7146 34.4296 48.3664 32.8889C48.5738 32.4148 48.959 31.8815 48.959 31.1704C48.959 31.2 48.959 31.2296 48.959 31.2296C48.959 31.2296 49.1072 30.9333 49.3738 30.1926C49.6405 29.4519 49.759 29.1556 49.7887 28.7407C49.8183 28.3259 49.8775 27.7037 50.0553 27.1407C50.1738 26.7556 50.2627 26.4 50.322 26.1333C50.3516 26.1333 50.4109 26.1333 50.4405 26.1333C50.559 26.1333 50.5887 26.1037 50.7072 25.9852C50.8849 25.837 51.0331 25.8074 51.1812 25.3037C51.3294 24.8296 51.6257 23.9704 51.4775 24.0593C51.3294 24.1481 51.0924 23.8519 51.0924 23.8519C51.0924 23.8519 51.0627 24.0593 51.0627 23.437C51.0924 22.8148 51.0924 21.6 51.0924 20.8296C51.122 20.0593 51.0627 18.5481 50.8257 16.563C50.559 14.5778 50.3516 12.8593 50.0553 12.1185C49.7887 11.4667 49.2849 10.9926 48.3961 10.5481V10.5185C48.0109 10.2519 45.5516 9.18519 45.1961 9.03704C45.0479 8.97778 45.0775 9.0963 45.0775 9.0963L44.8405 8.94815C44.6627 8.74074 44.5146 7.94074 44.3961 7.76296C44.2775 7.58519 44.0405 7.46667 44.0405 7.46667C44.0109 7.14074 44.0405 6.42963 44.1294 6.31111C44.2775 6.01481 44.4257 5.71852 44.5442 5.27407C44.6924 5.39259 44.9886 5.21481 45.1368 4.97778C45.2849 4.77037 45.4924 4.41481 45.4331 3.94074C45.3442 3.46667 45.0775 3.40741 45.0775 3.40741C45.1368 3.2 45.0775 2.66667 44.9294 2.22222C44.7812 1.80741 44.6924 1.48148 44.3368 1.03704C43.9812 0.622222 43.7442 0.503704 43.4775 0.355556C43.1812 0.207407 42.8849 0.0888889 42.6183 0.0296296C42.3812 0.0592593 42.1146 0 41.4924 0C40.8701 0.0296296 40.5146 0.414815 40.3368 0.622222C40.1886 0.82963 39.8627 1.00741 39.2998 1.86667C38.7368 2.72593 39.2701 3.85185 39.3294 4.32593C39.0924 4.53333 39.359 5.12593 39.3886 5.51111C39.4479 5.92593 39.6849 5.80741 39.8035 5.71852C40.0109 6.42963 40.2775 6.66667 40.3368 6.9037C40.3961 7.08148 40.3664 7.64444 40.3664 7.97037C40.2183 8 40.2183 8.23704 40.1886 8.5037C40.159 8.77037 40.0998 9.03704 39.9516 9.42222C39.9516 9.42222 39.0035 9.95556 38.3516 10.1926C37.6998 10.4593 36.5442 11.0519 36.4257 11.1704C36.4257 11.1704 36.4257 11.2 36.4257 11.2889H36.3961C36.3368 11.3185 36.159 11.3778 36.0405 11.4963C36.0109 11.5259 36.0109 11.5556 36.0109 11.5556C35.7442 11.763 35.5072 12.0296 35.2701 12.4741C34.7664 13.363 34.8849 14.0148 34.7664 15.0815C34.6479 16.1481 34.0257 19.437 33.7294 21.0963C33.4331 22.7556 33.4331 24.7407 33.4627 24.9778C33.4923 25.2148 33.5812 25.037 33.3738 25.1556C33.2257 25.3333 33.1961 25.4815 33.0479 25.4519C32.8998 25.4222 32.9294 25.6 32.9886 26.0444C33.0479 26.4889 33.1072 26.637 33.3442 26.9333ZM47.7442 25.2741C47.6553 24.6222 47.6257 23.3778 47.5368 22.4593C47.4479 21.5407 47.5368 21.3333 47.4479 21.037C47.3887 20.7111 47.359 20.6815 47.4775 20.3259C47.5961 19.9704 47.7442 19.7333 47.7146 19.1111C47.7146 19.0222 47.7146 18.8741 47.7146 18.7259C47.7442 18.7556 47.7442 18.8148 47.7442 18.8444C47.7738 19.1111 47.8035 19.1704 47.8331 19.3778C47.8627 19.5259 47.8627 19.7333 47.8627 19.9111C47.8627 20.0296 47.8627 20.1185 47.8627 20.237C47.8627 20.2963 47.8627 20.3259 47.8627 20.3556C47.8627 20.4741 47.8627 20.563 47.8627 20.6815C47.922 21.3926 47.922 21.7778 48.0701 22.1037C48.2183 22.4 48.159 22.9333 48.159 23.1407C48.1294 23.3481 48.2183 23.6444 48.1294 23.763C48.0701 23.8519 47.9516 23.7926 47.922 23.763C47.922 23.763 47.922 23.9111 47.9812 24.2963C48.0405 24.7111 48.0701 24.8 48.1294 25.0963C48.1887 25.3926 48.159 25.6889 48.1887 25.8667C48.1887 25.8963 48.1887 25.8963 48.2183 25.9259C48.2479 26.0148 48.4849 26.163 48.4849 26.163C48.4849 26.163 48.4849 26.1037 48.4553 25.9852C48.5146 26.5481 48.5738 27.5556 48.5442 27.7926C48.4849 28.1481 48.3368 28.4741 48.1294 28.6815C47.9812 28.8296 47.8924 28.9185 47.8924 28.9185C47.8924 28.9185 47.8924 28.9482 47.922 28.9778C47.8627 28.8889 47.8035 28.8296 47.7738 28.7407C47.4183 28.237 47.4775 27.7037 47.4775 27.4667C47.4775 27.3778 47.4479 27.2889 47.4183 27.2V27.1704C47.3887 27.0519 47.3294 26.9333 47.2998 26.8741C47.5368 26.8444 47.7738 26.8444 47.8331 26.7259C47.9516 26.5185 47.8331 25.9556 47.7442 25.2741ZM40.3961 7.97037C40.3961 8 40.3961 8.02963 40.3961 8.02963C40.3664 8 40.3664 8 40.3961 7.97037ZM36.3072 24.9481C36.3664 24.6222 36.5738 23.2296 36.6035 22.9037C36.6331 22.5778 36.5146 22.5481 36.6331 22.1333C36.7516 21.7481 36.8998 21.8667 36.8998 21.4222C36.8998 20.9778 37.1072 20.9185 37.0183 20.6519V20.6222C37.0183 20.5926 37.0183 20.563 36.9886 20.5037C37.0479 20.6815 37.1368 20.7407 37.1368 20.9778C37.1664 21.2741 37.0775 21.3926 37.0775 21.6593C37.0479 21.8963 37.1368 22.0741 37.0479 22.2815C36.959 22.4889 36.8405 22.5778 36.7516 22.963C36.6627 23.3185 36.3961 25.0963 36.3664 25.4519C36.3664 25.6593 36.3072 25.9259 36.2479 26.1333C36.2775 25.837 36.3072 25.5407 36.3072 25.4519C36.3072 25.2741 36.2479 25.2444 36.3072 24.9481ZM35.2701 27.2296L35.2405 27.3778C35.2405 27.3778 35.5961 27.4074 35.8035 27.3185C35.8331 27.3185 35.8331 27.3185 35.8331 27.2889C35.8331 27.2889 35.8627 27.2889 35.8627 27.2593C36.0405 27.1111 36.0109 26.8444 36.0998 26.6667C36.1294 26.637 36.1294 26.5481 36.159 26.4593C36.2183 26.4889 36.3368 26.5481 36.4849 26.5778C36.4849 26.6074 36.4553 26.637 36.4553 26.6963C36.4553 26.7852 36.4257 26.8444 36.4257 26.9037C36.3368 27.2593 36.1886 27.7926 35.922 28.237C35.7738 28.4741 35.5072 28.7407 35.2109 29.0667C35.1516 29.0074 35.0924 28.8296 35.0627 28.5926C35.0627 28.237 35.2701 27.2296 35.2701 27.2296Z" fill="#638CC2"/>
<path d="M37.2822 59.1282C37.2822 59.0618 37.249 58.7629 37.0498 58.5969C36.8837 58.4309 36.12 58.3645 35.6884 58.0656C35.2567 57.7668 34.5262 56.8039 34.4266 56.4386C34.327 56.0734 34.2938 55.9738 34.327 55.7745C34.3602 55.5753 34.5594 52.919 34.493 52.3877C34.4598 51.8564 33.4305 46.0125 33.3309 44.8172C33.2313 43.6218 33.0321 41.3639 32.9656 37.9107C32.8992 34.4574 32.7332 33.1957 32.7 32.0667C32.6668 30.9378 32.6668 30.8714 32.6668 30.8714C32.6668 30.8714 33.0653 30.8382 33.1981 30.7054C33.3309 30.5725 33.9286 29.0784 34.1942 28.3479C34.4266 27.6174 34.327 27.2189 34.4266 26.6212C34.5262 26.0236 34.4598 25.3263 34.5594 24.7286C34.6591 24.1309 34.6923 22.6699 34.6591 22.1387C34.6259 21.5742 34.4266 21.0097 34.4598 20.6777C34.493 20.3789 34.2938 19.2499 34.2606 18.7851C34.2274 18.3202 34.0282 16.826 33.829 15.3982C33.6297 13.9704 33.4305 12.4763 33.1981 11.5797C32.9656 10.7164 32.9656 10.318 32.7664 10.2184C32.5672 10.152 30.5417 9.32186 30.1765 9.08943C29.778 8.857 29.3464 8.857 29.2136 8.79059C29.0808 8.72418 28.3835 8.69098 28.2506 8.55816C28.1178 8.42534 27.3541 7.76126 27.1881 7.69485C27.1549 7.69485 27.1549 7.69485 27.1549 7.66165C27.1217 7.59524 27.0885 7.56203 27.0553 7.52883C26.9889 7.46242 26.8893 7.42922 26.7565 7.39601C26.8229 7.16358 27.0885 6.20066 27.3209 5.96823C27.3209 5.96823 27.487 6.06784 27.7194 5.86862C27.9518 5.66939 28.2174 4.97211 28.2174 4.47404C28.2174 4.47404 28.151 4.142 27.8522 4.30802C27.8522 4.30802 27.819 3.97598 27.9518 3.80996C28.0846 3.61073 28.9147 0.82158 25.9928 0.0246789C24.8306 -0.274159 22.6723 0.0910871 22.772 3.27869C22.772 3.27869 22.4731 3.21228 22.3403 3.44471C22.2075 3.67714 22.2075 4.9389 22.6391 5.00531C22.6391 5.00531 22.8052 5.13813 22.938 5.03851C22.938 5.03851 23.0708 5.40376 23.0376 5.60298C23.0044 5.83541 22.8716 6.16746 22.938 6.43309C22.9712 6.59911 22.9712 6.86474 22.9712 7.03077C22.9712 7.03077 22.8716 7.16358 22.8052 7.36281C22.772 7.39601 22.7055 7.42922 22.7055 7.42922C22.7055 7.42922 21.7094 8.22612 21.5102 8.39214C21.311 8.55816 21.0785 8.45855 20.6801 8.62457C20.2816 8.75738 18.5218 9.38826 18.1898 9.52108C17.8909 9.6539 17.4261 9.75351 17.2933 9.81992C17.1604 9.91953 16.9944 9.85312 16.928 10.0523C16.8948 10.2516 16.5296 11.2477 16.4964 11.7458C16.4632 12.2438 16.5628 12.5427 16.4964 12.7419C16.4299 12.9743 16.0979 14.2361 16.0647 14.6345C16.0315 15.033 16.0315 15.5975 15.8987 15.9959C15.7659 16.3944 15.6663 17.1248 15.6663 17.5233C15.6663 17.9217 15.6663 18.3534 15.5998 18.6854C15.5334 18.9843 15.3674 20.1796 15.2678 20.7109C15.1682 21.2422 15.135 21.873 15.135 22.0723C15.135 22.3047 14.969 22.8028 14.969 23.1016C14.969 23.4004 14.7033 26.0568 14.6369 26.8205C14.5705 27.5842 14.3713 29.2444 14.4045 29.7424C14.4377 30.2405 14.4377 30.7718 14.4709 30.9046C14.4377 31.0706 14.5041 31.137 14.5705 31.2034L14.6369 31.5687C14.6369 31.5687 14.6701 31.5687 14.7033 31.5687C14.6701 31.8343 14.6037 32.1996 14.6037 32.2992C14.6037 32.5316 14.6037 32.7972 14.7365 32.9632C14.8694 33.1293 15.0022 33.4945 15.0686 33.7602C15.1018 34.0258 15.0354 34.3578 15.1682 34.391C15.301 34.4242 15.5334 34.5238 15.6663 34.5238V34.5571C15.6663 34.6899 15.5666 34.8891 15.5666 34.8891C15.5666 34.8891 15.2678 34.9555 15.2014 34.9555C15.1682 34.9555 15.135 34.8559 15.0022 34.8559C14.8694 34.8559 14.8029 34.9887 14.7033 35.0219C14.6037 35.0551 14.1721 35.2543 14.1057 35.3872C14.0725 35.52 14.2053 44.3191 14.3381 44.95C14.3381 44.95 14.3713 45.2156 14.5041 45.282C14.6037 45.3484 15.301 45.9793 15.301 45.9793H15.467C15.467 45.9793 15.467 46.1785 15.5998 46.1785C15.7659 46.1785 15.7659 46.0125 15.7659 46.0125L17.1604 45.9129C17.1604 45.9129 17.1936 46.1453 17.2933 46.1121C17.3597 46.0789 17.4925 46.0125 17.5921 45.9461C17.5589 46.1785 17.5589 46.3778 17.5257 46.577C17.4925 46.9754 17.2933 48.4696 17.2933 48.7684C17.2933 49.0673 17.1604 50.6943 17.1936 51.0927C17.2269 51.4912 17.4593 52.5537 17.5257 53.1514C17.5921 53.7491 17.7581 54.6788 17.7913 54.9444C17.8245 55.2101 17.8577 55.6085 17.7913 55.7413C17.7249 55.8741 17.6585 55.9406 17.5589 55.9406C17.4261 55.9406 17.094 56.2726 17.0608 56.4386C17.0276 56.6046 16.9944 56.9035 17.0608 57.1691C17.1272 57.468 17.2933 57.8996 17.2933 57.9992C17.2933 58.0988 17.1604 58.1984 17.0608 58.2649C16.9612 58.3313 16.4964 58.4973 16.2639 58.4973C16.0315 58.4641 15.8655 58.4641 15.633 58.6965C15.4006 58.9289 15.3342 59.1614 15.3674 59.2942C15.4006 59.427 15.1682 59.5266 15.2346 59.6594C15.301 59.7922 15.2346 59.9583 15.467 59.9251C15.6995 59.8919 21.5766 60.0579 22.0415 59.8587C22.0415 59.8587 21.9086 59.0618 21.8754 58.8625C21.8422 58.6301 21.8422 58.2981 21.8422 58.2981C21.8422 58.2981 21.7758 58.1984 21.7094 58.0656C21.643 57.9328 21.643 57.634 21.5766 57.5012C21.5434 57.3683 21.4438 57.1691 21.477 56.9699C21.5102 56.7707 22.0083 54.0479 22.0747 53.251C22.1411 52.4541 22.2075 48.0048 22.2075 47.4071C22.2075 46.8094 22.5063 44.5183 22.6059 43.9206C22.7055 43.323 23.0708 41.7624 23.1704 41.2975C23.3032 40.7994 23.8013 39.8033 23.8677 39.4049C23.8677 39.4049 24.3326 37.4126 24.4986 36.6157C24.6646 35.8188 24.7974 35.0219 24.9302 35.0551C25.063 35.0883 25.2291 35.4868 25.3619 35.7524C25.4947 36.018 25.5943 36.4829 25.6939 36.8149C25.8267 37.1138 26.2916 38.8736 26.4244 39.4381C26.5572 40.0025 26.7233 41.0651 26.9225 41.5299C27.1217 42.028 27.5202 42.7253 27.6198 43.2566C27.7194 43.7878 27.8854 44.3855 28.0846 44.9832C28.2839 45.5808 28.4167 45.7469 28.4831 46.0125C28.4499 46.3445 28.4831 46.6766 28.5827 46.9754C28.5827 47.0086 28.5827 47.0418 28.6159 47.075C28.6823 47.3407 28.8483 47.5399 28.8483 48.1708C28.8151 48.8017 29.0808 49.9638 29.114 50.3623C29.1472 50.7607 29.4128 51.9561 29.5788 52.5869C29.7448 53.251 30.0769 53.7823 30.1433 54.38C30.2429 54.9444 30.4089 55.4425 30.4421 55.8409C30.4753 56.2394 30.2429 56.0402 30.2429 56.5714C30.2429 57.1359 30.4421 58.3313 30.4421 58.5305C30.4421 58.7629 30.6746 58.7297 30.6746 59.0618C30.6746 59.3938 30.6414 59.6594 30.6746 59.7922C30.7078 59.9251 31.3386 59.8255 31.405 59.8255C31.4715 59.8255 36.7509 59.759 36.8505 59.7258C36.9502 59.6926 37.5146 59.4602 37.4482 59.3274C37.5146 59.3606 37.2822 59.1946 37.2822 59.1282ZM16.0315 32.9632C15.8323 32.8968 15.8987 32.7972 15.8987 32.6976C15.8987 32.598 16.2639 32.598 16.3967 32.598C16.3967 32.598 16.3967 32.93 16.3967 33.0297C16.3967 33.0629 16.3967 33.0629 16.3635 33.0629C16.2971 33.0297 16.1643 32.9965 16.0315 32.9632ZM18.0902 39.9693C18.1234 40.2682 17.8909 40.733 17.9573 41.2311C18.0238 41.7292 17.9241 42.0612 17.8909 42.5261C17.8909 42.7917 17.8577 43.489 17.7913 44.1531C17.7913 42.8913 17.7913 41.3307 17.7913 41.0983C17.7913 40.6666 17.6253 35.8188 17.6253 35.7192C17.6253 35.5864 17.3929 35.4204 17.2269 35.2543C17.0608 35.1215 16.928 35.1547 16.928 35.1547L16.8284 35.0551C16.8284 35.0551 16.3635 35.0551 16.3303 35.0551C16.2971 35.0219 16.3967 34.5903 16.4964 34.2582C16.596 34.225 16.6956 34.1586 16.7288 34.1254C16.8948 34.0258 17.0276 34.391 17.2269 34.2914C17.3929 34.1918 17.2601 33.6937 17.2601 33.3617C17.2601 33.0297 17.3265 31.7679 17.2601 31.5355C17.2269 31.3694 17.1604 31.1702 17.1272 31.0374C17.1936 30.971 17.2601 30.9046 17.2933 30.8382C17.2933 30.8382 17.3929 29.4104 17.3929 28.9787C17.3929 28.5471 17.6917 27.5178 17.7249 27.1193C17.7581 26.7873 17.8909 26.3556 17.9573 26.2228C17.9573 26.256 17.9573 26.2892 17.9573 26.2892C17.9241 26.6877 17.8577 27.8498 17.8245 28.2483C17.7913 28.7131 17.5921 29.9417 17.5589 30.3069C17.5257 30.639 17.4261 32.0667 17.4593 32.3988C17.4925 32.7308 17.4593 32.6644 17.4261 33.0297C17.3929 33.3949 17.2933 33.8598 17.3929 33.893C17.4593 33.9262 17.5589 34.059 17.6917 34.059C17.8245 34.059 17.7913 34.5903 17.8245 34.9555C17.8577 35.3207 17.8909 35.686 17.9905 35.9848C18.0902 36.2837 18.0238 36.6821 18.057 37.0474C18.0902 37.4126 17.9905 38.1431 18.0902 38.5416C18.1898 38.9068 18.057 39.6373 18.0902 39.9693Z" fill="#81A1CD"/>
<path d="M42.1471 17.7208C42.1066 17.9231 42.1066 18.085 42.1875 18.2872C42.2685 18.4491 42.3089 18.6514 42.3089 18.8537C42.3089 19.4201 42.4303 19.9865 42.5112 20.5529C42.5517 20.7552 42.5517 20.9575 42.5921 21.1193C42.6326 21.3216 42.754 21.5239 42.9563 21.6453C43.1586 21.7667 43.3204 21.9285 43.6036 21.969C43.725 21.969 43.8463 22.0094 43.9677 21.969C44.0082 21.969 44.0486 21.9285 44.0891 21.969C44.3723 22.0499 44.696 22.0499 44.9387 22.2117C44.8983 22.7377 44.7769 23.2636 44.6151 23.7491C44.4937 24.0728 44.4532 24.4369 44.3723 24.7606C44.3723 24.8011 44.3723 24.882 44.3723 24.9629C44.3723 24.9629 44.5341 25.0438 44.5341 25.0843C44.696 25.2057 44.6555 25.4079 44.6151 25.5698C44.5341 25.6507 44.5341 25.7721 44.4937 25.853C44.4532 26.0957 44.4532 26.298 44.3723 26.5408C44.3318 26.7026 44.3723 26.9049 44.3723 27.0667C44.3318 27.5522 44.2914 28.0378 44.2509 28.5637C44.2509 28.5637 44.2509 28.5637 44.2509 28.6042C44.2509 29.4133 44.17 30.1821 44.2105 30.9912C44.2509 31.6386 44.2914 32.2859 44.3318 32.9332C44.3318 33.4187 44.4128 33.9042 44.4532 34.4302C44.5341 35.0371 44.6151 35.6844 44.696 36.2913C44.7364 36.6959 44.7769 37.06 44.8174 37.4646C44.8578 37.8287 44.9387 38.1928 44.9792 38.5974C45.0196 38.8806 45.0196 39.1234 45.0601 39.4066C45.1006 39.7707 45.141 40.1348 45.1815 40.4585C45.1815 40.5799 45.1815 40.6608 45.1815 40.7822C45.1815 40.944 45.2624 41.0654 45.3838 41.1463C45.5051 41.2272 45.667 41.2677 45.8288 41.3486C45.9906 41.7532 46.1525 42.1578 46.3143 42.6028C46.3548 42.6433 46.3143 42.7242 46.3548 42.7647C46.5166 43.0479 46.5166 43.3715 46.5975 43.6952C46.6784 44.1402 46.7594 44.6257 46.8807 45.1112C47.1235 46.0823 47.4472 46.9723 47.8113 47.9029C48.054 48.4693 48.2563 49.0357 48.4586 49.6426C48.7014 50.3304 48.9441 51.0587 49.1869 51.7464C49.2273 51.9083 49.2678 52.1106 49.3082 52.3129C49.3487 52.8388 49.4701 53.4052 49.2678 53.9312C49.1869 54.174 49.0655 54.4167 48.9846 54.6595C48.7823 55.2259 48.6609 55.7923 48.2563 56.2373C48.054 56.4396 47.9731 56.6419 47.7304 56.8038C47.2853 57.087 46.7998 57.3297 46.2739 57.4511C45.9906 57.532 45.8693 57.8152 46.1525 58.0175C46.2739 58.0984 46.3548 58.1793 46.4762 58.2603C46.5975 58.3412 46.7189 58.3816 46.8403 58.3816C47.1235 58.4221 47.3662 58.3412 47.6494 58.3412C47.8922 58.3412 48.1349 58.3007 48.3777 58.2603C48.7823 58.2198 49.2273 58.1389 49.6319 58.0984C49.6724 58.0984 49.7128 58.0984 49.7937 58.0984C50.077 58.0984 50.3197 58.058 50.6029 57.8557C50.6029 58.0175 50.6029 58.1389 50.6029 58.2603C50.6029 58.6244 50.6838 58.9885 50.8457 59.2717C51.0075 59.5549 51.2098 59.7977 51.5335 59.8786C51.5335 59.8786 51.5335 59.8786 51.5739 59.8786C51.938 60.1618 52.2213 59.9595 52.5045 59.7572C52.7068 59.5954 52.8686 59.3931 53.0304 59.1908C53.3136 58.8267 53.3541 58.4221 53.3136 57.9771C53.2732 57.5725 53.1923 57.1679 53.1518 56.7228C53.1113 56.561 53.1113 56.3992 53.1113 56.2373C53.0709 55.9541 53.0304 55.6305 52.99 55.3473C52.9091 55.064 52.8686 54.7404 52.9091 54.4572C52.9495 54.2549 52.9495 54.0526 52.9091 53.8098C52.8686 53.2839 52.99 52.7984 53.1518 52.2724C53.2732 51.8678 53.435 51.4632 53.5564 51.0182C53.8396 50.0876 54.0824 49.1166 54.3251 48.1861C54.5679 47.2556 54.7297 46.2845 54.932 45.3135C54.9724 45.0708 54.9724 44.828 55.0129 44.5853C55.0534 43.9784 55.0534 43.412 55.0534 42.8051C55.0534 42.441 54.9724 42.0769 54.9724 41.7127C54.9724 41.5509 54.9724 41.3486 54.9724 41.1463C55.0938 41.1059 55.2152 41.0249 55.377 40.9845C55.5389 40.944 55.6602 40.8226 55.7411 40.7013C55.9434 40.4181 55.9839 40.0944 55.9839 39.7707C55.9839 39.3257 55.9839 38.9211 55.9839 38.4761C56.0244 37.9905 56.0648 37.4646 56.1053 36.9791C56.1457 36.534 56.1862 36.1295 56.2267 35.6844C56.2671 35.3203 56.348 34.9562 56.3885 34.5516C56.4289 34.3493 56.4289 34.1874 56.4694 33.9852C56.5099 33.6615 56.5099 33.3378 56.5503 33.0546C56.6312 32.1241 56.5503 31.234 56.6312 30.3034C56.6717 29.7775 56.6717 29.2515 56.6717 28.766C56.6717 28.24 56.5908 27.7141 56.5503 27.1881C56.5503 26.6217 56.4289 26.0553 56.2671 25.5293C56.2671 25.4484 56.2671 25.3675 56.3076 25.2866C56.3076 25.2057 56.3885 25.0843 56.348 25.0034C56.2671 24.5988 56.1862 24.1942 55.9434 23.8301C55.7816 23.5873 55.7007 23.3446 55.7007 23.0613C55.7007 22.8186 55.6198 22.5758 55.5389 22.2926C55.4579 22.0094 55.4579 21.6858 55.3366 21.4026C55.2961 21.3216 55.2556 21.2003 55.2556 21.1193C55.2556 21.0789 55.2556 21.0384 55.2556 20.998C55.2556 20.9575 55.2961 20.917 55.2961 20.8766C55.2961 20.7957 55.2961 20.7552 55.2961 20.6743C55.2556 20.3911 55.3366 20.1483 55.4984 19.946C55.9434 19.4201 56.2671 18.8537 56.5503 18.2468C56.7931 17.6804 56.9954 17.1139 57.2381 16.5475C57.4404 16.0216 57.5213 15.4147 57.5213 14.8483C57.5213 14.4437 57.5213 14.0391 57.5213 13.6345C57.5213 13.2704 57.5618 12.9467 57.5618 12.5826C57.5618 12.2185 57.5213 11.8948 57.4404 11.5711C57.319 11.1665 57.1167 10.762 56.9549 10.3574C56.8335 10.1146 56.6717 9.99325 56.3885 9.95279C56.1053 9.95279 55.8625 9.87187 55.5793 9.83141C55.6198 9.66958 55.6602 9.50774 55.7007 9.34591C55.4984 9.46729 55.3366 9.58866 55.0938 9.5482C54.8915 9.50774 54.7297 9.42683 54.5679 9.30545C54.5679 9.22453 54.6083 9.14362 54.6083 9.0627C54.5274 8.98178 54.4869 8.90087 54.406 8.81995C54.5274 8.61766 54.4869 8.33445 54.6892 8.21307C54.6083 8.01078 54.5679 7.8894 54.7297 7.72757C54.8106 7.72757 54.8511 7.68711 54.9724 7.68711C54.8511 7.52528 54.7297 7.4039 54.6083 7.28252V7.24207C54.6488 7.24207 54.6488 7.28252 54.6892 7.28252C54.7297 7.28252 54.7297 7.32298 54.7701 7.32298C54.7701 7.28252 54.7701 7.28252 54.7701 7.28252C54.6488 7.03977 54.5274 6.83748 54.406 6.59473C54.3656 6.55427 54.406 6.51381 54.406 6.4329C54.406 5.98785 54.406 5.58327 54.406 5.13822C54.406 5.01685 54.4465 4.89547 54.4465 4.7741C54.406 4.00538 54.406 3.23667 54.1228 2.50842C53.961 2.02292 53.6778 1.57787 53.435 1.17329C53.3946 1.09237 53.3136 1.01145 53.2732 0.930536C53.0709 0.566409 52.7472 0.364116 52.3831 0.161824C52.1808 0.0404481 51.9785 0.0404481 51.7762 0.121365C51.6548 0.202282 51.5335 0.161824 51.493 0.0809067C51.3312 -0.161845 51.0884 -0.121386 50.8861 -0.0809275C49.996 0.121365 49.2273 0.485492 48.58 1.17329C48.0136 1.73971 47.5685 2.38704 47.3258 3.19621C47.1235 3.88401 46.9212 4.5718 46.9617 5.34052C46.9617 5.46189 46.9617 5.54281 46.9617 5.66418C46.9617 5.70464 47.0021 5.78556 47.0021 5.86648C46.9617 5.94739 46.9212 6.06877 46.8403 6.19014C46.8807 6.19014 46.8807 6.2306 46.9212 6.2306C46.8403 6.59473 46.638 6.87794 46.4357 7.20161C46.638 7.32298 46.6784 7.12069 46.7998 7.08023C46.8403 7.08023 46.8403 7.12069 46.8807 7.12069C46.9212 7.08023 46.9212 7.03977 47.0021 6.99931C47.0426 7.03977 47.0426 7.08023 47.0426 7.08023C47.0426 7.20161 46.9212 7.28253 47.083 7.36344C47.0426 7.48482 46.9617 7.56573 46.8807 7.72757C47.1235 7.56573 47.2044 7.4039 47.3258 7.16115C47.3662 7.28252 47.3662 7.32298 47.3662 7.36344C47.3662 7.64665 47.2853 7.8894 47.083 8.13215C46.9617 8.25353 46.8807 8.37491 46.7189 8.53674C46.9212 8.53674 47.083 8.61766 47.2853 8.5772C47.2044 8.65812 47.083 8.77949 47.0021 8.86041C46.9212 8.98178 46.7998 9.02224 46.7998 9.22453C46.5571 9.34591 46.3143 9.46729 46.0716 9.58866C46.1929 9.58866 46.3548 9.58866 46.5166 9.62912C46.4762 9.71004 46.4357 9.75049 46.3952 9.79095C46.1525 9.95279 45.9097 10.1146 45.7074 10.236C45.3029 10.3169 44.9792 10.3978 44.6151 10.4787C44.5746 10.4787 44.5341 10.5192 44.4532 10.5192C44.2509 10.5192 44.0891 10.6001 44.0082 10.8024C43.6036 11.5711 43.2395 12.3803 43.1181 13.2299C43.0372 13.7963 42.8753 14.3628 42.7944 14.9292C42.673 15.5765 42.5517 16.2239 42.4303 16.8712C42.2685 17.2353 42.228 17.4781 42.1471 17.7208ZM49.8747 41.9959C50.1983 41.9959 50.5625 41.9959 50.8457 41.9959C50.967 42.0769 51.048 42.1578 51.1289 42.2387C51.1289 42.8051 51.1289 43.3311 51.1289 43.857C51.1289 43.8975 51.1289 43.9784 51.0884 44.0189C50.967 44.1402 51.0075 44.3021 51.0075 44.4639C51.0075 45.6372 51.0075 46.851 51.0075 48.0243C51.0075 48.1052 51.0075 48.1861 51.0075 48.267C50.9266 48.2266 50.9266 48.1456 50.9266 48.1052C50.9266 47.9433 50.9266 47.822 50.9266 47.6601C50.9266 47.5792 50.9266 47.4983 50.8861 47.4174C50.8052 47.296 50.8052 47.1746 50.8052 47.0937C50.8052 46.9723 50.8052 46.8105 50.8052 46.6487C50.6029 46.4464 50.6434 46.4464 50.6434 46.2036C50.6838 45.9204 50.7648 45.5968 50.6838 45.3135C50.6029 45.0303 50.6434 44.828 50.6838 44.5448C50.6838 44.5044 50.6838 44.4235 50.6838 44.383C50.6029 44.0593 50.522 43.7357 50.4411 43.4524C50.4006 43.2906 50.3197 43.0883 50.2388 42.9265C50.1174 42.6837 49.996 42.4814 49.9151 42.2387C49.8342 42.1578 49.8342 42.0769 49.8747 41.9959Z" fill="#638CC2"/>
<path d="M41.566 20.0455C41.6129 19.834 41.6363 19.599 41.6129 19.4345C41.5895 19.2699 40.9805 12.7365 40.6058 11.0913C40.2311 9.44621 39.9735 9.86925 39.9735 9.86925C39.9735 9.86925 36.4606 8.78817 36.1795 8.52965C35.8985 8.27113 35.4769 7.8716 35.4301 7.9656C35.4067 7.8481 35.3832 7.77759 35.3598 7.77759C35.3598 7.77759 35.3598 7.77759 35.3364 7.82459C35.313 7.54257 35.3598 7.33106 35.3598 7.33106C35.5003 7.11954 35.758 6.48499 35.758 6.48499C36.0858 6.41449 36.0858 6.01496 36.4371 5.59193C36.7884 5.14539 36.7182 4.91038 36.7182 4.91038C37.2802 4.36984 37.2334 3.52377 37.2334 3.52377C36.9524 0.868075 34.6572 0.139521 33.1584 -0.00148983C31.6595 -0.1425 31.1443 1.43212 30.9335 2.06666C30.6993 2.70121 30.793 4.29933 30.793 4.29933C30.4651 4.36984 30.8398 5.14539 30.9335 5.33341C31.0038 5.52142 31.0038 5.49792 31.0272 5.73294C31.0506 5.96796 31.3785 6.13247 31.3785 6.13247C31.3551 6.29698 31.4956 6.76701 31.519 6.90803C31.5424 7.04904 31.519 7.73059 31.519 7.73059C31.4722 7.70709 31.4253 7.82459 31.3785 7.9656H31.3551C31.3551 7.9656 31.3082 7.98911 31.1443 8.22412C30.9804 8.45914 30.7696 8.69416 30.6291 8.76466C30.4885 8.83517 29.6689 9.14069 29.2239 9.3052C28.8023 9.46972 26.7414 10.1278 26.6711 10.1278C26.6009 10.1043 26.554 10.1043 26.4838 10.1513C26.4135 10.1983 26.2262 10.2688 25.9217 11.2794C25.6173 12.2664 24.7976 19.8575 24.7039 20.0455C24.6336 20.2335 24.4931 20.5155 24.5165 20.7036C24.54 20.8916 24.4229 21.0326 24.5165 21.1971C24.5868 21.3616 24.5165 21.5731 24.6336 21.9256C24.7507 22.2782 25.3362 28.0831 25.7578 29.5872C25.7578 29.5872 25.8749 29.5637 26.0388 29.5167C26.0857 29.7517 26.2262 30.2688 26.2964 30.2688C26.3433 30.2688 26.4838 30.2453 26.6946 30.1748C26.718 30.3393 26.8117 30.7153 26.9522 30.9738C27.1161 31.2793 27.3269 31.6789 27.5845 31.9139C27.4908 32.995 27.4206 33.9585 27.3737 34.3346C27.2801 35.4627 27.3035 42.4897 27.3737 42.9832C27.444 43.4767 28.0763 48.4591 28.1466 48.9762C28.2168 49.4932 29.1302 54.5461 29.2707 54.7106C29.4112 54.8751 29.4347 54.9456 29.2707 55.1336C29.1068 55.3216 28.9663 55.7682 29.1068 56.2617C29.2239 56.7552 29.0365 57.1078 29.1536 57.0843C29.2239 57.0608 29.3176 56.9668 29.5283 56.8963C29.5049 56.9668 29.4815 57.0608 29.3878 57.2018C29.2239 57.4838 28.5681 58.0008 28.1232 58.3534C27.6782 58.7059 26.9756 58.8939 26.7414 59.0584C26.5072 59.2229 26.6009 59.5285 26.554 59.5755C26.5072 59.6225 26.3667 59.74 26.6946 59.7635C27.0224 59.8105 28.7555 59.928 29.5986 59.9045C30.4417 59.881 30.8398 59.5285 31.0506 59.3404C31.2614 59.1524 31.5658 59.3639 31.8937 59.4109C32.2216 59.4579 33.4628 59.0349 33.4628 59.0349C33.4628 59.0349 33.416 58.4944 33.416 58.3769C33.416 58.2594 33.3457 58.2594 33.3457 58.2594C33.3926 57.9773 33.3457 57.5073 33.2755 57.2488C33.2052 56.9903 32.8305 56.5437 32.8305 56.5437C32.7837 56.5437 32.7368 56.5672 32.7134 56.5672C32.7368 56.5437 32.7603 56.5202 32.7837 56.5202C32.8305 56.4732 32.8539 56.4262 32.8539 56.3792C32.8773 56.0972 32.9008 55.2511 32.8539 54.9456C32.7837 54.5931 32.409 53.9115 32.4558 53.606C32.4558 53.3475 32.2216 47.237 32.1045 46.0619C31.9874 44.9104 31.519 43.9703 31.5893 43.6883C31.6595 43.4297 31.8937 42.0901 32.0577 41.5731C32.2216 41.0561 32.1513 40.4685 32.2919 39.7165C32.4324 38.9644 33.5565 34.7341 33.6268 34.6401C33.697 34.5461 34.1888 36.9433 34.3294 38.9174C34.4699 40.8916 34.423 45.4274 34.4465 46.5085C34.4699 47.5661 34.3528 52.0079 34.4465 52.5249C34.4465 52.6894 33.9547 54.2876 33.7907 55.1336C33.6268 56.0032 33.5565 56.1677 33.6034 56.4027C33.6268 56.6377 33.697 57.0843 33.7673 57.0608C33.7907 57.0608 33.9078 56.9668 34.0952 56.9198C34.0249 57.2958 33.9312 58.1653 34.1888 58.4709C34.1888 58.4709 34.142 58.4709 34.0952 58.5414C34.0717 58.6119 34.0483 59.2229 34.0483 59.2699C34.0483 59.3169 34.0952 59.3639 34.1186 59.4579C34.1654 59.552 33.9781 59.787 34.1654 59.9045C34.3528 59.9985 36.8587 60.0455 37.3037 59.9515C37.7486 59.8575 37.7955 59.7635 37.7955 59.7165C37.7955 59.6695 37.7721 59.4579 37.655 59.4109C37.655 59.4109 37.7018 59.1054 37.4208 58.7529C37.1631 58.4004 36.7416 57.7188 36.7416 57.2958C36.7416 57.2488 36.7416 57.2018 36.7416 57.1548C36.8353 57.0373 36.9524 56.8727 37.1397 56.6142C37.491 56.0972 37.4676 55.6507 37.6315 55.2981C37.7955 54.9456 37.936 54.9221 37.936 54.4286C37.936 53.935 38.0765 53.747 38.0999 53.3945C38.1233 53.042 38.4044 50.2688 38.4512 49.1642C38.4746 48.0596 38.4981 45.0044 38.5449 44.1113C38.5683 43.2417 39.2943 36.4967 39.4114 35.2276C39.5285 33.9585 39.6925 33.1595 39.7861 32.0784C39.7861 31.9609 39.7861 31.8199 39.7861 31.6789C40.1843 30.9973 40.2545 30.3393 40.2545 30.1513C40.3014 30.1513 40.3482 30.1748 40.3951 30.1748C40.5121 30.1983 40.6058 30.1983 40.6292 30.1748C40.6761 30.1043 40.7463 29.5872 40.7698 29.3287H40.7932C41.285 29.2582 41.3553 29.1407 41.3553 29.1407C41.3553 29.1407 41.5192 21.5966 41.5895 21.1501C41.6597 20.7036 41.7534 20.6095 41.73 20.445C41.7065 20.2805 41.4958 20.2335 41.566 20.0455ZM27.9358 21.5731C27.9592 21.4556 27.9124 21.4086 27.9358 21.2911C27.9592 21.1736 28.0529 21.0796 28.1232 20.9621C28.1934 20.8211 28.0997 20.5625 28.1232 20.3275C28.1466 20.0925 28.2403 19.0114 28.2403 19.0584C28.2168 19.2699 28.4979 20.304 28.451 20.5155C28.4042 20.7506 28.3808 20.7976 28.3339 21.2676C28.3105 21.7376 28.3105 22.2782 28.2403 22.5837C28.17 22.8892 28.0295 23.9703 28.0295 23.9703C28.0061 23.6648 27.8421 22.0197 27.9124 21.9021C28.0295 21.7611 27.9358 21.6906 27.9358 21.5731ZM31.3785 7.98911C31.3785 8.01261 31.3785 8.01261 31.3551 8.03611C31.3551 8.01261 31.3551 8.01261 31.3785 7.98911Z" fill="#638CC2"/>
<path d="M19.7487 21.4535C20.3678 20.6764 20.7806 20.2878 20.6659 19.6478C19.9092 15.7851 18.2353 11.2596 18.0977 10.7796C18.006 10.4596 17.7309 10.4139 17.6621 10.3911C17.6162 10.3911 17.02 10.1396 16.7449 10.0254C16.4926 9.91107 13.4888 8.76826 13.2824 8.69969C13.0073 8.60826 12.9614 8.42541 12.7321 8.35685C12.6863 8.33399 12.6175 8.33399 12.5716 8.33399C12.5716 8.15114 12.5716 8.014 12.5945 7.96829C12.755 7.69401 12.9843 7.21403 13.1678 6.80262C12.9843 7.21403 13.5576 6.82548 13.9474 6.27693C14.3601 5.70552 14.4748 4.63128 14.3372 3.37418C14.2226 2.1628 12.6863 0.174305 11.3334 0.0143107C9.68242 -0.191396 7.66458 1.86567 7.38942 3.28276C7.11426 4.69984 7.18305 5.4541 7.36649 5.91123C7.54993 6.41406 7.9856 7.03118 8.19197 7.09975C8.37541 7.60259 8.97159 8.12828 9.06331 8.47113C9.06331 8.49398 9.06331 8.5397 9.08624 8.58541C8.99452 8.58541 8.71936 8.67683 8.53592 8.9054C8.53592 8.9054 7.41235 9.24824 6.79324 9.43109C6.1512 9.59108 4.86712 10.0482 4.7754 10.0482C4.68368 10.0482 4.43145 10.1396 4.27094 10.3682C3.88113 10.9853 2.41361 15.2594 2.13845 16.5622C2.00087 17.2479 1.1066 19.3507 1.1066 19.9907C1.1066 20.4935 2.36775 22.1849 3.60597 23.3277C3.76648 23.4877 3.99578 23.6248 4.13336 23.8077C4.27094 24.0134 4.15629 24.2877 4.13336 24.4934C4.01871 25.1791 4.06457 25.8647 3.97285 26.5276C3.8582 27.3961 3.6289 28.2418 3.44546 29.1103C3.37667 29.4532 3.19323 29.9789 3.26202 30.3446C3.26202 30.3674 3.28495 30.4131 3.33081 30.4817C3.33081 30.5046 3.35374 30.5046 3.35374 30.5503C3.44546 30.6874 3.72062 31.0988 3.99578 31.3502C4.01871 31.3731 4.04164 31.396 4.04164 31.396C4.04164 31.396 4.06457 31.396 4.06457 31.4188C4.06457 31.4188 4.06457 31.4188 4.0875 31.4188C4.11043 31.4417 4.15629 31.4645 4.20215 31.4874C4.22508 31.4874 4.22508 31.5102 4.24801 31.5102C4.36266 33.7044 4.86712 37.7043 4.91298 39.0071C4.98177 40.607 5.05056 45.0183 5.07349 46.6868C5.09642 48.5839 5.32572 51.258 5.39451 53.1551C5.39451 53.4065 5.50916 53.7951 5.44037 54.0237C5.39451 54.1836 5.21107 54.2294 5.27986 54.3894C5.32572 54.5265 5.48623 54.5951 5.4633 54.7322C5.4633 54.8008 5.39451 54.8465 5.37158 54.8922C5.32572 54.9379 5.30279 55.0065 5.32572 55.075C5.34865 55.0979 5.39451 55.1208 5.39451 55.1436C5.30279 55.5093 5.32572 55.7836 5.34865 56.0579C5.44037 56.1264 5.66967 56.1721 5.96776 56.2179C5.78432 56.7207 5.14228 57.315 4.33973 57.9321C3.94992 58.2521 3.1703 59.2577 4.04164 59.6692C4.82126 59.8749 6.33464 59.7834 6.95375 59.4634C7.54993 59.1435 7.43528 58.7092 7.59579 58.6406C7.7563 58.5721 8.87987 58.4121 8.87987 58.1835C8.9028 57.9321 9.01745 57.6121 8.92573 57.4521C8.83401 57.315 8.97159 57.1321 8.99452 56.8807C9.01745 56.7435 8.97159 56.5378 8.87987 56.3093C8.87987 56.3093 8.9028 56.3093 8.9028 56.2864C9.08624 55.7379 8.99452 55.1436 9.20089 54.5951C9.29261 54.3436 9.20089 54.1837 9.17796 53.9551C9.15503 53.7494 9.22382 53.4751 9.24675 53.2694C9.29261 52.7666 9.33847 52.2637 9.38433 51.7609C9.45312 50.9609 9.52191 50.1381 9.52191 49.3153C9.49898 47.6468 9.1321 43.944 9.24675 43.0298C9.33847 42.0927 9.24675 41.1327 9.43019 39.9442C9.47605 39.6242 9.56777 39.0299 9.68242 38.3214C9.77414 38.1614 9.79707 37.6586 9.79707 37.5214C9.84293 37.1786 9.88879 36.8129 9.95758 36.4701C9.95758 36.4472 9.95758 36.4015 9.95758 36.3786C10.1869 34.8701 10.4162 33.4073 10.5538 32.973C10.5538 32.9502 10.5538 32.9502 10.5767 32.9273C10.5996 32.9045 10.5996 32.8816 10.6226 32.8588C10.8748 32.6759 12.0442 37.6814 12.2964 39.4414C12.5487 41.247 13.1449 44.4926 13.3283 46.7325C13.5117 48.9724 14.2455 52.6294 14.4748 54.0922C14.4977 54.2294 14.5436 54.3665 14.5436 54.5036C14.5436 54.6179 14.5207 54.7322 14.5207 54.8236C14.5436 54.9151 14.6124 54.9836 14.6353 55.075C14.6812 55.4636 14.8417 55.9207 14.9793 56.3093C15.048 56.3321 15.0939 56.355 15.1627 56.355C15.0939 56.5836 15.1168 56.8121 15.1168 56.9493C15.1168 57.1092 15.2773 57.0407 15.1856 57.1092C15.071 57.1778 15.048 57.9092 15.1398 58.0235C15.2086 58.1378 15.5754 58.3435 15.8277 58.4578C16.0799 58.5721 16.1487 58.7092 16.1487 58.9378C16.1487 59.1663 16.2175 59.212 16.7907 59.5777C17.364 59.9434 18.8086 60.0349 19.0379 59.9891C19.2672 59.9663 19.657 60.0349 19.7946 59.4634C19.978 58.7092 18.671 57.475 18.3041 57.0407C18.0748 56.7893 17.9831 56.4007 17.9602 56.1264C18.1436 56.0579 18.2583 56.035 18.3041 56.035C18.4417 56.035 18.35 55.6236 18.35 55.5779C18.35 55.4865 18.3729 55.395 18.35 55.3036C18.327 55.1893 18.2353 55.0979 18.2124 54.9608C18.2124 54.8922 18.2353 54.8236 18.2353 54.7551C18.2582 54.6408 18.2812 54.5494 18.3041 54.4351C18.327 54.3436 18.35 54.2751 18.327 54.1837C18.327 54.0694 18.2353 54.0237 18.1895 53.9322C18.1665 53.818 18.1895 53.658 18.1895 53.5665C18.1895 53.2923 18.1895 53.018 18.2124 52.7666C18.3041 50.3895 17.4557 42.1384 17.2493 40.8127C17.043 39.4871 16.8595 36.4015 16.8137 33.1787C16.8137 32.6073 16.7678 31.9674 16.699 31.2817C16.9283 31.1445 17.1347 30.9617 17.1805 30.916C17.2035 30.916 17.1576 30.916 17.1117 30.9388C17.2035 30.8931 17.2723 30.8474 17.2723 30.8246C17.2723 30.7331 17.2035 29.2932 17.0659 27.8075C16.9283 26.3219 16.699 24.2419 16.7678 24.1048C16.9054 24.082 19.1067 22.2306 19.7487 21.4535ZM12.5945 8.5397C12.6175 8.63112 12.6404 8.79111 12.6175 8.95111C12.6175 8.83683 12.5945 8.67683 12.5945 8.5397ZM12.8697 8.51684C12.8697 8.49398 12.8697 8.51684 12.8697 8.51684V8.51684ZM9.06331 8.7454C9.01745 8.7454 8.97159 8.81397 8.94866 8.92825C8.97159 8.76826 9.01745 8.7454 9.06331 8.7454ZM4.68368 18.8936C4.86712 18.3222 5.16521 17.7508 5.09642 17.1565C5.16521 17.1794 5.18814 17.2708 5.18814 17.3394C5.21107 18.5736 5.25693 19.3507 5.18814 20.425C5.18814 20.5164 5.07349 20.5392 5.02763 20.4707C4.91298 20.3107 4.84419 20.1964 4.75247 19.9678C4.68368 19.785 4.40852 19.785 4.38559 19.5793C4.40852 19.3964 4.63782 19.0536 4.68368 18.8936ZM16.8595 31.2131C16.8137 31.236 16.7907 31.2588 16.7449 31.2817C16.7907 31.236 16.8137 31.2131 16.8595 31.2131ZM16.6761 20.5392C16.6073 20.6078 16.4926 20.5392 16.4926 20.4478C16.5844 19.305 16.7678 18.9164 16.8366 17.6365C16.8366 17.5679 16.8595 17.4993 16.8824 17.4308C16.9054 17.3851 16.9742 17.4079 16.9742 17.4536C16.8824 18.3222 17.0888 18.1165 17.2035 18.9393C17.2493 19.2136 17.2952 19.465 17.2264 19.7393C17.1805 19.9221 16.9971 19.9907 16.9283 20.1507C16.8595 20.2421 16.7907 20.425 16.6761 20.5392Z" fill="#638CC2"/>
</g>
<defs>
<clipPath id="clip0">
<path d="M0.851501 0H59.8515V60H0.851501V0Z" fill="white"/>
</clipPath>
</defs>
</svg>
